<svg class="icon" viewBox="0 0 1024 1024" xmlns="http://www.w3.org/2000/svg" width="200" height="200"><path d="M544 522.667c0-8.534-4.267-17.067-10.667-23.467L192 189.867c-12.8-12.8-34.133-10.667-44.8 2.133-12.8 12.8-10.667 34.133 2.133 44.8l315.734 285.867-315.734 285.866c-12.8 12.8-14.933 32-2.133 44.8 6.4 6.4 14.933 10.667 23.467 10.667 8.533 0 14.933-2.133 21.333-8.533l341.333-309.334c6.4-6.4 10.667-14.933 10.667-23.466z" fill="#1677ff"/><path d="M864 499.2 522.667 189.867c-12.8-12.8-34.134-10.667-44.8 2.133-12.8 12.8-10.667 34.133 2.133 44.8l315.733 285.867L480 808.533c-12.8 12.8-14.933 32-2.133 44.8 6.4 6.4 14.933 10.667 23.466 10.667 8.534 0 14.934-2.133 21.334-8.533L864 546.133c6.4-6.4 10.667-14.933 10.667-23.466 0-8.534-4.267-17.067-10.667-23.467z" fill="#1677ff"/></svg>
