<svg t="1701245431007" class="icon" viewBox="0 0 1024 1024" version="1.1" xmlns="http://www.w3.org/2000/svg" p-id="5230" width="200" height="200"><path d="M544 522.666667c0-8.533333-4.266667-17.066667-10.666667-23.466667L192 189.866667c-12.8-12.8-34.133333-10.666667-44.8 2.133333-12.8 12.8-10.666667 34.133333 2.133333 44.8l315.733334 285.866667L149.333333 808.533333c-12.8 12.8-14.933333 32-2.133333 44.8 6.4 6.4 14.933333 10.666667 23.466667 10.666667 8.533333 0 14.933333-2.133333 21.333333-8.533333l341.333333-309.333334c6.4-6.4 10.666667-14.933333 10.666667-23.466666z" fill="#1677ff" p-id="5231"></path><path d="M864 499.2l-341.333333-309.333333c-12.8-12.8-34.133333-10.666667-44.8 2.133333-12.8 12.8-10.666667 34.133333 2.133333 44.8l315.733333 285.866667-315.733333 285.866666c-12.8 12.8-14.933333 32-2.133333 44.8 6.4 6.4 14.933333 10.666667 23.466666 10.666667 8.533333 0 14.933333-2.133333 21.333334-8.533333l341.333333-309.333334c6.4-6.4 10.666667-14.933333 10.666667-23.466666 0-8.533333-4.266667-17.066667-10.666667-23.466667z" fill="#1677ff" p-id="5232"></path></svg>