<svg t="1701244927821" class="icon" viewBox="0 0 1024 1024" version="1.1" xmlns="http://www.w3.org/2000/svg" p-id="5047" width="200" height="200"><path d="M842.666667 864c-8.533333 0-14.933333-2.133333-21.333334-8.533333l-341.333333-309.333334c-6.4-6.4-10.666667-14.933333-10.666667-23.466666 0-8.533333 4.266667-17.066667 10.666667-23.466667l341.333333-309.333333c12.8-12.8 34.133333-10.666667 44.8 2.133333 12.8 12.8 10.666667 34.133333-2.133333 44.8L548.266667 522.666667l315.733333 285.866666c12.8 10.666667 14.933333 32 2.133333 44.8-6.4 6.4-14.933333 10.666667-23.466666 10.666667z" fill="#1677ff" p-id="5048"></path><path d="M512 864c-8.533333 0-14.933333-2.133333-21.333333-8.533333L149.333333 546.133333c-6.4-6.4-10.666667-14.933333-10.666666-23.466666 0-8.533333 4.266667-17.066667 10.666666-23.466667L490.666667 189.866667c12.8-12.8 34.133333-10.666667 44.8 2.133333 12.8 12.8 10.666667 34.133333-2.133334 44.8L217.6 522.666667 533.333333 808.533333c12.8 12.8 14.933333 32 2.133334 44.8-6.4 6.4-14.933333 10.666667-23.466667 10.666667z" fill="#1677ff" p-id="5049"></path></svg>