<svg viewBox="0 0 42 31" xmlns="http://www.w3.org/2000/svg"><path d="m20.872 15.498 4.512 6.003h-3.012v9h-3v-9H16.38l4.49-6.003Zm0-14.999c6.47 0 11.946 4.143 14.046 9.897 3.957.945 6.918 4.491 6.918 8.733 0 4.962-4.038 9-9 9-1.044 0-2.034-.213-2.964-.546v-3.315c.738.426 1.55.732 2.445.81.174.012.342.051.519.051 3.309 0 6-2.691 6-6 0-2.262-1.272-4.212-3.126-5.235-.858-.471-1.827-.765-2.874-.765-.07 0-.132.018-.201.021-.207-1.026-.576-1.983-1.023-2.898-1.953-3.981-6.012-6.753-10.74-6.753-4.725 0-8.778 2.769-10.737 6.744-.45.915-.82 1.872-1.026 2.898L9 13.129c-1.086 0-2.094.315-2.973.822C4.228 14.986 3 16.909 3 19.129c0 3.309 2.69 6 6 6 .147 0 .285-.033.432-.045.888-.063 1.698-.357 2.439-.759v3.285c-.906.315-1.86.519-2.871.519-4.962 0-9-4.038-9-9 0-4.203 2.91-7.716 6.813-8.7C8.904 4.66 14.389.499 20.872.499Z" fill="currentColor" fill-rule="evenodd"/></svg>
