<?xml version="1.0" encoding="UTF-8"?>
<svg  viewBox="0 0 42 31" version="1.1" xmlns="http://www.w3.org/2000/svg" xmlns:xlink="http://www.w3.org/1999/xlink">
    <defs>
        <filter id="filter-1">
            <feColorMatrix in="SourceGraphic" type="matrix" values="0 0 0 0 0.831373 0 0 0 0 0.839216 0 0 0 0 0.850980 0 0 0 1.000000 0"></feColorMatrix>
        </filter>
    </defs>
    <g id="数据输入" stroke="none" stroke-width="1" fill="none" fill-rule="evenodd">
        <g id="13-上传-Upload" transform="translate(-279.000000, -4033.000000)">
            <g id="3.数据输入/4.上传/2.拖拽上传/1.未上传" transform="translate(120.000000, 3986.000000)">
                <g id="编组-2" transform="translate(101.000000, 40.000000)">
                    <g id="图标-2" transform="translate(55.000000, 0.000000)" filter="url(#filter-1)">
                        <g id="图标">
                            <rect id="矩形" stroke="#979797" stroke-width="3" fill="#D8D8D8" opacity="0" x="1.5" y="1.5" width="45" height="45"></rect>
                            <path d="M23.8719,22.49754 L28.3839,28.50054 L25.3719,28.50054 L25.3719,37.50054 L22.3719,37.50054 L22.3719,28.50054 L19.3809,28.50054 L23.8719,22.49754 Z M23.8716,7.49904 C30.3426,7.49904 35.8176,11.64204 37.9176,17.39604 C41.8746,18.34104 44.8356,21.88704 44.8356,26.12904 C44.8356,31.09104 40.7976,35.12904 35.8356,35.12904 C34.7916,35.12904 33.8016,34.91604 32.8716,34.58304 L32.8716,34.58304 L32.8716,31.26804 C33.6096,31.69404 34.4226,32.00004 35.3166,32.07804 C35.4906,32.09004 35.6586,32.12904 35.8356,32.12904 C39.1446,32.12904 41.8356,29.43804 41.8356,26.12904 C41.8356,23.86704 40.5636,21.91704 38.7096,20.89404 C37.8516,20.42304 36.8826,20.12904 35.8356,20.12904 C35.7666,20.12904 35.7036,20.14704 35.6346,20.15004 C35.4276,19.12404 35.0586,18.16704 34.6116,17.25204 C32.6586,13.27104 28.5996,10.49904 23.8716,10.49904 C19.1466,10.49904 15.0936,13.26804 13.1346,17.24304 C12.6846,18.15804 12.3156,19.11504 12.1086,20.14104 L12.1086,20.14104 L12.0006,20.12904 C10.9146,20.12904 9.9066,20.44404 9.0276,20.95104 C7.2276,21.98604 6.0006,23.90904 6.0006,26.12904 C6.0006,29.43804 8.6916,32.12904 12.0006,32.12904 C12.1476,32.12904 12.2856,32.09604 12.4326,32.08404 C13.3206,32.02104 14.1306,31.72704 14.8716,31.32504 L14.8716,31.32504 L14.8716,34.61004 C13.9656,34.92504 13.0116,35.12904 12.0006,35.12904 C7.0386,35.12904 3.0006,31.09104 3.0006,26.12904 C3.0006,21.92604 5.9106,18.41304 9.8136,17.42904 C11.9046,11.66004 17.3886,7.49904 23.8716,7.49904 Z" id="形状结合" fill="#151B26"></path>
                        </g>
                    </g>
                </g>
            </g>
        </g>
    </g>
</svg>