<svg viewBox="0 0 122 123" version="1.1" 
    xmlns="http://www.w3.org/2000/svg" 
    xmlns:xlink="http://www.w3.org/1999/xlink">
    <g id="th" transform="translate(0.062500, 0.671875)" fill="currentColor" fill-rule="nonzero">
        <path d="M5.5208334,0.078125 L27.6041666,0.078125 C29.2708332,0.078125 30.5208332,0.494791602 31.3541666,1.7447916 C32.1875,2.9947916 33.0208334,4.2447916 33.0208334,5.4947916 L33.0208334,27.578125 C33.0208334,29.2447916 32.6041666,30.4947916 31.3541666,31.328125 C30.1041666,32.1614584 28.8541666,32.9947916 27.6041666,32.9947916 L5.5208334,32.9947916 C3.8541668,32.9947916 2.6041666,32.578125 1.7708334,31.328125 C0.520833398,30.078125 0.104166602,28.828125 0.104166602,27.578125 L0.104166602,5.4947916 C0.104166602,3.828125 0.520833203,2.578125 1.7708334,1.7447916 C2.6041666,0.911458203 3.8541668,0.078125 5.5208334,0.078125 Z M49.6875,0.078125 L71.7708334,0.078125 C73.4375,0.078125 74.6875,0.494791602 75.5208334,1.7447916 C76.7708334,2.9947916 77.1875,4.2447916 77.1875,5.4947916 L77.1875,27.578125 C77.1875,29.2447916 76.7708334,30.4947916 75.5208334,31.328125 C74.2708334,32.578125 73.0208334,32.9947916 71.7708334,32.9947916 L49.6875,32.9947916 C48.0208334,32.9947916 46.7708334,32.578125 45.9375,31.328125 C44.6875,30.078125 44.2708334,28.828125 44.2708334,27.578125 L44.2708334,5.4947916 C44.2708334,3.828125 44.6875,2.578125 45.9375,1.7447916 C46.7708334,0.911458203 48.4375,0.078125 49.6875,0.078125 L49.6875,0.078125 Z M94.2708334,0.078125 L116.354167,0.078125 C118.020833,0.078125 119.270833,0.494791602 120.104167,1.7447916 C120.9375,2.9947916 121.770833,4.2447916 121.770833,5.4947916 L121.770833,27.578125 C121.770833,29.2447916 121.354167,30.4947916 120.104167,31.328125 C118.854167,32.1614584 117.604167,32.9947916 116.354167,32.9947916 L94.2708334,32.9947916 C92.6041668,32.9947916 91.3541666,32.578125 90.5208334,31.328125 C89.6875,30.078125 88.8541666,28.828125 88.8541666,27.578125 L88.8541666,5.4947916 C88.8541666,3.828125 89.2708332,2.578125 90.5208334,1.7447916 C91.7708336,0.911458203 92.6041668,0.078125 94.2708334,0.078125 Z M5.5208334,44.6614584 L27.6041666,44.6614584 C29.2708332,44.6614584 30.5208332,45.078125 31.3541666,46.328125 C32.6041666,47.578125 33.0208334,48.828125 33.0208334,50.078125 L33.0208334,72.1614584 C33.0208334,73.828125 32.6041666,75.078125 31.3541666,75.9114584 C30.1041666,76.7447918 28.8541666,77.578125 27.6041666,77.578125 L5.5208334,77.578125 C3.8541668,77.578125 2.6041666,77.1614584 1.7708334,75.9114584 C0.520833398,74.6614584 0.104166602,73.4114584 0.104166602,72.1614584 L0.104166602,50.078125 C0.104166602,48.4114584 0.520833203,47.1614584 1.7708334,46.328125 C2.6041666,45.078125 3.8541668,44.6614584 5.5208334,44.6614584 Z M49.6875,44.6614584 L71.7708334,44.6614584 C73.4375,44.6614584 74.6875,45.078125 75.5208334,46.328125 C76.7708334,47.578125 77.1875,48.828125 77.1875,50.078125 L77.1875,72.1614584 C77.1875,73.828125 76.7708334,75.078125 75.5208334,75.9114584 C74.2708334,77.1614584 73.0208334,77.578125 71.7708334,77.578125 L49.6875,77.578125 C48.0208334,77.578125 46.7708334,77.1614584 45.9375,75.9114584 C44.6875,74.6614584 44.2708334,73.4114584 44.2708334,72.1614584 L44.2708334,50.078125 C44.2708334,48.4114584 44.6875,47.1614584 45.9375,46.328125 C46.7708334,45.078125 48.4375,44.6614584 49.6875,44.6614584 L49.6875,44.6614584 Z M94.2708334,44.6614584 L116.354167,44.6614584 C118.020833,44.6614584 119.270833,45.078125 120.104167,46.328125 C121.354167,47.578125 121.770833,48.828125 121.770833,50.078125 L121.770833,72.1614584 C121.770833,73.828125 121.354167,75.078125 120.104167,75.9114584 C118.854167,76.7447918 117.604167,77.578125 116.354167,77.578125 L94.2708334,77.578125 C92.6041668,77.578125 91.3541666,77.1614584 90.5208334,75.9114584 C89.6875,74.6614584 88.8541666,73.4114584 88.8541666,72.1614584 L88.8541666,50.078125 C88.8541666,48.4114584 89.2708332,47.1614584 90.5208334,46.328125 C91.3541666,45.078125 92.6041668,44.6614584 94.2708334,44.6614584 Z M5.5208334,89.2447916 L27.6041666,89.2447916 C29.2708332,89.2447916 30.5208332,89.6614582 31.3541666,90.9114584 C32.1875,92.1614586 33.0208334,93.4114584 33.0208334,94.6614584 L33.0208334,116.744792 C33.0208334,118.411458 32.6041666,119.661458 31.3541666,120.494792 C30.1041666,121.328125 28.8541666,122.161458 27.6041666,122.161458 L5.5208334,122.161458 C3.8541668,122.161458 2.6041666,121.744792 1.7708334,120.494792 C0.520833398,119.244792 0.104166602,117.994792 0.104166602,116.744792 L0.104166602,94.6614584 C0.104166602,92.9947918 0.520833203,91.7447916 1.7708334,90.9114584 C2.6041666,89.6614584 3.8541668,89.2447916 5.5208334,89.2447916 Z M49.6875,89.2447916 L71.7708334,89.2447916 C73.4375,89.2447916 74.6875,89.6614582 75.5208334,90.9114584 C76.7708334,92.1614584 77.1875,93.4114584 77.1875,94.6614584 L77.1875,116.744792 C77.1875,118.411458 76.7708334,119.661458 75.5208334,120.494792 C74.2708334,121.744792 73.0208334,122.161458 71.7708334,122.161458 L49.6875,122.161458 C48.0208334,122.161458 46.7708334,121.744792 45.9375,120.494792 C44.6875,119.244792 44.2708334,117.994792 44.2708334,116.744792 L44.2708334,94.6614584 C44.2708334,92.9947918 44.6875,91.7447916 45.9375,90.9114584 C46.7708334,89.6614584 48.4375,89.2447916 49.6875,89.2447916 L49.6875,89.2447916 Z M94.2708334,89.2447916 L116.354167,89.2447916 C118.020833,89.2447916 119.270833,89.6614582 120.104167,90.9114584 C120.9375,92.1614586 121.770833,93.4114584 121.770833,94.6614584 L121.770833,116.744792 C121.770833,118.411458 121.354167,119.661458 120.104167,120.494792 C118.854167,121.328125 117.604167,122.161458 116.354167,122.161458 L94.2708334,122.161458 C92.6041668,122.161458 91.3541666,121.744792 90.5208334,120.494792 C89.6875,119.244792 88.8541666,117.994792 88.8541666,116.744792 L88.8541666,94.6614584 C88.8541666,92.9947918 89.2708332,91.7447916 90.5208334,90.9114584 C91.3541666,89.6614584 92.6041668,89.2447916 94.2708334,89.2447916 Z"></path>
    </g>
</svg>