<?xml version="1.0" encoding="UTF-8"?>
<svg width="16px" height="16px" viewBox="0 0 16 16" version="1.1" xmlns="http://www.w3.org/2000/svg" xmlns:xlink="http://www.w3.org/1999/xlink">
    <title>拖拽</title>
    <g id="拖拽" stroke="none" stroke-width="1" fill="none" fill-rule="evenodd">
        <rect id="矩形" stroke="#979797" fill="#D8D8D8" opacity="0" x="0.5" y="0.5" width="15" height="15"></rect>
        <path d="M6,12 C5.44771525,12 5,12.4477152 5,13 C5,13.5522848 5.44771525,14 6,14 C6.55228475,14 7,13.5522848 7,13 C7,12.4477152 6.55228475,12 6,12 Z M6,7 C5.44771525,7 5,7.44771525 5,8 C5,8.55228475 5.44771525,9 6,9 C6.55228475,9 7,8.55228475 7,8 C7,7.44771525 6.55228475,7 6,7 Z M6,2 C5.44771525,2 5,2.4477153 5,3 C5,3.5522847 5.44771525,4 6,4 C6.55228475,4 7,3.5522847 7,3 C7,2.4477153 6.55228475,2 6,2 Z M10,12 C9.44771525,12 9,12.4477152 9,13 C9,13.5522848 9.44771525,14 10,14 C10.5522847,14 11,13.5522848 11,13 C11,12.4477152 10.5522847,12 10,12 Z M10,7 C9.44771525,7 9,7.44771525 9,8 C9,8.55228475 9.44771525,9 10,9 C10.5522847,9 11,8.55228475 11,8 C11,7.44771525 10.5522847,7 10,7 Z M10,2 C9.44771525,2 9,2.4477153 9,3 C9,3.5522847 9.44771525,4 10,4 C10.5522847,4 11,3.5522847 11,3 C11,2.4477153 10.5522847,2 10,2 Z" id="形状" fill="#151B26"></path>
    </g>
</svg>