<?xml version="1.0" encoding="UTF-8"?>
<svg viewBox="0 0 26 126" version="1.1" xmlns="http://www.w3.org/2000/svg" xmlns:xlink="http://www.w3.org/1999/xlink">
	<g stroke="none" stroke-width="1" fill="none" fill-rule="evenodd">
		<g id="ellipsis-vertical" transform="translate(0.500000, 0.500000)" fill="currentColor" fill-rule="nonzero">
			<path d="M12.5,0 C5.625,0 0,5.625 0,12.5 C0,19.375 5.625,25 12.5,25 C19.375,25 25,19.375 25,12.5 C25,5.625 19.375,0 12.5,0 Z M12.5,50 C5.625,50 0,55.625 0,62.5 C0,69.375 5.625,75 12.5,75 C19.375,75 25,69.375 25,62.5 C25,55.625 19.375,50 12.5,50 Z M12.5,100 C5.625,100 0,105.625 0,112.5 C0,119.375 5.625,125 12.5,125 C19.375,125 25,119.375 25,112.5 C25,105.625 19.375,100 12.5,100 Z" id="形状">
			</path>
		</g>
	</g>
</svg>
