<svg viewBox="0 0 175 201" xmlns="http://www.w3.org/2000/svg"><path d="M104.295 11.995v177.5c0 6.2 5.1 11.3 11.3 11.3 3.4 0 6.5-1.5 8.7-4.1.8-.6 1.5-1.4 2.1-2.2l46.5-66.3c3.6-5.1 2.4-12.1-2.7-15.7-5.1-3.6-12.1-2.3-15.7 2.8l-27.6 39.3v-142.6c-.1-6.2-5.2-11.3-11.4-11.3s-11.2 5.1-11.2 11.3Zm-33.2 0c0-6.2-5.1-11.3-11.3-11.3-3.4 0-6.5 1.5-8.7 4.1-.8.7-1.5 1.4-2.1 2.2l-46.5 66.3c-1.3 1.9-2 4.1-2 6.5 0 3.7 1.8 7.1 4.8 9.2 2.5 1.7 5.4 2.4 8.4 1.9s5.5-2.2 7.3-4.6l27.6-39.3v142.5c0 6.2 5.1 11.3 11.3 11.3 6.2-.1 11.2-5.2 11.2-11.4v-177.4Z" fill="currentColor"/></svg>
