<svg viewBox="0 0 200 168" xmlns="http://www.w3.org/2000/svg"><g fill="currentFolder"><path d="M166.667 167.333H8.333C3.333 167.333 0 164 0 159V9C0 4 3.333.667 8.333.667h58.334C71.667.667 75 4 75 9v8.333h91.667c5 0 8.333 3.334 8.333 8.334V59c0 5-3.333 8.333-8.333 8.333S158.333 64 158.333 59V34H66.667c-5 0-8.334-3.333-8.334-8.333v-8.334H16.667v133.334h150c5 0 8.333 3.333 8.333 8.333s-3.333 8.333-8.333 8.333Z"/><path d="M166.667 167.333H8.333c-2.5 0-5-.833-6.666-3.333C0 161.5 0 159.833 0 157.333l25-100c.833-4.166 4.167-6.666 8.333-6.666h158.334c2.5 0 5 .833 6.666 3.333C200 56.5 200 58.167 200 60.667l-25 100c-.833 4.166-4.167 6.666-8.333 6.666Zm-147.5-16.666H160l20.833-83.334H40l-20.833 83.334Z"/></g></svg>
