<?xml version="1.0" encoding="UTF-8"?>
<svg viewBox="0 0 200 168" version="1.1" xmlns="http://www.w3.org/2000/svg" xmlns:xlink="http://www.w3.org/1999/xlink">
	<g id="folder-(1)" transform="translate(0.000000, 0.601562)" fill="currentFolder" fill-rule="nonzero">
		<path d="M166.666667,166.731771 L8.3333334,166.731771 C3.3333334,166.731771 0,163.398437 0,158.398437 L0,8.3984375 C0,3.3984375 3.3333334,0.0651041016 8.3333334,0.0651041016 L66.6666668,0.0651041016 C71.6666668,0.0651041016 75,3.3984375 75,8.3984375 L75,16.7317709 L166.666667,16.7317709 C171.666667,16.7317709 175,20.0651041 175,25.0651041 L175,58.3984377 C175,63.3984377 171.666667,66.7317711 166.666667,66.7317711 C161.666667,66.7317711 158.333333,63.3984377 158.333333,58.3984377 L158.333333,33.3984375 L66.6666666,33.3984375 C61.6666666,33.3984375 58.3333334,30.0651041 58.3333334,25.0651041 L58.3333334,16.7317709 L16.6666666,16.7317709 L16.6666666,150.065104 L166.666667,150.065104 C171.666667,150.065104 175,153.398438 175,158.398438 C175,163.398438 171.666667,166.731771 166.666667,166.731771 Z" id="路径">
		</path>
		<path d="M166.666667,166.731771 L8.3333334,166.731771 C5.8333334,166.731771 3.3333334,165.898438 1.6666668,163.398438 C0,160.898438 0,159.231771 0,156.731771 L25,56.7317709 C25.8333334,52.5651041 29.1666666,50.0651041 33.3333334,50.0651041 L191.666667,50.0651041 C194.166667,50.0651041 196.666667,50.8984375 198.333333,53.3984375 C200,55.8984375 200,57.5651041 200,60.0651041 L175,160.065104 C174.166667,164.231771 170.833333,166.731771 166.666667,166.731771 Z M19.1666666,150.065104 L160,150.065104 L180.833333,66.7317707 L40,66.7317707 L19.1666666,150.065104 Z" id="形状">
		</path>
	</g>
</svg>
