<svg viewBox="0 0 16 16" xmlns="http://www.w3.org/2000/svg"><path d="M6.855 1.437C7.72.883 9.146.984 9.828 1.061c.286.032.918.09.853.712-.052.496-.785.446-.98.446-.216 0-.435-.02-.653-.038l-.218-.016c-.906-.058-1.771.053-2.294 1.951L6.213 5.69h1.633c.3 0 .543.24.543.537a.54.54 0 0 1-.543.538H5.982l-1.467 7.132S4.374 15.043 3.662 15a.782.782 0 0 1-.07-.008A.533.533 0 0 1 3.5 15H1.467A.467.467 0 0 1 1 14.533v-.032c0-.242.183-.444.423-.466.517-.05.965-.13 1.347-.244.12-.036.223-.078.308-.126a.465.465 0 0 1 .182-.057l1.415-6.844H2.467a.535.535 0 0 1-.534-.491l.012.069.008-.019c.014-.016.037-.03.046-.05-.013-.015-.058-.03-.058-.047v.093l-.008-.046c.022-.462.214-.568.464-.582l.07-.002h2.441l.34-1.605c.242-1.136.74-2.091 1.607-2.647Zm7.879 4.441c.167.09.254.192.265.309.01.116-.036.23-.14.343l-1.964 2.108 1.937 2.63a.282.282 0 0 1 .042.276c-.03.105-.168.179-.35.275a.656.656 0 0 1-.488.06.613.613 0 0 1-.314-.23l-1.634-2.14-1.983 2.13c-.237.254-.506.291-.812.112-.126-.074-.356-.345-.384-.467-.026-.122.023-.25.15-.386l2.192-2.362-1.597-2.092c-.067-.096-.073-.208-.021-.335.05-.127.168-.202.295-.276a.798.798 0 0 1 .47-.095c.124.008.236.078.339.207l1.328 1.713 1.607-1.733c.139-.152.297-.206.449-.25.15-.042.45.113.613.203Z" fill="currentColor"/></svg>
