<svg viewBox="0 0 200 189" xmlns="http://www.w3.org/2000/svg"><path d="M195.851 92.925 110.601 7.75 104.914 2a6.95 6.95 0 0 0-9.8 0L4.15 92.925A14.104 14.104 0 0 0 0 103.075c.157 7.782 6.53 13.998 14.313 13.962h9.375v71.85h152.625v-71.85h9.575c3.762 0 7.312-1.475 9.987-4.137 2.675-2.675 4.125-6.225 4.125-10 0-3.75-1.475-7.3-4.15-9.975Zm-83.5 80.087h-24.7v-45h24.7v45Zm48.075-71.85v71.85h-33.95v-50.3a8.825 8.825 0 0 0-8.825-8.825h-35.3a8.825 8.825 0 0 0-8.825 8.826v50.3h-33.95v-71.85H18.401L100.026 19.6l5.088 5.1 76.5 76.462h-21.188Z" fill="currentColor"/></svg>
