<svg class="icon" viewBox="0 0 1194 1024" xmlns="http://www.w3.org/2000/svg"><path d="M545.877 227.84C596.224 44.373 689.237 88.747 774.571 88.747c14.506 0 67.413 4.266 70.826-32.427 5.12-45.227-40.96-49.493-61.44-52.053-49.493-5.12-152.746-12.8-215.04 27.306-63.146 40.96-98.986 110.934-116.053 193.707l-24.747 116.907h-98.133c-20.48 0-36.693 5.973-38.4 42.666 1.707 20.48 17.92 36.694 38.4 36.694h81.067L306.09 935.253s-27.307 83.627 31.573 87.04c52.053 3.414 62.293-80.213 62.293-80.213L505.77 421.547h134.826a39.68 39.68 0 0 0 0-79.36h-117.76l23.04-114.347zM182.613 338.176a39.253 39.253 0 0 0-46.933 29.867L1.707 969.643c-4.267 19.626-1.707 37.546 33.28 46.933 20.48 2.56 39.253-10.24 43.52-29.867l133.973-601.6c4.267-21.333-8.533-41.813-29.867-46.933zm108.288 43.69zm0 0v9.387c0-2.56.854-4.266.854-5.973 0-.853-.854-2.56-.854-3.413zm-134.57-189.44c0 32.427 26.453 58.88 58.88 58.88 32.426 0 58.88-26.453 58.88-58.88 0-32.426-26.454-58.88-58.88-58.88-32.427 0-58.88 26.454-58.88 58.88zm707.328 203.18a39.253 39.253 0 0 0-62.294-1.707c-4.266 5.12-106.666 121.173-117.76 299.52-10.24 176.64 57.174 296.96 59.734 302.08 7.68 13.653 20.48 21.333 33.28 22.186 9.386.854 19.626-2.56 28.16-9.386 19.626-17.067 24.746-50.347 11.946-74.24-.853-.854-53.76-97.28-45.226-234.667 8.533-134.827 87.893-226.987 89.6-228.693a61.44 61.44 0 0 0 2.56-75.094zm172.373 617.983c12.8 2.56 26.453-2.56 36.693-13.653 4.267-5.12 93.867-107.52 116.907-281.6 24.747-177.493-53.76-314.88-56.32-320-13.653-23.893-40.96-29.013-61.44-11.947-20.48 16.214-25.6 49.494-11.093 73.387.853 2.56 60.586 110.08 42.666 244.053-18.773 136.534-89.6 218.454-90.453 219.307-17.067 20.48-18.773 53.76-1.707 75.093 6.827 8.534 15.36 13.654 24.747 15.36z" fill="currentColor"/></svg>
