<?xml version="1.0" standalone="no"?>
<svg t="1690876977113" class="icon" viewBox="0 0 1194 1024" version="1.1"
  xmlns="http://www.w3.org/2000/svg" xmlns:xlink="http://www.w3.org/1999/xlink">
  <path
    d="M545.877333 227.84c50.346667-183.466667 143.36-139.093333 228.693334-139.093333 14.506667 0 67.413333 4.266667 70.826666-32.426667 5.12-45.226667-40.96-49.493333-61.44-52.053333-49.493333-5.12-152.746667-12.8-215.04 27.306666-63.146667 40.96-98.986667 110.933333-116.053333 193.706667l-24.746667 116.906667h-98.133333c-20.48 0-36.693333 5.973333-38.4 42.666666 1.706667 20.48 17.92 36.693333 38.4 36.693334h81.066667l-104.96 513.706666s-27.306667 83.626667 31.573333 87.04c52.053333 3.413333 62.293333-80.213333 62.293333-80.213333l105.813334-520.533333h134.826666a39.68 39.68 0 0 0 0-79.36h-117.76l23.04-114.346667zM182.613333 338.176a39.253333 39.253333 0 0 0-46.933333 29.866667l-133.973333 601.6c-4.266667 19.626667-1.706667 37.546667 33.28 46.933333 20.48 2.56 39.253333-10.24 43.52-29.866667l133.973333-601.6c4.266667-21.333333-8.533333-41.813333-29.866667-46.933333z m108.288 43.690667z m0 0v9.386666c0-2.56 0.853333-4.266667 0.853334-5.973333 0-0.853333-0.853333-2.56-0.853334-3.413333z m-134.570666-189.44c0 32.426667 26.453333 58.88 58.88 58.88 32.426667 0 58.88-26.453333 58.88-58.88 0-32.426667-26.453333-58.88-58.88-58.88-32.426667 0-58.88 26.453333-58.88 58.88z m707.328 203.178666a39.253333 39.253333 0 0 0-62.293334-1.706666c-4.266667 5.12-106.666667 121.173333-117.76 299.52-10.24 176.64 57.173333 296.96 59.733334 302.08 7.68 13.653333 20.48 21.333333 33.28 22.186666 9.386667 0.853333 19.626667-2.56 28.16-9.386666 19.626667-17.066667 24.746667-50.346667 11.946666-74.24-0.853333-0.853333-53.76-97.28-45.226666-234.666667 8.533333-134.826667 87.893333-226.986667 89.6-228.693333a61.44 61.44 0 0 0 2.56-75.093334z m172.373333 617.984c12.8 2.56 26.453333-2.56 36.693333-13.653333 4.266667-5.12 93.866667-107.52 116.906667-281.6 24.746667-177.493333-53.76-314.88-56.32-320-13.653333-23.893333-40.96-29.013333-61.44-11.946667-20.48 16.213333-25.6 49.493333-11.093333 73.386667 0.853333 2.56 60.586667 110.08 42.666666 244.053333-18.773333 136.533333-89.6 218.453333-90.453333 219.306667-17.066667 20.48-18.773333 53.76-1.706667 75.093333 6.826667 8.533333 15.36 13.653333 24.746667 15.36z"
    fill="currentColor"></path>
</svg>