<svg viewBox="0 0 172 172" xmlns="http://www.w3.org/2000/svg"><path d="M114.571 139.571v-17.857c0-1.041-.334-1.897-1.004-2.567-.67-.67-1.525-1.004-2.567-1.004h-10.714V61c0-1.042-.335-1.897-1.005-2.567-.67-.67-1.525-1.004-2.567-1.004H61c-1.042 0-1.897.334-2.567 1.004-.67.67-1.004 1.525-1.004 2.567v17.857c0 1.042.334 1.897 1.004 2.567.67.67 1.525 1.005 2.567 1.005h10.714v35.714H61c-1.042 0-1.897.335-2.567 1.004-.67.67-1.004 1.526-1.004 2.567v17.857c0 1.042.334 1.898 1.004 2.567.67.67 1.525 1.005 2.567 1.005h50c1.042 0 1.897-.335 2.567-1.005.67-.67 1.004-1.525 1.004-2.567Zm-14.285-100V21.714c0-1.041-.335-1.897-1.005-2.567-.67-.67-1.525-1.004-2.567-1.004H75.286c-1.042 0-1.898.335-2.567 1.004-.67.67-1.005 1.526-1.005 2.567v17.857c0 1.042.335 1.898 1.005 2.567.67.67 1.525 1.005 2.567 1.005h21.428c1.042 0 1.898-.335 2.567-1.005.67-.67 1.005-1.525 1.005-2.567ZM171.714 86c0 15.55-3.832 29.892-11.495 43.025-7.664 13.132-18.062 23.53-31.194 31.194-13.133 7.663-27.474 11.495-43.025 11.495-15.55 0-29.892-3.832-43.025-11.495-13.132-7.664-23.53-18.062-31.194-31.194C4.118 115.892.286 101.55.286 86c0-15.55 3.832-29.892 11.495-43.025 7.664-13.132 18.062-23.53 31.194-31.194C56.108 4.118 70.45.286 86 .286c15.55 0 29.892 3.832 43.025 11.495 13.132 7.664 23.53 18.062 31.194 31.194C167.882 56.108 171.714 70.45 171.714 86Z" fill="currentColor"/></svg>
