<svg class="icon" viewBox="0 0 1024 1024" xmlns="http://www.w3.org/2000/svg"><path d="M512 39.385C250.092 39.385 39.385 250.092 39.385 512S250.092 984.615 512 984.615 984.615 773.908 984.615 512 773.908 39.385 512 39.385zm96.492 488.369 153.6 153.6c7.877 7.877 7.877 19.692 0 27.57l-55.138 55.138c-7.877 7.876-19.692 7.876-27.57 0l-153.6-153.6c-7.876-7.877-19.692-7.877-27.569 0l-153.6 153.6c-7.877 7.876-19.692 7.876-27.569 0l-55.138-55.139c-7.877-7.877-7.877-19.692 0-27.57l153.6-153.6c7.877-7.876 7.877-19.691 0-27.568l-155.57-155.57c-7.876-7.877-7.876-19.692 0-27.569l55.139-55.138c7.877-7.877 19.692-7.877 27.57 0l155.568 155.569c7.877 7.877 19.693 7.877 27.57 0l153.6-153.6c7.877-7.877 19.692-7.877 27.569 0l55.138 55.138c7.877 7.877 7.877 19.693 0 27.57l-153.6 153.6c-5.907 7.877-5.907 19.692 0 27.569z"/></svg>
