<svg t="1642652418667" class="icon" viewBox="0 0 1024 1024" version="1.1" xmlns="http://www.w3.org/2000/svg" p-id="3606"><path d="M512 39.384615C250.092308 39.384615 39.384615 250.092308 39.384615 512s210.707692 472.615385 472.615385 472.615385 472.615385-210.707692 472.615385-472.615385S773.907692 39.384615 512 39.384615z m96.492308 488.369231l153.6 153.6c7.876923 7.876923 7.876923 19.692308 0 27.569231l-55.138462 55.138461c-7.876923 7.876923-19.692308 7.876923-27.569231 0L525.784615 610.461538c-7.876923-7.876923-19.692308-7.876923-27.56923 0l-153.6 153.6c-7.876923 7.876923-19.692308 7.876923-27.569231 0L261.907692 708.923077c-7.876923-7.876923-7.876923-19.692308 0-27.569231l153.6-153.6c7.876923-7.876923 7.876923-19.692308 0-27.569231l-155.56923-155.56923c-7.876923-7.876923-7.876923-19.692308 0-27.569231l55.138461-55.138462c7.876923-7.876923 19.692308-7.876923 27.569231 0l155.569231 155.569231c7.876923 7.876923 19.692308 7.876923 27.56923 0l153.6-153.6c7.876923-7.876923 19.692308-7.876923 27.569231 0l55.138462 55.138462c7.876923 7.876923 7.876923 19.692308 0 27.56923l-153.6 153.6c-5.907692 7.876923-5.907692 19.692308 0 27.569231z" p-id="3607"></path></svg>
