<svg class="icon" viewBox="0 0 1024 1024" xmlns="http://www.w3.org/2000/svg"><path d="M511.968 0c-207.84 0-376.96 169.12-376.96 376.992 0 54.208 11.104 105.984 32.96 153.888 94.24 206.24 274.976 424 328.128 485.824 3.968 4.608 9.792 7.296 15.904 7.296s11.904-2.656 15.904-7.296c53.12-61.824 233.856-279.552 328.128-485.824 21.888-47.904 32.96-99.648 32.96-153.888C888.96 169.12 719.84 0 512 0zm0 572.8C404 572.8 316.16 484.96 316.16 376.992s87.84-195.84 195.808-195.84 195.808 87.84 195.808 195.84c0 107.968-87.84 195.808-195.808 195.808z"/></svg>
