<svg class="icon" viewBox="0 0 1024 1024" xmlns="http://www.w3.org/2000/svg"><path d="M549.624 214.626H113.648c-18.1 0-32.84-14.74-32.84-32.84 0-18.101 14.74-32.84 32.84-32.84h436.106c18.1 0 32.84 14.739 32.84 32.84-.13 18.1-14.869 32.84-32.97 32.84zm0 330.99H113.648c-18.1 0-32.84-14.74-32.84-32.84 0-18.101 14.74-32.84 32.84-32.84h436.106c18.1 0 32.84 14.739 32.84 32.84-.13 18.1-14.869 32.84-32.97 32.84zm0 330.473H113.648c-18.1 0-32.84-14.74-32.84-32.84s14.74-32.84 32.84-32.84h436.106c18.1 0 32.84 14.738 32.84 32.84s-14.869 32.84-32.97 32.84zM932.59 659.006c-12.8-12.8-33.616-12.8-46.416 0L781.446 763.733V182.044c0-18.1-14.739-32.84-32.84-32.84-18.1 0-32.84 14.74-32.84 32.84v661.463c0 18.101 14.74 32.84 32.84 32.84 8.016 0 15.386-2.844 21.075-7.628.905-.776 162.78-163.167 162.78-163.167 12.929-12.8 12.929-33.746.129-46.546zm0 0"/></svg>
