<?xml version="1.0" standalone="no"?><!DOCTYPE svg PUBLIC "-//W3C//DTD SVG 1.1//EN" "http://www.w3.org/Graphics/SVG/1.1/DTD/svg11.dtd"><svg t="1649759681558" class="icon" viewBox="0 0 1024 1024" version="1.1" xmlns="http://www.w3.org/2000/svg" p-id="1191" xmlns:xlink="http://www.w3.org/1999/xlink" width="200" height="200"><defs><style type="text/css">@font-face { font-family: feedback-iconfont; src: url("//at.alicdn.com/t/font_1031158_u69w8yhxdu.woff2?t=1630033759944") format("woff2"), url("//at.alicdn.com/t/font_1031158_u69w8yhxdu.woff?t=1630033759944") format("woff"), url("//at.alicdn.com/t/font_1031158_u69w8yhxdu.ttf?t=1630033759944") format("truetype"); }
</style></defs><path d="M549.624242 214.626263H113.648485c-18.10101 0-32.840404-14.739394-32.840404-32.840404 0-18.10101 14.739394-32.840404 32.840404-32.840404h436.10505c18.10101 0 32.840404 14.739394 32.840404 32.840404-0.129293 18.10101-14.868687 32.840404-32.969697 32.840404z m0 0M549.624242 545.616162H113.648485c-18.10101 0-32.840404-14.739394-32.840404-32.840404 0-18.10101 14.739394-32.840404 32.840404-32.840404h436.10505c18.10101 0 32.840404 14.739394 32.840404 32.840404-0.129293 18.10101-14.868687 32.840404-32.969697 32.840404z m0 0M549.624242 876.088889H113.648485c-18.10101 0-32.840404-14.739394-32.840404-32.840404s14.739394-32.840404 32.840404-32.840404h436.10505c18.10101 0 32.840404 14.739394 32.840404 32.840404s-14.868687 32.840404-32.969697 32.840404z m0 0M932.589899 659.006061c-12.8-12.8-33.616162-12.8-46.416162 0l-104.727272 104.727272V182.044444c0-18.10101-14.739394-32.840404-32.840404-32.840404-18.10101 0-32.840404 14.739394-32.840404 32.840404v661.462627c0 18.10101 14.739394 32.840404 32.840404 32.840404 8.016162 0 15.385859-2.844444 21.074747-7.628283 0.905051-0.775758 162.779798-163.167677 162.779798-163.167677 12.929293-12.8 12.929293-33.745455 0.129293-46.545454z m0 0" fill="" p-id="1192"></path></svg>