<svg xmlns="http://www.w3.org/2000/svg" 
    xmlns:xlink="http://www.w3.org/1999/xlink" viewBox="0 0 1024 1024" version="1.1" p-id="1463">
    <path d="M757.52 73.107h-62.493c-34.526 0-62.498 27.984-62.498 62.511v749.948c0 34.526 27.974 62.493 62.498 62.493h62.493c34.516 0 62.502-27.968 62.502-62.493v-749.953c-0.001-34.524-27.984-62.509-62.502-62.509z" p-id="7567" fill="currentColor" />
    <path d="M320.054 73.107h-62.502c-34.526 0-62.498 27.984-62.498 62.511v749.948c0 34.526 27.974 62.493 62.498 62.493h62.502c34.505 0 62.493-27.968 62.493-62.493v-749.953c-0.001-34.524-27.984-62.509-62.493-62.509z" p-id="7568" fill="currentColor" />
</svg>