<?xml version="1.0" encoding="UTF-8"?>
<svg  viewBox="0 0 16 16" version="1.1" xmlns="http://www.w3.org/2000/svg" xmlns:xlink="http://www.w3.org/1999/xlink">
    <g id="选人选部门" stroke="none" stroke-width="1" fill="none" fill-rule="evenodd">
        <g id="补充icon及颜色" transform="translate(-95.000000, -12.000000)">
            <g id="岗位" transform="translate(95.000000, 12.000000)">
                <rect id="矩形" fill-opacity="0.01" fill="currentColor" fill-rule="nonzero" x="0" y="0" width="16" height="16"></rect>
                <path d="M6.33333333,6.66666667 C7.622,6.66666667 8.66666667,5.622 8.66666667,4.33333333 C8.66666667,3.04467 7.622,2 6.33333333,2 C5.04466667,2 4,3.04467 4,4.33333333 C4,5.622 5.04466667,6.66666667 6.33333333,6.66666667 Z" id="路径" stroke="currentColor" fill="currentColor" stroke-linecap="round" stroke-linejoin="round"></path>
                <path d="M10.8692333,2.33333333 C11.5468333,2.74163333 12.0000333,3.48456667 12.0000333,4.33333333 C12.0000333,5.1821 11.5468333,5.92503333 10.8692333,6.33333333" id="路径" stroke="currentColor" stroke-linecap="round" stroke-linejoin="round"></path>
                <path d="M1.33333333,13.6 L1.33333333,14 L11.3333333,14 L11.3333333,13.6 C11.3333333,12.1065333 11.3333333,11.3598 11.0427,10.7893667 C10.7870333,10.2876 10.3790667,9.87963333 9.8773,9.62396667 C9.30686667,9.33333333 8.56013333,9.33333333 7.06666667,9.33333333 L5.6,9.33333333 C4.10653333,9.33333333 3.3598,9.33333333 2.78936,9.62396667 C2.28759333,9.87963333 1.87964333,10.2876 1.62398333,10.7893667 C1.33333333,11.3598 1.33333333,12.1065333 1.33333333,13.6 Z" id="路径" stroke="currentColor" fill="currentColor" stroke-linecap="round" stroke-linejoin="round"></path>
                <path d="M14.6666333,14 L14.6666333,13.6 C14.6666333,12.1065333 14.6666333,11.3598 14.376,10.7893667 C14.1203333,10.2876 13.7123667,9.87963333 13.2106,9.62396667" id="路径" stroke="currentColor" stroke-linecap="round" stroke-linejoin="round"></path>
            </g>
        </g>
    </g>
</svg>