<svg viewBox="0 0 175 175" xmlns="http://www.w3.org/2000/svg"><path d="M167.873 53.888c-4.389-10.378-10.671-19.696-18.672-27.697-8.001-8-17.32-14.283-27.697-18.672C110.757 2.973 99.344.668 87.584.668c-11.762 0-23.175 2.305-33.922 6.85-10.377 4.39-19.696 10.672-27.697 18.673-8 8-14.283 17.32-18.672 27.697-4.546 10.747-6.85 22.16-6.85 33.92 0 11.762 2.304 23.175 6.85 33.922 4.39 10.377 10.672 19.696 18.672 27.697 8.001 8 17.32 14.283 27.697 18.672 10.747 4.546 22.16 6.85 33.921 6.85s23.174-2.304 33.921-6.85c10.378-4.39 19.696-10.671 27.697-18.672 8.001-8.001 14.283-17.32 18.673-27.697 4.545-10.747 6.85-22.16 6.85-33.921s-2.305-23.174-6.85-33.921Zm-72.008 95.818c-2.37 2.109-5.109 3.16-8.216 3.16-3.212 0-6.016-1.04-8.413-3.12-2.396-2.08-3.594-4.99-3.594-8.726 0-3.321 1.158-6.11 3.476-8.377 2.317-2.263 5.16-3.395 8.531-3.395 3.318 0 6.109 1.132 8.374 3.395 2.263 2.267 3.397 5.056 3.397 8.377 0 3.685-1.185 6.58-3.555 8.686Zm29.504-73.146c-1.816 3.37-3.976 6.28-6.478 8.727-2.5 2.45-6.99 6.57-13.468 12.363-1.791 1.632-3.226 3.068-4.304 4.306-1.08 1.238-1.885 2.37-2.41 3.395a16.574 16.574 0 0 0-1.224 3.083c-.29 1.025-.726 2.83-1.304 5.412-1.001 5.475-4.135 8.215-9.4 8.215-2.74 0-5.043-.896-6.913-2.689-1.869-1.79-2.804-4.45-2.804-7.977 0-4.423.684-8.255 2.054-11.493 1.369-3.24 3.186-6.084 5.45-8.531 2.264-2.45 5.32-5.36 9.164-8.73 3.37-2.95 5.807-5.173 7.306-6.676a22.513 22.513 0 0 0 3.792-5.015c1.028-1.844 1.541-3.843 1.541-6.004 0-4.214-1.567-7.767-4.7-10.665-3.133-2.896-7.176-4.344-12.126-4.344-5.794 0-10.06 1.462-12.797 4.384-2.739 2.924-5.056 7.227-6.952 12.915-1.79 5.952-5.187 8.928-10.19 8.928-2.95 0-5.437-1.04-7.464-3.12-2.028-2.08-3.042-4.332-3.042-6.756 0-5.001 1.606-10.071 4.819-15.204 3.211-5.137 7.9-9.388 14.06-12.757 6.162-3.373 13.351-5.056 21.567-5.056 7.635 0 14.377 1.408 20.222 4.225 5.846 2.818 10.361 6.648 13.547 11.493 3.187 4.846 4.78 10.112 4.78 15.8 0 4.475-.908 8.398-2.726 11.771Z" fill="currentColor"/></svg>
