<?xml version="1.0" encoding="UTF-8"?>
<svg  viewBox="0 0 16 16" version="1.1" xmlns="http://www.w3.org/2000/svg" xmlns:xlink="http://www.w3.org/1999/xlink">
    <g id="刷新" stroke="none" stroke-width="1" fill="currentColor" fill-rule="nonzero">
        <rect id="矩形" stroke="currentColor" opacity="0" x="0.5" y="0.5" width="15" height="15"></rect>
        <path d="M8,1.5 C11.5898509,1.5 14.5,4.41014913 14.5,8 C14.5,11.5898509 11.5898509,14.5 8,14.5 C7.70771692,14.5 7.4176958,14.4806768 7.13125912,14.4423906 C6.85755096,14.4058057 6.66532458,14.1542634 6.70190948,13.8805553 C6.73849438,13.6068471 6.9900366,13.4146207 7.26374476,13.4512056 C7.50629351,13.4836256 7.75205555,13.5 8,13.5 C11.0375661,13.5 13.5,11.0375661 13.5,8 C13.5,4.96243388 11.0375661,2.5 8,2.5 C4.96243388,2.5 2.5,4.96243388 2.5,8 C2.5,8.41151483 2.54510677,8.81681333 2.63364131,9.21099293 C2.69415652,9.48042292 2.52479762,9.74789635 2.25536763,9.80841156 C1.98593764,9.86892677 1.7184642,9.69956787 1.657949,9.43013788 C1.5532858,8.96414915 1.5,8.48535952 1.5,8 C1.5,4.41014913 4.41014913,1.5 8,1.5 Z" id="图标-填色"></path>
    </g>
</svg>