<svg viewBox="0 0 1024 1024" version="1.1"
  xmlns="http://www.w3.org/2000/svg">
  <path
    d="M104.192 489.262545c18.990545 0 34.397091 15.383273 34.397091 34.373819 0 178.036364 120.832 327.866182 284.951273 371.921454l5.352727 1.396364-34.443636-34.443637a34.373818 34.373818 0 0 1-2.327273-45.986909l2.327273-2.629818a34.373818 34.373818 0 0 1 46.033454-2.350545l2.606546 2.350545 104.866909 104.866909c21.643636 21.643636 6.306909 58.693818-24.32 58.693818C272.989091 977.454545 69.818182 774.283636 69.818182 523.636364c0-18.990545 15.383273-34.373818 34.373818-34.373819zM341.085091 175.220364a80.221091 80.221091 0 0 1 113.454545 0l417.512728 417.512727a80.221091 80.221091 0 0 1 0 113.454545l-165.864728 165.864728a80.221091 80.221091 0 0 1-113.454545 0L175.243636 454.539636a80.221091 80.221091 0 0 1 0-113.454545z m64.814545 48.64a11.450182 11.450182 0 0 0-16.197818 0l-165.864727 165.841454a11.450182 11.450182 0 0 0 0 16.197818l417.512727 417.512728a11.450182 11.450182 0 0 0 16.221091 0l165.864727-165.841455a11.450182 11.450182 0 0 0 0-16.197818zM523.636364 69.818182C774.283636 69.818182 977.454545 272.989091 977.454545 523.636364a34.373818 34.373818 0 1 1-68.770909 0c0-178.036364-120.832-327.866182-284.951272-371.921455l-5.352728-1.396364 34.443637 34.443637c12.567273 12.567273 13.358545 32.488727 2.327272 45.986909l-2.327272 2.629818c-12.613818 12.567273-32.512 13.358545-46.033455 2.350546l-2.606545-2.350546-104.866909-104.866909C477.672727 106.868364 493.009455 69.818182 523.636364 69.818182z"
    fill="currentColor"></path>
</svg>
