<svg viewBox="0 0 196 200" xmlns="http://www.w3.org/2000/svg"><path d="M170.89 170.22c-2.881-1.067-4.91-1.707-6.83-2.454-5.87-2.241-11.526-4.803-17.502-6.83-1.708-.534-4.163-.32-5.763.533a91.14 91.14 0 0 0-12.06 7.044c-1.28.854-2.348 2.775-2.668 4.375-1.28 7.044-2.241 14.194-3.095 21.345-.533 4.055-2.454 5.87-6.617 5.763a2117.107 2117.107 0 0 0-36.818 0c-4.056 0-6.19-1.601-6.724-5.657-.96-7.15-2.134-14.194-2.988-21.344-.32-2.454-1.174-3.949-3.522-5.123-3.948-1.92-7.47-4.589-11.419-6.51-1.387-.747-3.522-1.067-5.016-.533-6.937 2.454-13.66 5.23-20.49 7.897-4.91 1.921-6.297 1.494-9.072-3.201-6.083-10.352-12.06-20.704-18.035-31.056-2.775-4.803-2.669-5.977 1.707-9.392 5.763-4.589 11.633-8.964 17.289-13.66 1.067-.854 1.814-2.775 1.814-4.162.214-3.949-.64-8.111 0-11.953.747-4.162-.96-6.297-3.949-8.538-5.336-3.842-10.245-8.11-15.474-11.952-3.095-2.348-3.842-4.803-1.814-8.218 6.51-10.992 12.913-22.091 19.316-33.19 1.814-3.095 4.162-3.736 7.47-2.455 7.044 2.775 14.088 5.656 21.238 8.218 1.494.533 3.842.213 5.336-.534 4.056-2.028 7.684-4.696 11.74-6.723 2.134-1.068 2.881-2.348 3.094-4.483.961-7.257 2.135-14.514 3.095-21.77C73.453 1.493 75.695 0 79.643 0c12.273.107 24.546.107 36.82 0 3.841 0 5.976 1.6 6.402 5.443.961 7.15 2.135 14.194 2.989 21.344.32 2.668 1.28 4.269 3.842 5.443 3.735 1.707 7.257 3.842 10.672 6.19 2.24 1.6 4.162 1.6 6.616.533 6.617-2.775 13.34-5.23 20.064-8.004 3.735-1.494 6.297-.747 8.324 2.882 6.083 10.778 12.487 21.45 18.677 32.123 2.454 4.269 2.134 5.656-1.815 8.75-5.656 4.376-11.312 8.859-17.075 13.234-1.921 1.494-2.455 2.882-2.241 5.336.427 4.483-.107 9.072.106 13.554.107 1.6.854 3.522 2.028 4.482 5.656 4.696 11.526 9.072 17.289 13.554 3.949 3.095 4.162 4.482 1.708 8.751a3226.595 3226.595 0 0 1-18.997 32.443c-1.067 1.921-2.881 2.988-4.162 4.162Zm-73.21-35.004c19.316.107 35.324-15.582 35.431-34.685.106-19.636-15.475-35.538-34.898-35.645C78.79 64.78 62.78 80.575 62.78 99.998c-.106 19.21 15.688 35.111 34.898 35.218Z" fill="currentColor"/></svg>
