<?xml version="1.0" encoding="UTF-8"?>
<svg width="12px" height="11px" viewBox="0 0 12 12" version="1.1" xmlns="http://www.w3.org/2000/svg" xmlns:xlink="http://www.w3.org/1999/xlink">
    <title>星星</title>
    <g id="页面-1" stroke-width="1" fill-rule="evenodd">
        <g id="画板备份-8" transform="translate(-453.000000, -354.000000)">
            <g id="编组" transform="translate(451.000000, 352.000000)">
                <rect id="矩形" opacity="0" x="0.5" y="0.5" width="15" height="15"></rect>
                <path d="M5.991,5.57 L3.50612104,5.93019955 C2.95954884,6.00942879 2.58069251,6.51674109 2.65992175,7.0633133 C2.69148792,7.28107625 2.79399678,7.48234825 2.95156285,7.63593881 L4.75,9.389 L4.75,9.389 L4.32487658,11.8655653 C4.23143888,12.4098886 4.59695386,12.9268961 5.14127715,13.0203338 C5.35808617,13.0575509 5.58111746,13.0222392 5.77582605,12.9198682 L7.999,11.751 L7.999,11.751 L10.223309,12.9201739 C10.712173,13.1771377 11.3167859,12.9891455 11.5737498,12.5002815 C11.6760846,12.3055935 11.7113789,12.0825978 11.6741677,11.8658233 L11.249,9.389 L11.249,9.389 L13.0473242,7.63660227 C13.4428666,7.25116142 13.4510555,6.6180494 13.0656146,6.22250699 C12.9120633,6.06493147 12.7108304,5.96239489 12.4930948,5.93078419 L10.008,5.57 L10.008,5.57 L8.89657099,3.31725295 C8.65221378,2.82196717 8.05261467,2.61854938 7.5573289,2.86290659 C7.36008347,2.96022079 7.20042315,3.11984957 7.10306997,3.31707577 L5.991,5.57 L5.991,5.57 Z" id="图标-填色"></path>
            </g>
        </g>
    </g>
</svg>