<?xml version="1.0" encoding="UTF-8"?>
<svg  viewBox="0 0 16 16" version="1.1" xmlns="http://www.w3.org/2000/svg" xmlns:xlink="http://www.w3.org/1999/xlink">
    <title>6.图标/6.提示/异常/面</title>
    <g id="6.图标/6.提示/异常/面" stroke="none" stroke-width="1" fill="none" fill-rule="evenodd">
        <polygon id="Clip-2" points="1.0001 1 15 1 15 14.9997 1.0001 14.9997"></polygon>
        <path d="M8.0001,0.9997 C11.8661,0.9997 15.0001,4.1347 15.0001,7.9997 C15.0001,11.8657 11.8661,14.9997 8.0001,14.9997 C4.1341,14.9997 1.0001,11.8657 1.0001,7.9997 C1.0001,4.1347 4.1341,0.9997 8.0001,0.9997 Z M8.0001,10.7997 C7.6681,10.7997 7.4001,11.0687 7.4001,11.3997 C7.4001,11.7307 7.6681,11.9997 8.0001,11.9997 C8.3321,11.9997 8.6001,11.7307 8.6001,11.3997 C8.6001,11.0687 8.3321,10.7997 8.0001,10.7997 Z M8.5001,3.9997 L7.5001,3.9997 L7.5001,9.4547 L8.5001,9.4547 L8.5001,3.9997 Z" id="形状结合" fill="#FFB200"></path>
    </g>
</svg>