<svg class="icon" viewBox="0 0 1024 1024" xmlns="http://www.w3.org/2000/svg"><path d="M128.01 134.58h767.98c47.103 0 85.355 38.106 85.355 85.282v206.77c0 47.175-38.252 85.355-85.355 85.355H256.884v298.56c0 2.927 1.024 5.487 3.145 7.534a10.24 10.24 0 0 0 7.534 3.146h220.886a31.963 31.963 0 1 1 0 63.998H267.563a71.97 71.97 0 0 1-52.808-21.942 71.97 71.97 0 0 1-21.869-52.735V511.987H128.01a85.355 85.355 0 0 1-85.355-85.356v-206.77c0-47.175 38.252-85.355 85.355-85.355zm0 313.408h767.98a20.48 20.48 0 0 0 15.067-6.217 20.553 20.553 0 0 0 6.29-15.14v-206.77c0-5.85-2.121-10.97-6.29-15.066a20.48 20.48 0 0 0-15.067-6.29H128.01c-5.851 0-10.971 2.12-15.067 6.29a20.553 20.553 0 0 0-6.29 15.067v206.77c0 5.85 2.121 10.97 6.29 15.14a20.553 20.553 0 0 0 15.067 6.216zm575.692 532.174a31.963 31.963 0 0 1-31.962-31.963v-62.974h-62.755a32.036 32.036 0 0 1 0-63.998h62.755v-62.755a31.963 31.963 0 1 1 63.998 0v62.755h62.901a31.963 31.963 0 1 1 0 63.998h-62.9v62.901a31.963 31.963 0 0 1-32.037 32.036z"/></svg>
