<?xml version="1.0" encoding="UTF-8"?>
<svg class="icon" viewBox="0 0 1024 1024" version="1.1"
  xmlns="http://www.w3.org/2000/svg" p-id="5078" xmlns:xlink="http://www.w3.org/1999/xlink">
  <path
    d="M128.010044 134.579337h767.979912c47.102768 0 85.355482 38.106432 85.355481 85.28234v206.769449c0 47.175909-38.252714 85.355482-85.355481 85.355481H256.884388v298.561334c0 2.925638 1.023973 5.485571 3.14506 7.533517a10.239732 10.239732 0 0 0 7.533517 3.14506h220.885651a31.962592 31.962592 0 1 1 0 63.998326h-220.885651a71.970689 71.970689 0 0 1-52.807761-21.942283 71.970689 71.970689 0 0 1-21.869142-52.73462V511.986607H128.010044A85.355482 85.355482 0 0 1 42.654563 426.631126V219.861677c0-47.175909 38.252714-85.355482 85.355481-85.355481z m0 313.408945h767.979912a20.479464 20.479464 0 0 0 15.067034-6.216981 20.552605 20.552605 0 0 0 6.290121-15.140175V219.861677c0-5.851276-2.121087-10.971142-6.290121-15.067034a20.479464 20.479464 0 0 0-15.067034-6.290121H128.010044c-5.851276 0-10.971142 2.121087-15.067034 6.290121a20.552605 20.552605 0 0 0-6.290121 15.067034v206.769449c0 5.851276 2.121087 10.971142 6.290121 15.140175a20.552605 20.552605 0 0 0 15.067034 6.216981z m575.69237 532.173508a31.962592 31.962592 0 0 1-31.962592-31.962593v-62.974353h-62.75493a32.035733 32.035733 0 0 1 0-63.998326h62.75493v-62.754929a31.962592 31.962592 0 1 1 63.998325 0v62.754929h62.901212a31.962592 31.962592 0 1 1 0 63.998326h-62.901212v62.901212a31.962592 31.962592 0 0 1-32.035733 32.035734z"
    p-id="5079"></path>
</svg>