<svg viewBox="0 0 1024 1024" version="1.1" xmlns="http://www.w3.org/2000/svg">
  <path d="M0 0.000512h1023.999488v1023.999488H0z" fill="currentColor" opacity=".01" p-id="15532"></path>
  <path d="M5.631997 356.198734l0.768 1.382399a51.199974 51.199974 0 0 0 10.803194 13.516793l0.4608 0.3584c1.023999 0.9728 2.150399 1.843199 3.327999 2.662399l-3.788799-3.071999a51.609574 51.609574 0 0 0 10.444795 7.219197l1.024 0.512a50.943975 50.943975 0 0 0 4.659197 2.047999l0.6144 0.204799a50.790375 50.790375 0 0 0 14.233593 2.867199L51.199974 384.00032h230.399885a51.199974 51.199974 0 0 0 5.990397-102.041549L281.599859 281.600371H166.399917l0.4096-0.4096c23.449588-25.599987 42.598379-45.875177 55.551972-58.82877a409.599795 409.599795 0 1 1 0 579.27651A51.199974 51.199974 0 1 0 150.015925 873.984075 510.463745 510.463745 0 0 0 511.999744 1024c282.777459 0 511.999744-229.222285 511.999744-511.999744S794.777203 0.000512 511.999744 0.000512a510.463745 510.463745 0 0 0-362.035019 149.964725l-11.775994 11.929594c-6.348797 6.655997-13.465593 14.131193-21.299189 22.527989L102.399949 199.987612V102.400461a51.199974 51.199974 0 0 0-45.209578-50.841575L51.199974 51.200486a51.199974 51.199974 0 0 0-50.841574 45.209578L0 102.400461v230.399885c0 8.089596 1.894399 15.718392 5.222397 22.527988l0.4096 0.8704z" fill="currentColor"></path>
</svg>