<svg viewBox="0 0 1024 1024" xmlns="http://www.w3.org/2000/svg"><path d="M0 0h1024v1024H0z" fill="currentColor" opacity=".01"/><path d="m5.632 356.199.768 1.382a51.2 51.2 0 0 0 10.803 13.517l.461.358c1.024.973 2.15 1.844 3.328 2.663l-3.789-3.072a51.61 51.61 0 0 0 10.445 7.219l1.024.512a50.944 50.944 0 0 0 4.66 2.048l.614.205a50.79 50.79 0 0 0 14.233 2.867L51.2 384h230.4a51.2 51.2 0 0 0 5.99-102.041l-5.99-.359H166.4l.41-.41c23.45-25.6 42.598-45.874 55.551-58.828a409.6 409.6 0 1 1 0 579.277 51.2 51.2 0 1 0-72.345 72.345A510.464 510.464 0 0 0 512 1024c282.777 0 512-229.222 512-512S794.776 0 512 0a510.464 510.464 0 0 0-362.035 149.965l-11.776 11.93c-6.35 6.656-13.466 14.131-21.3 22.528l-14.49 15.565V102.4A51.2 51.2 0 0 0 57.19 51.56l-5.99-.36A51.2 51.2 0 0 0 .358 96.41L0 102.4v230.4a51.13 51.13 0 0 0 5.222 22.528l.41.87z" fill="currentColor"/></svg>
