<svg viewBox="0 0 1024 1024" xmlns="http://www.w3.org/2000/svg"><path d="M940.8 732.8h-176a32 32 0 0 0-32 32v196.8a62.4 62.4 0 0 1-124.8 0V736a128 128 0 0 1 128-128h225.6a62.4 62.4 0 0 1 0 124.8h-20.8zm-649.6 208v-176a32 32 0 0 0-32-32H62.4a62.4 62.4 0 0 1 0-124.8H288a128 128 0 0 1 128 128v225.6a62.4 62.4 0 0 1-124.8 0v-20.8zM732.8 83.2v176a32 32 0 0 0 32 32h196.8a62.4 62.4 0 0 1 0 124.8H736a128 128 0 0 1-128-128V62.4a62.4 62.4 0 0 1 124.8 0v20.8zm-649.6 208h176a32 32 0 0 0 32-32V62.4a62.4 62.4 0 0 1 124.8 0V288a128 128 0 0 1-128 128H62.4a62.4 62.4 0 0 1 0-124.8h20.8z" fill="currentColor"/></svg>
