<svg viewBox="0 0 1024 1024" version="1.1" xmlns="http://www.w3.org/2000/svg">
  <path d="M940.8 732.8h-176a32 32 0 0 0-32 32v196.8a62.4 62.4 0 0 1-124.8 0V736a128 128 0 0 1 128-128h225.6a62.4 62.4 0 0 1 0 124.8H940.8zM291.2 940.8v-176a32 32 0 0 0-32-32H62.4a62.4 62.4 0 0 1 0-124.8H288a128 128 0 0 1 128 128v225.6a62.4 62.4 0 0 1-124.8 0V940.8z m441.6-857.6v176a32 32 0 0 0 32 32h196.8a62.4 62.4 0 0 1 0 124.8H736a128 128 0 0 1-128-128V62.4a62.4 62.4 0 0 1 124.8 0V83.2zM83.2 291.2h176a32 32 0 0 0 32-32V62.4a62.4 62.4 0 0 1 124.8 0V288a128 128 0 0 1-128 128H62.4a62.4 62.4 0 0 1 0-124.8H83.2z" fill="currentColor"></path>
</svg>