<?xml version="1.0" encoding="UTF-8"?>
<svg viewBox="0 0 16 16" version="1.1" xmlns="http://www.w3.org/2000/svg" xmlns:xlink="http://www.w3.org/1999/xlink">
    <title>可见</title>
    <g id="可见" stroke="none" stroke-width="1" fill="currentColor" fill-rule="evenodd">
        <g id="编组">
            <rect id="矩形" opacity="0" x="0.5" y="0.5" width="15" height="15"></rect>
            <path d="M7.9999,3.0001 C11.9889,3.0001 14.9999,6.8731 14.9999,8.0001 C14.9999,8.8831 11.9889,13.0001 7.9999,13.0001 C3.9609,13.0001 0.9999,8.8831 0.9999,8.0001 C0.9999,6.8731 3.9609,3.0001 7.9999,3.0001 Z M7.9999,4.0001 C4.7329,4.0001 2.2179,7.0861 2.0089,7.9731 C2.2749,8.7711 4.7189,12.0001 7.9999,12.0001 C11.2099,12.0001 13.7339,8.7311 13.9929,7.9631 C13.8069,7.1261 11.2709,4.0001 7.9999,4.0001 Z M7.975,5.879 C9.08,5.879 9.975,6.775 9.975,7.879 C9.975,8.983 9.08,9.879 7.975,9.879 C6.871,9.879 5.975,8.983 5.975,7.879 C5.975,6.775 6.871,5.879 7.975,5.879 Z M7.975,6.879 C7.424,6.879 6.975,7.327 6.975,7.879 C6.975,8.43 7.424,8.879 7.975,8.879 C8.527,8.879 8.975,8.43 8.975,7.879 C8.975,7.327 8.527,6.879 7.975,6.879 Z" id="图标"></path>
        </g>
    </g>
</svg>