<svg xmlns="http://www.w3.org/2000/svg" viewBox="0 0 1024 1024"><path d="M536.32 5.12a63.999 63.999 0 0 0-69.76 13.44L229.766 255.996H64.008A63.999 63.999 0 0 0 .009 319.994v383.994a63.999 63.999 0 0 0 63.999 63.999h165.757l236.796 237.435a63.999 63.999 0 0 0 45.439 18.56 53.76 53.76 0 0 0 24.32-5.12 63.999 63.999 0 0 0 39.679-58.879V64a63.999 63.999 0 0 0-39.68-58.88zM192.006 639.989h-64V383.993h64zM448 805.746 320.003 677.748V346.234l127.998-127.998zm431.353-657.269a63.999 63.999 0 0 0-94.719 87.039 402.553 402.553 0 0 1 0 552.95 63.999 63.999 0 0 0 47.36 107.518 63.999 63.999 0 0 0 46.719-20.48 531.83 531.83 0 0 0 0-727.027z" fill="currentColor"/><path d="M751.996 277.115a63.999 63.999 0 0 0-95.999 85.759 218.236 218.236 0 0 1 48 149.117 221.436 221.436 0 0 1-47.36 149.117 63.999 63.999 0 0 0 4.48 90.239 63.999 63.999 0 0 0 42.88 16.64 63.999 63.999 0 0 0 47.359-21.12 349.434 349.434 0 0 0 80.638-234.876 353.274 353.274 0 0 0-79.998-234.876z" fill="currentColor"/></svg>
