<svg viewBox="0 0 201 200" xmlns="http://www.w3.org/2000/svg"><path d="m200.774 185.426-14.392 14.46-54.05-54.213a80.503 80.503 0 0 1-50.224 17.6c-37.958.228-71.066-25.737-79.89-62.657-8.824-36.92 8.964-75.05 42.924-92.01 33.96-16.96 75.128-8.275 99.343 20.959 24.214 29.233 25.083 71.3 2.097 101.508l54.192 54.353ZM82.108 18.666c-25.551-.097-48.642 15.22-58.488 38.798-9.845 23.58-4.504 50.768 13.53 68.87 18.034 18.102 45.203 23.545 68.819 13.788 23.615-9.758 39.019-32.79 39.016-58.343.026-34.775-28.102-63.008-62.877-63.113Zm9.117 99.787h-18.26v-27.51H45.583V72.609h27.382V45.12h18.26v27.49h27.402v18.334H91.225v27.51Z" fill="currentColor"/></svg>
