<svg viewBox="0 0 187 187" xmlns="http://www.w3.org/2000/svg"><path d="M45.455 90.91h72.727V72.726H45.455V90.91Zm100.254 41.945a81.39 81.39 0 0 0 17.927-51.037C163.636 36.628 127.01 0 81.818 0 36.628 0 0 36.627 0 81.818c0 45.191 36.627 81.818 81.818 81.818 19.318 0 37.037-6.727 51.037-17.927l40.972 40.973 12.855-12.855-40.973-40.972Zm-63.89 12.6c-35.146 0-63.637-28.491-63.637-63.637 0-35.145 28.49-63.636 63.636-63.636s63.637 28.49 63.637 63.636-28.491 63.637-63.637 63.637Z" fill="currentColor"/></svg>
