<?xml version="1.0" encoding="UTF-8"?>
<svg width="16px" height="16px" viewBox="0 0 16 16" version="1.1" xmlns="http://www.w3.org/2000/svg" xmlns:xlink="http://www.w3.org/1999/xlink">
    <g id="Web-Component" stroke="none" stroke-width="1" fill="none" fill-rule="evenodd" stroke-linejoin="round">
        <path d="M9,2 C9.77969612,2 10.4204487,2.59488808 10.4931334,3.35553999 L10.5,3.5 L14,3.5 L14,7.5 L14,7.5 C13.1715729,7.5 12.5,8.17157288 12.5,9 C12.5,9.82842712 13.1715729,10.5 14,10.5 L14,14 L10.5,14 L10.5,14 C10.5,13.1715729 9.82842712,12.5 9,12.5 C8.17157288,12.5 7.5,13.1715729 7.5,14 L3.5,14 L3.5,10.5 C2.67157288,10.5 2,9.82842712 2,9 C2,8.22030388 2.59488808,7.57955132 3.35553999,7.50686658 L3.5,7.5 L3.5,3.5 L7.5,3.5 C7.5,2.67157288 8.17157288,2 9,2 Z" id="形状结合" stroke="currentColor"></path>
    </g>
</svg>