<?xml version="1.0" encoding="UTF-8"?>
<svg width="16px" height="16px" viewBox="0 0 16 16" version="1.1" xmlns="http://www.w3.org/2000/svg" xmlns:xlink="http://www.w3.org/1999/xlink">
    <g id="按钮组" stroke="none" stroke-width="1" fill="none" fill-rule="evenodd">
        <rect id="矩形" stroke="#B8BABF" stroke-linejoin="round" x="1.5" y="4.5" width="11" height="9"></rect>
        <polyline id="路径" stroke="#B8BABF" stroke-linecap="round" stroke-linejoin="round" points="3.5 2.5 14.5 2.5 14.5 11.5"></polyline>
        <path d="M4.38323669,10.5055351 C4.70374275,10.5055351 4.95677385,10.4464945 5.13389562,10.3284133 C5.34053769,10.185029 5.44596732,9.96151819 5.44596732,9.65788086 C5.44596732,9.45545598 5.3953611,9.29098577 5.29836584,9.17290459 C5.1971534,9.05060622 5.04955192,8.9704797 4.85134423,8.93252504 C5.00316289,8.87348445 5.11702688,8.79335793 5.1971534,8.68371112 C5.27727992,8.56562994 5.31945177,8.42224565 5.31945177,8.25355825 C5.31945177,8.02583026 5.23932525,7.8444913 5.0832894,7.70954138 C4.914602,7.56615709 4.67843964,7.49446494 4.3790195,7.49446494 L3,7.49446494 L3,10.5055351 L4.38323669,10.5055351 Z M4.24828677,8.75962045 L3.49341065,8.75962045 L3.49341065,7.89931471 L4.25672114,7.89931471 C4.45914602,7.89931471 4.60253031,7.93305219 4.69530838,8.00052715 C4.77965208,8.06378492 4.82604112,8.16921455 4.82604112,8.31259884 C4.82604112,8.46863469 4.77965208,8.58249868 4.69530838,8.65419083 C4.6067475,8.72166579 4.45914602,8.75962045 4.24828677,8.75962045 Z M4.31154454,10.1006853 L3.49341065,10.1006853 L3.49341065,9.16447022 L4.3241961,9.16447022 C4.54348972,9.16447022 4.70374275,9.20242488 4.80495519,9.27833421 C4.90195045,9.35424354 4.95255667,9.47654191 4.95255667,9.64944649 C4.95255667,9.8181339 4.88508171,9.93621508 4.75013179,10.0121244 C4.64470216,10.071165 4.49710069,10.1006853 4.31154454,10.1006853 Z M7.15814444,10.5055351 L7.15814444,7.91618345 L8.14496574,7.91618345 L8.14496574,7.49446494 L5.67791249,7.49446494 L5.67791249,7.91618345 L6.66473379,7.91618345 L6.66473379,10.5055351 L7.15814444,10.5055351 Z M8.99683711,10.5055351 L8.99683711,8.30416447 L9.01370585,8.30416447 L10.5192409,10.5055351 L11,10.5055351 L11,7.49446494 L10.5023722,7.49446494 L10.5023722,9.66631523 L10.4855034,9.66631523 L8.99683711,7.49446494 L8.50342646,7.49446494 L8.50342646,10.5055351 L8.99683711,10.5055351 Z" id="BTN" stroke="#B8BABF" stroke-width="0.1" fill="#B8BABF" fill-rule="nonzero"></path>
    </g>
</svg>