<svg width="32" height="32" xmlns="http://www.w3.org/2000/svg" xmlns:xlink="http://www.w3.org/1999/xlink"><defs><linearGradient x1="100%" y1="101.089%" x2="0%" y2="-14.125%" id="c"><stop stop-color="#FFF" offset="0%"/><stop stop-color="#FFF8F8" offset="46.533%"/><stop stop-color="#DDFEEB" offset="100%"/></linearGradient><linearGradient x1="100%" y1="51.269%" x2="0%" y2="48.407%" id="f"><stop stop-color="#FFF" offset="0%"/><stop stop-color="#FFF8F8" offset="46.533%"/><stop stop-color="#DDFEEB" offset="100%"/></linearGradient><filter x="-24.3%" y="-19.2%" width="148.6%" height="153.6%" filterUnits="objectBoundingBox" id="a"><feOffset dy="1" in="SourceAlpha" result="shadowOffsetOuter1"/><feGaussianBlur stdDeviation="1" in="shadowOffsetOuter1" result="shadowBlurOuter1"/><feColorMatrix values="0 0 0 0 0.179423161 0 0 0 0 0.342133642 0 0 0 0 0.637515745 0 0 0 0.650991587 0" in="shadowBlurOuter1"/></filter><filter x="-25%" y="-125%" width="150%" height="450%" filterUnits="objectBoundingBox" id="d"><feOffset dy="1" in="SourceAlpha" result="shadowOffsetOuter1"/><feGaussianBlur stdDeviation="1" in="shadowOffsetOuter1" result="shadowBlurOuter1"/><feColorMatrix values="0 0 0 0 0.179423161 0 0 0 0 0.342133642 0 0 0 0 0.637515745 0 0 0 0.650991587 0" in="shadowBlurOuter1"/></filter><rect id="e" x="0" y="0" width="14" height="2" rx="1"/><path d="M15.962 12.004c.157.01.312.056.452.139l.101.07.095.082L23 18.322a1 1 0 0 1-1.32 1.498l-.094-.083-4.61-4.315.001 8.788c0 .466-.447.843-1 .843-.512 0-.935-.325-.993-.745l-.007-.098v-8.866l-4.372 4.393a1 1 0 0 1-1.497-1.32l.083-.095 6.004-6.027a.996.996 0 0 1 .648-.29h.119Z" id="b"/></defs><g fill="none" fill-rule="evenodd"><rect fill="#2468F2" width="32" height="32" rx="16"/><g fill-rule="nonzero"><use fill="#000" filter="url(#a)" xlink:href="#b"/><use fill="url(#c)" xlink:href="#b"/></g><g transform="translate(9 7.702)" fill-rule="nonzero"><use fill="#000" filter="url(#d)" xlink:href="#e"/><use fill="url(#f)" xlink:href="#e"/></g></g></svg>
