<svg width="20" height="18" xmlns="http://www.w3.org/2000/svg" xmlns:xlink="http://www.w3.org/1999/xlink"><defs><path id="a" d="M0 0h20v18H0z"/><path d="M11 1H9v7H5v2h4v7h2v-7h4V8h-4V1ZM1 9l4-3v6L1 9Zm18 0-4 3V6l4 3Z" id="c"/></defs><g fill="none" fill-rule="evenodd"><path d="M11 1H9v7H5v2h4v7h2v-7h4V8h-4V1ZM1 9l4-3v6L1 9Zm18 0-4 3V6l4 3Z" fill="#363B3E"/><mask id="b" fill="#fff"><use xlink:href="#a"/></mask><path d="M11 1h1V0h-1v1ZM9 1V0H8v1h1Zm0 7v1h1V8H9ZM5 8V7H4v1h1Zm0 2H4v1h1v-1Zm4 0h1V9H9v1Zm0 7H8v1h1v-1Zm2 0v1h1v-1h-1Zm0-7V9h-1v1h1Zm4 0v1h1v-1h-1Zm0-2h1V7h-1v1Zm-4 0h-1v1h1V8ZM5 6h1V4L4.4 5.2 5 6Zm0 6-.6.8L6 14v-2H5Zm10 0h-1v2l1.6-1.2-.6-.8Zm0-6 .6-.8L14 4v2h1Zm-4-6H9v2h2V0ZM8 1v7h2V1H8Zm1 6H5v2h4V7ZM4 8v2h2V8H4Zm1 3h4V9H5v2Zm3-1v7h2v-7H8Zm1 8h2v-2H9v2Zm3-1v-7h-2v7h2Zm-1-6h4V9h-4v2Zm5-1V8h-2v2h2Zm-1-3h-4v2h4V7Zm-3 1V1h-2v7h2ZM1.6 9.8l4-3-1.2-1.6-4 3 1.2 1.6ZM4 6v6h2V6H4Zm1.6 5.2-4-3L.4 9.8l4 3 1.2-1.6Zm12.8-3-4 3 1.2 1.6 4-3-1.2-1.6ZM16 12V6h-2v6h2Zm-1.6-5.2 4 3 1.2-1.6-4-3-1.2 1.6Z" fill-opacity=".8" fill="#FFF" fill-rule="nonzero" mask="url(#b)"/><use fill="#151B26" xlink:href="#c"/></g></svg>
