<svg viewBox="0 0 16 16" xmlns="http://www.w3.org/2000/svg"><path d="m7.976 1 .241.003A7 7 0 1 1 7.977 1Zm.004 1-.225.005A6 6 0 1 0 7.98 2Zm.03 8.8a.6.6 0 1 1 .004 1.2.6.6 0 0 1-.005-1.2Zm-.024-6.787c1.3-.004 2.368 1.003 2.455 2.258l.007.18c.01.33-.07.742-.325 1.15-.258.414-.656.734-1.2.922l-.272.085c-.12.049-.144.159-.146.744v.407l-1 .003v-.296c.007-1.197.136-1.59.83-1.81l.12-.034c.406-.11.663-.3.82-.55.111-.18.16-.366.171-.51l.002-.102a1.453 1.453 0 0 0-2.9-.13l-.007.14-1 .002a2.453 2.453 0 0 1 2.445-2.46Z"/></svg>
