<svg width="16" height="16" xmlns="http://www.w3.org/2000/svg"><g fill="none" fill-rule="evenodd"><path d="M0 0h16v16H0z"/><path d="m14.333 5.928-4.26-4.26a.572.572 0 0 0-.813 0L6.475 4.455A5.698 5.698 0 0 0 2.27 5.67a.574.574 0 0 0-.047.854l3.142 3.142-3.724 3.72a.273.273 0 0 0-.08.17l-.059.643a.276.276 0 0 0 .275.301c.009 0 .017 0 .026-.002l.643-.059a.273.273 0 0 0 .17-.079l3.724-3.724 3.14 3.141a.572.572 0 0 0 .855-.046 5.711 5.711 0 0 0 1.214-4.209l2.785-2.785a.573.573 0 0 0 0-.81Zm-3.667 2.718-.424.423.066.595a4.494 4.494 0 0 1-.526 2.661L3.678 6.217a4.471 4.471 0 0 1 2.66-.526l.595.066.424-.424 2.311-2.312 3.311 3.311-2.313 2.314Zm0 0-.424.423.066.595a4.494 4.494 0 0 1-.526 2.661L3.678 6.217a4.471 4.471 0 0 1 2.66-.526l.595.066.424-.424 2.311-2.312 3.311 3.311-2.313 2.314Z" fill="currentColor" fill-rule="nonzero"/></g></svg>
