<?xml version="1.0" encoding="UTF-8"?>
<svg viewBox="0 0 17 16" version="1.1" xmlns="http://www.w3.org/2000/svg" xmlns:xlink="http://www.w3.org/1999/xlink">
    <g id="页面编辑器" stroke="none" stroke-width="1" fill="none" fill-rule="evenodd">
        <g id="补充icon" transform="translate(-137.000000, -51.000000)">
            <g id="电脑预览" transform="translate(137.037083, 51.000000)">
                <g id="编组-16备份-5" transform="translate(8.000000, 8.000000) scale(-1, 1) translate(-8.000000, -8.000000) ">
                    <rect id="矩形" x="0" y="0" width="16" height="16"></rect>
                </g>
                <path d="M6,14 C5.72385763,14 5.5,13.7761424 5.5,13.5 C5.5,13.2545401 5.67687516,13.0503916 5.91012437,13.0080557 L6,13 L7.5,12.9996584 L7.5,11.5 L2,11.5 C1.72385763,11.5 1.5,11.2761424 1.5,11 L1.5,11 L1.5,2.54165837 C1.5,2.265516 1.72385763,2.04165837 2,2.04165837 L2,2.04165837 L14,2.04165837 C14.2761424,2.04165837 14.5,2.265516 14.5,2.54165837 L14.5,2.54165837 L14.5,11 C14.5,11.2761424 14.2761424,11.5 14,11.5 L14,11.5 L8.5,11.5 L8.5,12.9996584 L10,13 C10.2761424,13 10.5,13.2238576 10.5,13.5 C10.5,13.7454599 10.3231248,13.9496084 10.0898756,13.9919443 L10,14 L6,14 Z M13.4999166,3.041 L2.4999166,3.041 L2.4999166,10.5 L13.4999166,10.5 L13.4999166,3.041 Z" id="形状结合" fill="currentColor"></path>
            </g>
        </g>
    </g>
</svg>