<?xml version="1.0" encoding="UTF-8"?>
<svg viewBox="0 0 16 16" version="1.1" xmlns="http://www.w3.org/2000/svg" xmlns:xlink="http://www.w3.org/1999/xlink">
    <g id="4.图标元件/7.通用/搜索" stroke="none" stroke-width="1" fill="none" fill-rule="evenodd">
        <rect id="0" stroke="currentColor" fill="currentColor" opacity="0" x="0.5" y="0.5" width="15" height="15"></rect>
        <path d="M7.5,12 C5.019,12 3,9.981 3,7.5 C3,5.019 5.019,3 7.5,3 C9.981,3 12,5.019 12,7.5 C12,9.981 9.981,12 7.5,12 L7.5,12 Z M13.794,13.089 L11.723,11.019 C12.519,10.063 13,8.837 13,7.5 C13,4.468 10.533,2 7.5,2 C4.467,2 2,4.468 2,7.5 C2,10.532 4.467,13 7.5,13 C8.836,13 10.062,12.521 11.016,11.726 L13.087,13.797 L13.794,13.089 Z" id="图标-填色" fill="currentColor"></path>
    </g>
</svg>