<svg class="icon" viewBox="0 0 1024 1024" xmlns="http://www.w3.org/2000/svg" width="64" height="64"><path d="M32 160h960v704H32V160zm64 64v576h832V224H96zm64 160h96v64h-96v-64zm0-96h64v64h-64v-64zm128 96h64v64h-64v-64zm-32-96h64v64h-64v-64zm128 96h64v64h-64v-64zm-32-96h64v64h-64v-64zm128 96h64v64h-64v-64zm-32-96h64v64h-64v-64zm128 96h64v64h-64v-64zm-32-96h64v64h-64v-64zm128 96h64v64h-64v-64zm96 0h96v64h-96v-64zm-128-96h64v64h-64v-64zm96 0h128v64H736v-64zM160 480h128v64H160v-64zm160 0h64v64h-64v-64zm96 0h64v64h-64v-64zm96 0h64v64h-64v-64zm96 0h64v64h-64v-64zm96 0h160v64H704v-64zm-544 96h160v64H160v-64zm192 0h64v64h-64v-64zm96 0h64v64h-64v-64zm96 0h64v64h-64v-64zm96 0h224v64H640v-64zm-480 96h128v64H160v-64zm576 0h128v64H736v-64zm-416 0h384v64H320v-64z" fill="currentColor"/></svg>
