<?xml version="1.0" standalone="no"?><!DOCTYPE svg PUBLIC "-//W3C//DTD SVG 1.1//EN" "http://www.w3.org/Graphics/SVG/1.1/DTD/svg11.dtd">
<svg t="1655436036244" class="icon" viewBox="0 0 1024 1024" version="1.1" xmlns="http://www.w3.org/2000/svg" p-id="631" width="64" height="64" xmlns:xlink="http://www.w3.org/1999/xlink">
  <path d="M32 160h960v704H32V160z m64 64v576h832V224H96z m64 160h96v64h-96v-64z m0-96h64v64h-64v-64z m128 96h64v64h-64v-64z m-32-96h64v64h-64v-64z m128 96h64v64h-64v-64z m-32-96h64v64h-64v-64z m128 96h64v64h-64v-64z m-32-96h64v64h-64v-64z m128 96h64v64h-64v-64z m-32-96h64v64h-64v-64z m128 96h64v64h-64v-64z m96 0h96v64h-96v-64z m-128-96h64v64h-64v-64z m96 0h128v64H736v-64zM160 480h128v64H160v-64z m160 0h64v64h-64v-64z m96 0h64v64h-64v-64z m96 0h64v64h-64v-64z m96 0h64v64h-64v-64z m96 0h160v64H704v-64z m-544 96h160v64H160v-64z m192 0h64v64h-64v-64z m96 0h64v64h-64v-64z m96 0h64v64h-64v-64z m96 0h224v64H640v-64z m-480 96h128v64H160v-64z m576 0h128v64H736v-64z m-416 0h384v64H320v-64z" fill="currentColor" p-id="632"></path>
</svg>