<?xml version="1.0" encoding="UTF-8"?>
<svg viewBox="0 0 14 14" version="1.1" xmlns="http://www.w3.org/2000/svg" xmlns:xlink="http://www.w3.org/1999/xlink">
	<g stroke="none" stroke-width="1" fill="none" fill-rule="evenodd">
		<g transform="translate(-136.000000, -8.000000)">
			<path d="M159.5,0.5 L0.5,0.5 L0.5,29.5 L159.5,29.5 L159.5,0.5 Z" stroke="currentColor">
			</path>
			<g transform="translate(136.000000, 8.000000)" fill="currentColor" fill-rule="nonzero">
				<path d="M0,14 L14,14 L14,3 L0,3 L0,14 Z M2,5 L12,5 L12,12 L2,12 L2,5 Z" id="Shape">
				</path>
				<rect id="Rectangle-path" x="0" y="0" width="14" height="2">
				</rect>
				<rect id="Rectangle-path" x="9" y="6" width="2" height="2">
				</rect>
				<rect id="Rectangle-path" x="9" y="9" width="2" height="2">
				</rect>
				<rect id="Rectangle-path" x="6" y="6" width="2" height="2">
				</rect>
				<rect id="Rectangle-path" x="6" y="9" width="2" height="2">
				</rect>
				<rect id="Rectangle-path" x="3" y="6" width="2" height="2">
				</rect>
				<rect id="Rectangle-path" x="3" y="9" width="2" height="2">
				</rect>
			</g>
		</g>
	</g>
</svg>
