<svg viewBox="0 0 1024 1024" version="1.1" xmlns="http://www.w3.org/2000/svg" p-id="3506" xmlns:xlink="http://www.w3.org/1999/xlink">
    <path d="M972.544 175.189333a31.658667 31.658667 0 0 1 15.701333 5.162667 31.872 31.872 0 0 1 7.296 46.976c-0.682667 0.896-1.493333 1.664-2.218666 2.474667L343.082667 876.032a32.341333 32.341333 0 0 1-37.546667 5.589333 37.504 37.504 0 0 1-8.064-6.101333L30.208 597.845333c-0.768-0.810667-1.536-1.621333-2.218667-2.517333a32.256 32.256 0 0 1 14.378667-49.749333 32 32 0 0 1 28.8 3.584c2.474667 1.664 2.944 2.304 5.12 4.309333l244.736 254.250667L948.181333 184.448l2.517334-2.261333a36.693333 36.693333 0 0 1 11.861333-6.016c2.901333-0.725333 3.669333-0.725333 6.613333-1.024l3.370667 0.042666z" p-id="3507"></path>
</svg>