<?xml version="1.0" standalone="no"?><!DOCTYPE svg PUBLIC "-//W3C//DTD SVG 1.1//EN" "http://www.w3.org/Graphics/SVG/1.1/DTD/svg11.dtd"><svg t="1586501480188" class="icon" viewBox="0 0 1024 1024" version="1.1" xmlns="http://www.w3.org/2000/svg" p-id="1509" xmlns:xlink="http://www.w3.org/1999/xlink" width="200" height="200"><defs><style type="text/css"></style></defs><path d="M469.333333 256a85.333333 85.333333 0 1 1-85.333333-85.333333 85.333333 85.333333 0 0 1 85.333333 85.333333z m-85.333333 170.666667a85.333333 85.333333 0 1 0 85.333333 85.333333 85.333333 85.333333 0 0 0-85.333333-85.333333z m0 256a85.333333 85.333333 0 1 0 85.333333 85.333333 85.333333 85.333333 0 0 0-85.333333-85.333333z m256-341.333334a85.333333 85.333333 0 1 0-85.333333-85.333333 85.333333 85.333333 0 0 0 85.333333 85.333333z m0 85.333334a85.333333 85.333333 0 1 0 85.333333 85.333333 85.333333 85.333333 0 0 0-85.333333-85.333333z m0 256a85.333333 85.333333 0 1 0 85.333333 85.333333 85.333333 85.333333 0 0 0-85.333333-85.333333z" p-id="1510" data-spm-anchor-id="a313x.7781069.0.i6" class="selected" fill="#999999"></path></svg>