<svg viewBox="0 0 428 684" version="1.1" 
    xmlns="http://www.w3.org/2000/svg" 
    xmlns:xlink="http://www.w3.org/1999/xlink">
    <g id="drag-bar" fill="currentColor" fill-rule="nonzero">
        <path d="M171.333333,86 C171.333333,133.128298 133.128298,171.333333 86,171.333333 C38.8717015,171.333333 0.666667,133.128298 0.666667,86 C0.666667,38.8717015 38.8717015,0.666667 86,0.666667 C133.128298,0.666667 171.333333,38.8717015 171.333333,86 L171.333333,86 Z M86,256.666667 C38.8717015,256.666667 0.666667,294.871702 0.666667,342 C0.666667,389.128298 38.8717015,427.333333 86,427.333333 C133.128298,427.333333 171.333333,389.128298 171.333333,342 C171.333333,294.871702 133.128298,256.666667 86,256.666667 L86,256.666667 Z M86,512.666667 C38.8717015,512.666667 0.666667,550.871702 0.666667,598 C0.666667,645.128298 38.8717015,683.333333 86,683.333333 C133.128298,683.333333 171.333333,645.128298 171.333333,598 C171.333333,550.871702 133.128298,512.666667 86,512.666667 L86,512.666667 Z M342,171.333333 C389.128298,171.333333 427.333333,133.128298 427.333333,86 C427.333333,38.8717015 389.128298,0.666667 342,0.666667 C294.871702,0.666667 256.666667,38.8717015 256.666667,86 C256.666667,133.128298 294.871702,171.333333 342,171.333333 L342,171.333333 Z M342,256.666667 C294.871702,256.666667 256.666667,294.871702 256.666667,342 C256.666667,389.128298 294.871702,427.333333 342,427.333333 C389.128298,427.333333 427.333333,389.128298 427.333333,342 C427.333333,294.871702 389.128298,256.666667 342,256.666667 L342,256.666667 Z M342,512.666667 C294.871702,512.666667 256.666667,550.871702 256.666667,598 C256.666667,645.128298 294.871702,683.333333 342,683.333333 C389.128298,683.333333 427.333333,645.128298 427.333333,598 C427.333333,575.368193 418.342883,553.663326 402.339778,537.660222 C386.336674,521.657117 364.631807,512.666667 342,512.666667 L342,512.666667 Z" id="形状"></path>
    </g>
</svg>