<svg xmlns="http://www.w3.org/2000/svg" 
    xmlns:xlink="http://www.w3.org/1999/xlink" viewBox="0 0 1024 1024" version="1.1" p-id="1463">
    <path d="M864 192c-19.2 0-32 12.8-32 32v224c0 89.6-70.4 160-160 160H236.8l105.6-105.6c12.8-12.8 12.8-32 0-44.8s-32-12.8-44.8 0l-160 160c-3.2 3.2-6.4 6.4-6.4 9.6-3.2 6.4-3.2 16 0 25.6 3.2 3.2 3.2 6.4 6.4 9.6l160 160c6.4 6.4 12.8 9.6 22.4 9.6s16-3.2 22.4-9.6c12.8-12.8 12.8-32 0-44.8L236.8 672H672c124.8 0 224-99.2 224-224V224c0-19.2-12.8-32-32-32z" />
</svg>