<?xml version="1.0" standalone="no"?>
<!DOCTYPE svg PUBLIC "-//W3C//DTD SVG 1.1//EN" "http://www.w3.org/Graphics/SVG/1.1/DTD/svg11.dtd">
<svg t="1585402743083" class="icon" viewBox="0 0 1024 1024" version="1.1" xmlns="http://www.w3.org/2000/svg" p-id="2408" xmlns:xlink="http://www.w3.org/1999/xlink">
	<defs>
		<style type="text/css">
		</style>
	</defs>
	<path d="M511.968 0c-207.84 0-376.96 169.12-376.96 376.992 0 54.208 11.104 105.984 32.96 153.888 94.24 206.24 274.976 424 328.128 485.824 3.968 4.608 9.792 7.296 15.904 7.296s11.904-2.656 15.904-7.296c53.12-61.824 233.856-279.552 328.128-485.824 21.888-47.904 32.96-99.648 32.96-153.888-0.032-207.872-169.152-376.992-376.992-376.992zM511.968 572.8c-107.968 0-195.808-87.84-195.808-195.808s87.84-195.84 195.808-195.84 195.808 87.84 195.808 195.84c0 107.968-87.84 195.808-195.808 195.808z" p-id="2409">
	</path>
</svg>
