<svg xmlns="http://www.w3.org/2000/svg" 
    xmlns:xlink="http://www.w3.org/1999/xlink" viewBox="0 0 16 16" version="1.1">
    <g stroke="none" stroke-width="1" fill="none" fill-rule="evenodd">
        <g fill="currentColor">
            <polygon points="8.02 0 5.161 2.859 6.161 3.859 7.02 3.001 7.02 7.02 3.001 7.02 3.859 6.16 2.859 5.161 0 8.02 2.82 10.84 3.82 9.84 3.001 9.02 7.02 9.02 7.02 13.001 6.161 12.141 5.161 13.141 8.02 16 10.839 13.18 9.839 12.181 9.02 13.001 9.02 9.02 13.001 9.02 12.18 9.84 13.18 10.84 16 8.02 13.141 5.161 12.141 6.16 13.001 7.02 9.02 7.02 9.02 3.001 9.839 3.82 10.839 2.82"></polygon>
        </g>
    </g>
</svg>
