<svg xmlns="http://www.w3.org/2000/svg" 
    xmlns:xlink="http://www.w3.org/1999/xlink" viewBox="0 0 16 16" version="1.1" p-id="1463">
    <path d="M11.496,1.834 L14.168,4.506 C14.48,4.818 14.48,5.322 14.168,5.634 L11.904,7.898 L5.4,14.402 L1.6,14.402 L1.6,10.602 L8.848,3.354 L8.848,3.354 L10.368,1.834 C10.68,1.522 11.184,1.522 11.496,1.834 Z M8.67,4.663 L2.4,10.9333708 L2.4,13.602 L5.06862915,13.602 L11.338,7.331 L8.67,4.663 Z M10.932,2.40137085 L9.23537085,4.098 L11.904,6.76662915 L13.6006292,5.07 L10.932,2.40137085 Z M8,13.6 L12.8,13.6 L12.8,14.4 L8,14.4 L8,13.6 Z" id="path-1"></path>
</svg>