<svg viewBox="0 0 1024 1024" version="1.1" xmlns="http://www.w3.org/2000/svg" p-id="1208" xmlns:xlink="http://www.w3.org/1999/xlink">
    <path d="M302.026 783.023q-0.761 0-2.282 0.761 88.25 0 352.999 0 6.847 0 11.412 4.565 4.565 4.565 4.565 10.651 0 6.847-4.565 11.412-4.565 4.565-11.412 4.565-156.72 0-470.919 0 0 0-0.761 0 0 0-0.761 0-1.522 0-2.282-0.761 0 0-0.761 0 0 0-0.761 0 0 0 0 0 0 0-0.761-0.761-0.761 0-1.522-0.761-0.761 0-1.522-0.761 0 0-0.761-0.761-0.761-0.761-2.282-2.282-0.761-1.522-1.522-2.282-0.761-0.761-0.761-1.522 0 0 0-0.761 0-0.761-0.761-0.761 0-0.761 0-1.522 0-0.761 0-2.282 0 0 0 0 0 0 0-0.761 0 0 0-0.761 0 0 0-1.522 0 0 0-0.761 0 0 0-0.761 0 0 0.761 0 0 0 0-0.761 7.608-28.909 30.431-115.638 1.522-3.804 4.565-6.847 160.523-159.002 481.57-477.006 4.565-4.565 10.651-4.565 6.847 0 11.412 4.565 4.565 4.565 4.565 10.651 0 6.847-4.565 11.412-159.763 158.241-478.527 473.962-6.086 21.302-23.584 85.968 22.062-5.325 86.728-22.823 119.442-118.681 478.527-473.962 4.565-4.565 10.651-4.565 6.847 0 11.412 4.565 4.565 4.565 4.565 10.651 0 6.847-4.565 11.412-160.523 159.002-482.331 477.006-2.282 3.043-6.847 3.804zM823.918 269.5q0.761-0.761 3.043-3.043 3.043-3.043 6.086-6.847 0.761-0.761 3.043-3.043 22.823-22.062 22.823-53.254 0-31.192-22.823-53.254-22.062-22.062-53.254-22.062-31.192 0-53.254 22.062-4.565 4.565-12.933 12.933 26.627 26.627 107.269 106.508zM166.608 798.999q0 0 0 0.761 0 0 0-0.761zM166.608 796.717q0 0 0 1.522 0 0 0-1.522zM166.608 801.281q0 0 0-1.522 0 0 0 1.522zM167.369 795.195q-0.761 0-0.761 0.761 0 0 0-0.761 0 0 0.761 0z" p-id="1209"></path>
</svg>