<?xml version="1.0" encoding="UTF-8"?>
<svg viewBox="0 0 163 163" version="1.1" xmlns="http://www.w3.org/2000/svg" xmlns:xlink="http://www.w3.org/1999/xlink">
	<g id="页面-1" stroke="none" stroke-width="1" fill="none" fill-rule="evenodd">
		<g id="plus-border" transform="translate(0.500000, 0.500000)" fill="#000000" fill-rule="nonzero">
			<path d="M81.25,0 C36.4054066,0.0688329588 0.0688329588,36.4054066 1.11022302e-14,81.25 C0.0688329588,126.094593 36.4054066,162.431167 81.25,162.5 C126.094593,162.431167 162.431167,126.094593 162.5,81.25 C162.431167,36.4054066 126.094593,0.0688329588 81.25,0 Z M81.25,12.5 C119.2875,12.5 150,43.2125 150,81.25 C150,119.2875 119.2875,150.000056 81.25,150.000056 C63.0092456,150.02326 45.5088964,142.787447 32.6107248,129.889275 C19.7125532,116.991104 12.4767401,99.4907544 12.4999441,81.25 C12.4999441,43.2125 43.2125,12.5 81.25,12.5 Z M75,37.5 L75,75 L37.5,75 L37.5,87.5 L75,87.5 L75,125 L87.5,125 L87.5,87.5 L125,87.5 L125,75 L87.5,75 L87.5,37.5 L75,37.5 Z" id="形状">
			</path>
		</g>
	</g>
</svg>
