<svg viewBox="0 0 1024 1024" version="1.1" 
    xmlns="http://www.w3.org/2000/svg">
    <path d="M972.8 102.4c-30.72 0-51.2 20.48-51.2 51.2v51.2c-51.2-71.68-122.88-128-204.8-158.72C460.8-66.56 158.72 51.2 46.08 307.2S51.2 865.28 307.2 977.92 865.28 972.8 977.92 716.8H972.8c0-30.72-20.48-51.2-51.2-51.2s-51.2 20.48-51.2 51.2h-5.12c-46.08 76.8-112.64 138.24-199.68 174.08-209.92 87.04-445.44-15.36-532.48-225.28S148.48 215.04 358.4 133.12c189.44-81.92 404.48 0 506.88 174.08H768c-30.72 0-51.2 20.48-51.2 51.2s20.48 51.2 51.2 51.2h204.8c30.72 0 51.2-20.48 51.2-51.2V153.6c0-30.72-20.48-51.2-51.2-51.2z"></path>
</svg>