<?xml version="1.0" encoding="UTF-8"?>
<svg viewBox="0 0 176 176" version="1.1" xmlns="http://www.w3.org/2000/svg" xmlns:xlink="http://www.w3.org/1999/xlink">
	<g id="schedule" transform="translate(0.500000, 0.304688)" fill="currentColor" fill-rule="nonzero">
		<path d="M87.4999,0.154665039 C39.4624693,0.154665039 0.159116992,39.4580174 0.159116992,87.495448 C0.159116992,135.532879 39.4624693,174.836231 87.4999,174.836231 C135.537331,174.836231 174.840683,135.532879 174.840683,87.495448 C174.840683,39.4580174 135.537131,0.154665039 87.4999,0.154665039 Z M87.4999,157.368074 C49.075152,157.368074 17.6272736,125.92879 17.6272736,87.495448 C17.6272736,49.0621059 49.075152,17.6228217 87.4999,17.6228217 C125.924648,17.6228217 157.372526,49.0621059 157.372526,87.495448 C157.372526,125.92879 125.924648,157.368074 87.4999,157.368074 Z" id="形状">
		</path>
		<polygon id="路径" points="91.8667393 43.8250564 78.7656219 43.8250564 78.7656219 96.2295262 124.184628 124.180176 131.170092 112.827673 91.8667393 89.2438625">
		</polygon>
	</g>
</svg>
