<?xml version="1.0" encoding="UTF-8"?>
<svg width="16px" height="16px" viewBox="0 0 16 16" version="1.1" xmlns="http://www.w3.org/2000/svg" xmlns:xlink="http://www.w3.org/1999/xlink">
    <title>6.图标/6.提示/通知/面</title>
    <g id="6.图标/6.提示/通知/面" stroke="none" stroke-width="1" fill="none" fill-rule="evenodd">
        <polygon id="Clip-2" points="1.0001 1 15 1 15 14.9999 1.0001 14.9999"></polygon>
        <path d="M8.0001,0.9999 C11.8661,0.9999 15.0001,4.1349 15.0001,7.9999 C15.0001,11.8659 11.8661,14.9999 8.0001,14.9999 C4.1341,14.9999 1.0001,11.8659 1.0001,7.9999 C1.0001,4.1349 4.1341,0.9999 8.0001,0.9999 Z M8.5001,6.5459 L7.5001,6.5459 L7.5001,11.9999 L8.5001,11.9999 L8.5001,6.5459 Z M8.0001,3.9999 C7.6681,3.9999 7.4001,4.2679 7.4001,4.5999 C7.4001,4.9309 7.6681,5.1999 8.0001,5.1999 C8.3321,5.1999 8.6001,4.9309 8.6001,4.5999 C8.6001,4.2679 8.3321,3.9999 8.0001,3.9999 Z" id="图标-填色" fill="#2468F2"></path>
    </g>
</svg>