<svg xmlns="http://www.w3.org/2000/svg" xmlns:xlink="http://www.w3.org/1999/xlink" viewBox="0 0 1024 1024" version="1.1" p-id="1775" >
    <path d="M853.728 755.424q0 22.848-16 38.848l-77.728 77.728q-16 16-38.848 16t-38.848-16l-168-168-168 168q-16 16-38.848 16t-38.848-16l-77.728-77.728q-16-16-16-38.848t16-38.848l168-168-168-168q-16-16-16-38.848t16-38.848l77.728-77.728q16-16 38.848-16t38.848 16l168 168 168-168q16-16 38.848-16t38.848 16l77.728 77.728q16 16 16 38.848t-16 38.848l-168 168 168 168q16 16 16 38.848z" p-id="1776" fill="#606670"></path>
</svg>