<?xml version="1.0" encoding="UTF-8"?>
<svg viewBox="0 0 200 200" version="1.1" xmlns="http://www.w3.org/2000/svg" xmlns:xlink="http://www.w3.org/1999/xlink">
	<g id="window-restore" fill="currentColor" fill-rule="nonzero">
		<path d="M181.25,0 L56.25,0 C45.8984375,0 37.5,8.3984375 37.5,18.75 L37.5,37.5 L18.75,37.5 C8.3984375,37.5 0,45.8984375 0,56.25 L0,181.25 C0,191.601562 8.3984375,200 18.75,200 L143.75,200 C154.101562,200 162.5,191.601562 162.5,181.25 L162.5,162.5 L181.25,162.5 C191.601562,162.5 200,154.101562 200,143.75 L200,18.75 C200,8.3984375 191.601562,0 181.25,0 Z M143.75,181.25 L18.75,181.25 L18.75,100 L143.75,100 L143.75,181.25 Z M181.25,143.75 L162.5,143.75 L162.5,56.25 C162.5,45.8984375 154.101562,37.5 143.75,37.5 L56.25,37.5 L56.25,18.75 L181.25,18.75 L181.25,143.75 Z" id="形状">
		</path>
	</g>
</svg>
