<?xml version="1.0" encoding="UTF-8"?>
<svg viewBox="0 0 201 200" version="1.1" xmlns="http://www.w3.org/2000/svg" xmlns:xlink="http://www.w3.org/1999/xlink">
	<g id="Zoom-In-(1)" transform="translate(-0.195312, 0.000000)" fill="currentColor" fill-rule="nonzero">
		<path d="M200.969037,185.426237 L186.577193,199.885458 L132.526927,145.673486 C118.265005,157.063662 100.555788,163.269253 82.3037053,163.2725 C44.3450876,163.501364 11.2373309,137.535745 2.41322763,100.616316 C-6.41087568,63.6968867 11.3773428,25.5666334 45.3369837,8.60633202 C79.2966246,-8.35396931 120.465786,0.331480961 144.679988,29.5647067 C168.894189,58.7979325 169.763336,100.864327 146.777278,131.072772 L200.969037,185.426237 Z M82.3037053,18.6663447 C56.751881,18.5686211 33.6615322,33.8854576 23.8157876,57.4644032 C13.970043,81.0433489 19.3114596,108.232298 37.3456107,126.334087 C55.3797618,144.435876 82.5485248,149.879037 106.164163,140.121629 C129.779801,130.364221 145.182969,107.331373 145.180448,81.7793602 C145.206592,47.004448 117.078472,18.7708318 82.3037053,18.6663447 L82.3037053,18.6663447 Z M91.4198871,118.452958 L73.1605725,118.452958 L73.1605725,90.9427063 L45.7783383,90.9427063 L45.7783383,72.6092764 L73.1605725,72.6092764 L73.1605725,45.1192381 L91.4198871,45.1192381 L91.4198871,72.6092764 L118.822334,72.6092764 L118.822334,90.9427063 L91.4198871,90.9427063 L91.4198871,118.452958 Z" id="形状">
		</path>
	</g>
</svg>
