<?xml version="1.0" encoding="UTF-8"?>
<svg width="21px" height="44px" viewBox="0 0 21 44" version="1.1" xmlns="http://www.w3.org/2000/svg" xmlns:xlink="http://www.w3.org/1999/xlink">
	<!-- Generator: Sketch 64 (93537) - https://sketch.com -->
	<title>
		iPhone_X_R_2
	</title>
	<desc>
		Created with Sketch.
	</desc>
	<g id="页面-1" stroke="none" stroke-width="1" fill="none" fill-rule="evenodd">
		<g id="xr" transform="translate(0.000000, -7.000000)">
			<path d="M17.82,7 L3.18,7 C1.42601349,7.00548983 0.00548982593,8.42601349 0,10.18 L0,47.82 C0.010964266,49.5756029 1.43437137,50.9945479 3.19,51 L17.81,51 C19.5656286,50.9945479 20.9890357,49.5756029 21,47.82 L21,10.18 C20.9945102,8.42601349 19.5739865,7.00548983 17.82,7 L17.82,7 Z M13.5,8.13 C13.6545407,8.12593174 13.7961419,8.21589189 13.8581224,8.35751745 C13.9201028,8.49914302 13.8901065,8.66420042 13.782259,8.77496274 C13.6744115,8.88572506 13.5102125,8.92011142 13.3669848,8.86192899 C13.2237571,8.80374656 13.1300535,8.66459423 13.13,8.51 C13.1273003,8.41014894 13.1650873,8.31344835 13.2347705,8.2418818 C13.3044537,8.17031525 13.4001125,8.12996351 13.5,8.13 L13.5,8.13 Z M9,8.25 L12,8.25 C12.1380712,8.25 12.25,8.36192881 12.25,8.5 C12.25,8.63807119 12.1380712,8.75 12,8.75 L9,8.75 C8.86192881,8.75 8.75,8.63807119 8.75,8.5 C8.75,8.36192881 8.86192881,8.25 9,8.25 Z M19.9999993,48.08 C19.9999993,48.5892157 19.7977149,49.0775752 19.437645,49.437645 C19.0775752,49.7977149 18.5892157,50 18.08,50 L2.92,50 C1.85961328,50 0.999999347,49.1403867 0.999999347,48.08 L0.999999347,10 C0.999140416,8.92593292 1.84679216,8.04296235 2.92,8 L4.55,8 C4.7,8 4.99999935,8 4.99999935,8.26 C4.99999935,8.26 4.99999935,9.05 4.99999935,9.11 C5.0527177,9.65939027 5.54055989,10.0621958 6.09,10.01 L14.92,10.01 C15.4587188,10.0569256 15.9371489,9.66709372 15.9999993,9.13 C15.9999993,9.07 15.9999993,8.28 15.9999993,8.26 C15.9999993,7.99 16.32,8.03 16.47,8 L18.08,8 C19.1532078,8.04296235 20.0008596,8.92593292 19.9999993,10 L19.9999993,48.08 Z" id="iPhone_X_R_2" fill="#333333" fill-rule="nonzero">
			</path>
			<rect id="矩形" x="0" y="0" width="21" height="54">
			</rect>
		</g>
	</g>
</svg>
