<svg viewBox="0 0 1024 1024" xmlns="http://www.w3.org/2000/svg"><path d="M755.627 481.707 584.96 311.04a42.667 42.667 0 1 0-60.587 60.587l98.134 97.706H128a42.667 42.667 0 0 0 0 85.334h494.507l-98.134 97.706a42.667 42.667 0 0 0 0 60.587 42.667 42.667 0 0 0 60.587 0l170.667-170.667a42.667 42.667 0 0 0 8.96-14.08 42.667 42.667 0 0 0 0-32.426 42.667 42.667 0 0 0-8.96-14.08zM896 170.667a42.667 42.667 0 0 0-42.667 42.666v597.334a42.667 42.667 0 0 0 85.334 0V213.333A42.667 42.667 0 0 0 896 170.667z"/></svg>
