<?xml version="1.0" standalone="no"?>
<!DOCTYPE svg PUBLIC "-//W3C//DTD SVG 1.1//EN" "http://www.w3.org/Graphics/SVG/1.1/DTD/svg11.dtd">
<svg viewBox="0 0 1024 1024" version="1.1" xmlns="http://www.w3.org/2000/svg" xmlns:xlink="http://www.w3.org/1999/xlink">
	<path d="M755.626667 481.706667l-170.666667-170.666667a42.666667 42.666667 0 1 0-60.586667 60.586667l98.133334 97.706666H128a42.666667 42.666667 0 0 0 0 85.333334h494.506667l-98.133334 97.706666a42.666667 42.666667 0 0 0 0 60.586667 42.666667 42.666667 0 0 0 60.586667 0l170.666667-170.666667a42.666667 42.666667 0 0 0 8.96-14.08 42.666667 42.666667 0 0 0 0-32.426666 42.666667 42.666667 0 0 0-8.96-14.08zM896 170.666667a42.666667 42.666667 0 0 0-42.666667 42.666666v597.333334a42.666667 42.666667 0 0 0 85.333334 0V213.333333a42.666667 42.666667 0 0 0-42.666667-42.666666z" p-id="8106">
	</path>
</svg>
