<svg t="1627808945303" viewBox="0 0 1024 1024" version="1.1" xmlns="http://www.w3.org/2000/svg" p-id="8721" width="16"
  height="16">
  <path d=" M810.666667 853.333333H213.333333a42.666667 42.666667 0 0 0 0 85.333334h597.333334a42.666667 42.666667 0 0 0
  0-85.333334z m-328.96-97.706666a42.666667 42.666667 0 0 0 14.08 8.96 40.106667 40.106667 0 0 0 32.426666 0 42.666667
  42.666667 0 0 0 14.08-8.96l170.666667-170.666667a42.666667 42.666667 0 0 0-60.586667-60.586667L554.666667
  622.506667V128a42.666667 42.666667 0 0 0-85.333334 0v494.506667l-97.706666-98.133334a42.666667 42.666667 0 1
  0-60.586667 60.586667z" p-id="8722">
  </path>
</svg>