<?xml version="1.0" encoding="UTF-8"?>
<svg width="24px" height="24px" viewBox="0 0 24 24" version="1.1" xmlns="http://www.w3.org/2000/svg" xmlns:xlink="http://www.w3.org/1999/xlink">
    <g id="页面-1" stroke="none" stroke-width="1" fill-rule="evenodd">
        <g id="批量操作说明" transform="translate(-84.000000, -396.000000)">
            <g id="编组-14备份-5" transform="translate(40.000000, 384.000000)">
                <g id="取消多选-默认" transform="translate(44.000000, 12.000000)">
                    <path d="M9,10.3333333 L9,7.33333333 L21,7.333 L21,4 L9,4 L9,1 L22,1 C23.1045695,1 24,1.8954305 24,3 L24,8.33333333 C24,9.38769513 23.1841222,10.2514985 22.1492623,10.3278476 L22,10.3333333 L22,10.3333333 L9,10.3333333 Z" id="形状结合"></path>
                    <path d="M2,1 L9,1 L9,1 L9,4 L0,4 L0,3 C-1.3527075e-16,1.8954305 0.8954305,1 2,1 Z" id="矩形"></path>
                    <path d="M2,1 L3,1 L3,1 L3,10.3333333 L2,10.3333333 C0.8954305,10.3333333 1.3527075e-16,9.43790283 0,8.33333333 L0,3 C-1.3527075e-16,1.8954305 0.8954305,1 2,1 Z" id="矩形"></path>
                    <path d="M2,13.6666667 L3,13.6666667 L3,13.6666667 L3,23 L2,23 C0.8954305,23 1.3527075e-16,22.1045695 0,21 L0,15.6666667 C-1.3527075e-16,14.5620972 0.8954305,13.6666667 2,13.6666667 Z" id="矩形备份-16"></path>
                    <polygon id="矩形备份-11" points="6 1 9 1 9 10.3333333 6 10.3333333"></polygon>
                    <polygon id="矩形备份-17" points="6 13.6666667 9 13.6666667 9 23 6 23"></polygon>
                    <path d="M21,13.6666667 L22,13.6666667 C23.1045695,13.6666667 24,14.5620972 24,15.6666667 L24,21 C24,22.1045695 23.1045695,23 22,23 L21,23 L21,23 L21,13.6666667 Z" id="矩形备份-18"></path>
                    <path d="M0,7.33333333 L9,7.33333333 L9,10.3333333 L2,10.3333333 C0.8954305,10.3333333 1.3527075e-16,9.43790283 0,8.33333333 L0,7.33333333 L0,7.33333333 Z" id="矩形备份-12"></path>
                    <path d="M9,13.6666667 L22,13.6666667 C23.1045695,13.6666667 24,14.5620972 24,15.6666667 L24,16.6666667 L24,16.6666667 L9,16.6666667 L9,13.6666667 Z" id="矩形备份-14"></path>
                    <path d="M2,13.6666667 L9,13.6666667 L9,13.6666667 L9,16.6666667 L0,16.6666667 L0,15.6666667 C-1.3527075e-16,14.5620972 0.8954305,13.6666667 2,13.6666667 Z" id="矩形备份-14"></path>
                    <path d="M9,20 L24,20 L24,21 C24,22.1045695 23.1045695,23 22,23 L9,23 L9,23 L9,20 Z" id="矩形备份-13"></path>
                    <path d="M0,20 L9,20 L9,23 L2,23 C0.8954305,23 1.3527075e-16,22.1045695 0,21 L0,20 L0,20 Z" id="矩形备份-13"></path>
                </g>
            </g>
        </g>
    </g>
</svg>
