<svg width="24" height="24" xmlns="http://www.w3.org/2000/svg"><g fill-rule="evenodd"><path d="M9 10.333v-3h12V4H9V1h13a2 2 0 0 1 2 2v5.333a2 2 0 0 1-1.85 1.995l-.15.005H9ZM2 1h7v3H0V3a2 2 0 0 1 2-2Z"/><path d="M2 1h1v9.333H2a2 2 0 0 1-2-2V3a2 2 0 0 1 2-2Zm0 12.667h1V23H2a2 2 0 0 1-2-2v-5.333a2 2 0 0 1 2-2ZM6 1h3v9.333H6zm0 12.667h3V23H6zm15 0h1a2 2 0 0 1 2 2V21a2 2 0 0 1-2 2h-1v-9.333Z"/><path d="M0 7.333h9v3H2a2 2 0 0 1-2-2v-1Zm9 6.334h13a2 2 0 0 1 2 2v1H9v-3Zm-7 0h7v3H0v-1a2 2 0 0 1 2-2ZM9 20h15v1a2 2 0 0 1-2 2H9v-3Zm-9 0h9v3H2a2 2 0 0 1-2-2v-1Z"/></g></svg>
