<svg class="icon" viewBox="0 0 1024 1024" xmlns="http://www.w3.org/2000/svg" width="48" height="48"><path d="M452.225 146.9 111.637 487.488a33.223 33.223 0 0 1-47.132 0c-13.073-13.073-12.9-34.059 0-47.132L405.093 99.768a33.223 33.223 0 0 1 47.132 0 33.223 33.223 0 0 1 0 47.132zm472.007 471.835L583.644 959.323a33.223 33.223 0 0 1-47.132 0c-13.073-13.073-12.901-34.06 0-47.132L877.1 571.603a33.223 33.223 0 0 1 47.132 0c13.073 13.073 12.9 34.23 0 47.132zm-473.039 2.064L348.157 723.835a33.223 33.223 0 0 1-47.132 0c-13.073-13.073-12.901-34.058 0-47.131L404.06 573.667a33.223 33.223 0 0 1 47.132 0c13.073 13.073 13.073 34.23 0 47.132zm-152.749-95.812-74.654 74.654a33.223 33.223 0 0 1-47.132 0c-13.073-13.073-12.9-34.059 0-47.132l74.655-74.654a33.223 33.223 0 0 1 47.131 0c12.902 13.073 12.902 34.231 0 47.132zM545.285 772l-74.654 74.653a33.223 33.223 0 0 1-47.132 0c-13.073-13.073-12.901-34.058 0-47.131l74.654-74.655a33.223 33.223 0 0 1 47.132 0 33.223 33.223 0 0 1 0 47.132z"/><path d="M536.34 959.323 64.505 487.66a33.223 33.223 0 0 1 0-47.132c13.073-13.073 34.06-12.9 47.132 0l471.835 471.835a33.223 33.223 0 0 1 0 47.132c-13.073 12.9-34.059 12.9-47.132-.172zM732.264 763.57 260.43 291.737a33.223 33.223 0 0 1 0-47.132c13.073-13.073 34.06-12.901 47.132 0L779.224 716.44a33.223 33.223 0 0 1 0 47.132c-12.901 13.073-34.059 12.9-46.96 0zm180.099-544.08L804.682 111.637a33.223 33.223 0 0 1 0-47.132c13.073-13.073 34.059-12.9 47.132 0l107.68 107.853a33.223 33.223 0 0 1 0 47.132c-13.072 13.073-34.23 13.073-47.131 0zM587.256 328.719 405.437 146.9a33.223 33.223 0 0 1 0-47.132c13.073-13.073 34.06-12.9 47.132 0L634.56 281.76a33.223 33.223 0 0 1 0 47.132c-13.073 12.901-34.23 12.901-47.304-.172zM877.1 618.563l-181.819-181.82a33.223 33.223 0 0 1 0-47.131c13.073-13.073 34.059-12.901 47.132 0l181.99 181.99a33.223 33.223 0 0 1 0 47.133c-13.072 12.9-34.23 12.9-47.303-.172z"/><path d="M959.323 219.49 742.24 436.572a33.223 33.223 0 0 1-47.132 0c-13.073-13.073-12.901-34.059 0-47.132L912.19 172.358a33.223 33.223 0 0 1 47.132 0c13.073 12.901 13.073 34.059 0 47.132zM851.642 111.637 634.388 328.72a33.223 33.223 0 0 1-47.132 0c-13.073-13.073-12.9-34.059 0-47.132L804.51 64.505a33.223 33.223 0 0 1 47.132 0c13.073 13.073 12.9 34.06 0 47.132z"/></svg>
