<svg width="15" height="15" xmlns="http://www.w3.org/2000/svg"><path d="M11 1.6a2.4 2.4 0 0 1 2.394 2.236L13.4 4v5a2.4 2.4 0 0 1-2.236 2.394L11 11.4l-.633.001A2.4 2.4 0 0 1 8 13.4H4A2.4 2.4 0 0 1 1.6 11V6A2.4 2.4 0 0 1 4 3.6h.632a2.392 2.392 0 0 1 2.195-1.994L6.99 1.6H11ZM8 4.4H4A1.6 1.6 0 0 0 2.4 6v5A1.6 1.6 0 0 0 4 12.6h4A1.6 1.6 0 0 0 9.6 11V6A1.6 1.6 0 0 0 8 4.4Zm-2.2 5.7c.11 0 .2.09.2.2v.4a.2.2 0 0 1-.2.2H3.717a.2.2 0 0 1-.2-.2v-.4c0-.11.09-.2.2-.2H5.8ZM11 2.4H6.99c-.743 0-1.368.51-1.542 1.2H8A2.4 2.4 0 0 1 10.4 6l-.001 4.6H11a1.6 1.6 0 0 0 1.593-1.454L12.6 9V4a1.6 1.6 0 0 0-1.454-1.593L11 2.4ZM8.3 8.1c.11 0 .2.09.2.2v.4a.2.2 0 0 1-.2.2H3.717a.2.2 0 0 1-.2-.2v-.4c0-.11.09-.2.2-.2H8.3Zm0-2c.11 0 .2.09.2.2v.4a.2.2 0 0 1-.2.2H3.717a.2.2 0 0 1-.2-.2v-.4c0-.11.09-.2.2-.2H8.3Z" fill="#FFF"/></svg>
