<svg viewBox="0 0 14 14" xmlns="http://www.w3.org/2000/svg"><path d="M9.25 1.1a.4.4 0 0 1 .392.32l.008.08v1.153h3.15c.11 0 .2.09.2.2v.4a.2.2 0 0 1-.2.2h-1.65v7.044a2.4 2.4 0 0 1-2.236 2.395l-.164.005h-3.5a2.4 2.4 0 0 1-2.394-2.235l-.006-.165-.001-7.044H1.2a.2.2 0 0 1-.2-.2v-.4c0-.11.09-.2.2-.2h3.149L4.35 1.5a.4.4 0 0 1 .32-.392l.08-.008h4.5Zm1.1 2.353H3.649l.001 7.044a1.6 1.6 0 0 0 1.454 1.594l.146.006h3.5a1.6 1.6 0 0 0 1.593-1.454l.007-.146V3.453ZM4.816 4.997l.4.006a.2.2 0 0 1 .198.202l-.065 5.1a.2.2 0 0 1-.202.198l-.4-.006a.2.2 0 0 1-.198-.202l.065-5.1a.2.2 0 0 1 .202-.198Zm2 0 .4.006a.2.2 0 0 1 .198.202l-.065 5.1a.2.2 0 0 1-.202.198l-.4-.006a.2.2 0 0 1-.198-.202l.065-5.1a.2.2 0 0 1 .202-.198Zm2 0 .4.006a.2.2 0 0 1 .198.202l-.065 5.1a.2.2 0 0 1-.202.198l-.4-.006a.2.2 0 0 1-.198-.202l.065-5.1a.2.2 0 0 1 .202-.198ZM8.85 1.9h-3.7v.753h3.7V1.9Z"/></svg>
