<svg class="icon" viewBox="0 0 1155 1024" xmlns="http://www.w3.org/2000/svg" width="225.586" height="200"><path d="M1076.512 315.077H840.204V78.769A78.77 78.77 0 0 0 761.435 0H78.77A78.77 78.77 0 0 0 0 78.77v420.1a78.77 78.77 0 0 0 78.77 78.77h14.939l-9.295 23.368a78.77 78.77 0 0 0 73.124 107.913 76.879 76.879 0 0 0 38.23-9.977l119.309-66.166v181.169a78.77 78.77 0 0 0 78.769 78.769h347.188l218.453 121.305a76.879 76.879 0 0 0 38.256 9.977 78.77 78.77 0 0 0 73.15-107.914l-9.295-23.368h14.914a78.77 78.77 0 0 0 78.769-78.77V393.847a78.77 78.77 0 0 0-78.77-78.77zm-761.435 78.769v148.873l-157.539 87.434 52.513-131.282H78.77V78.77h682.666v236.308h-367.59a78.77 78.77 0 0 0-78.768 78.769zm761.435 420.102H945.23l52.513 131.282-236.308-131.282h-367.59V393.846h682.667v420.102zm-577.64-262.564h472.614a39.385 39.385 0 0 0 0-78.77H498.871a39.385 39.385 0 0 0 0 78.77zm0 157.538h472.614a39.385 39.385 0 0 0 0-78.769H498.871a39.385 39.385 0 0 0 0 78.77z"/></svg>
