<?xml version="1.0" standalone="no"?><!DOCTYPE svg PUBLIC "-//W3C//DTD SVG 1.1//EN" "http://www.w3.org/Graphics/SVG/1.1/DTD/svg11.dtd"><svg t="1644810980181" class="icon" viewBox="0 0 1155 1024" version="1.1" xmlns="http://www.w3.org/2000/svg" p-id="7397" xmlns:xlink="http://www.w3.org/1999/xlink" width="225.5859375" height="200"><defs><style type="text/css"></style></defs><path d="M1076.511716 315.0766h-236.30745V78.76915a78.76915 78.76915 0 0 0-78.76915-78.76915H78.76915a78.76915 78.76915 0 0 0-78.76915 78.76915v420.102133a78.76915 78.76915 0 0 0 78.76915 78.76915h14.939882l-9.29476 23.368181A78.76915 78.76915 0 0 0 157.5383 708.92235a76.87869 76.87869 0 0 0 38.229294-9.977426L315.0766 632.778838V813.947883a78.76915 78.76915 0 0 0 78.76915 78.76915h347.188157l218.453109 121.304491A76.87869 76.87869 0 0 0 997.742566 1023.99895a78.76915 78.76915 0 0 0 73.150284-107.913736l-9.294759-23.368181H1076.511716a78.76915 78.76915 0 0 0 78.76915-78.76915V393.84575a78.76915 78.76915 0 0 0-78.76915-78.76915z m-761.435116 78.76915v148.873693L157.5383 630.1532l52.512767-131.281917H78.76915V78.76915h682.665966v236.30745H393.84575a78.76915 78.76915 0 0 0-78.76915 78.76915z m761.435116 420.102133h-131.281916l52.512766 131.281917-236.30745-131.281917H393.84575V393.84575h682.665966v420.102133zM498.871283 551.38405h472.6149a39.384575 39.384575 0 0 0 0-78.76915H498.871283a39.384575 39.384575 0 0 0 0 78.76915z m0 157.5383h472.6149a39.384575 39.384575 0 0 0 0-78.76915H498.871283a39.384575 39.384575 0 0 0 0 78.76915z" p-id="7398"></path></svg>