<svg preserveAspectRatio="xMidYMid meet" width="16" height="16" viewBox="0 0 20 8"><path d="M14.814 6.25c.258.248.567.435.927.56s.76.19 1.18.19c.29 0 .51-.014.68-.042.167-.028.34-.07.53-.123.143-.04.28-.09.41-.146l.41-.19V5.13h-.153c-.07.06-.157.134-.265.22a3.337 3.337 0 0 1-.35.237 2.11 2.11 0 0 1-.484.22 1.798 1.798 0 0 1-1.1-.01 1.403 1.403 0 0 1-.523-.3 1.566 1.566 0 0 1-.38-.57c-.1-.24-.152-.54-.152-.9 0-.346.048-.638.14-.878s.217-.437.368-.58c.16-.155.33-.26.52-.33a1.786 1.786 0 0 1 1.117-.013c.165.055.317.124.458.205a4.385 4.385 0 0 1 .643.47h.17V1.52c-.107-.05-.23-.107-.37-.168a3.613 3.613 0 0 0-1.003-.27 4.736 4.736 0 0 0-.65-.04c-.436 0-.837.07-1.205.207s-.674.33-.923.59c-.26.26-.458.58-.59.95S14 3.57 14 4.02c0 .488.07.918.213 1.29s.343.683.6.933zm-3.264.608c.272-.075.52-.2.75-.377a1.5 1.5 0 0 0 .46-.56 1.72 1.72 0 0 0 .17-.77c0-.4-.11-.72-.332-.96-.22-.244-.52-.404-.896-.48v-.04a1.46 1.46 0 0 0 .623-.516c.147-.22.22-.474.22-.763 0-.25-.052-.47-.16-.66a1.152 1.152 0 0 0-.49-.46 2.06 2.06 0 0 0-.64-.212A7.67 7.67 0 0 0 10.237 1H8v5.97h2.515c.418 0 .763-.037 1.035-.112zM9.478 2.095h.14c.29 0 .517.002.678.006.162.01.296.03.404.07a.46.46 0 0 1 .253.23.69.69 0 0 1 .072.298.85.85 0 0 1-.062.34.492.492 0 0 1-.263.24 1.052 1.052 0 0 1-.39.08c-.166.006-.366.01-.6.01h-.232v-1.27zm.108 3.78h-.108V4.388h.324c.222 0 .434 0 .638.004a1.8 1.8 0 0 1 .48.056c.17.05.29.127.36.23.07.104.106.25.106.44 0 .144-.03.272-.087.383s-.17.2-.32.27-.32.1-.5.11c-.18.004-.48.004-.9.004zm-6.64-.106h2.187l.41 1.2h1.574L4.935 1.03H3.182L1 6.97h1.535l.412-1.2zM4.04 2.55l.727 2.13H3.313l.727-2.13z"></path></svg>