<svg preserveAspectRatio="xMidYMid meet" width="16" height="16" viewBox="0 0 28 14"><path d="M25 3v8H3V3h22m1-1H2v10h24V2z" opacity=".15"></path><path opacity=".35" d="M8.418 9.8H7.66L7.25 11h1.58l-.232-.676-.18-.525zM3 11h.567l2.916-7.94h3.15L11 6.78V3H3v8zm15.12-1.002a3.302 3.302 0 0 1-.48-.586c-.173.343-.42.653-.73.888.002 0 .004-.002.005-.003l-.008.006.003-.003a3.145 3.145 0 0 1-1.092.55c-.4.11-.825.15-1.303.15h6.017a4.416 4.416 0 0 1-1.12-.215 3.51 3.51 0 0 1-1.292-.787zM14.237 3c.49 0 .853.014 1.167.06.335.05.656.16.953.314h.003l.004.003c.365.19.694.492.898.866.13.234.197.49.24.747.16-.298.343-.58.578-.82v-.002c.358-.366.8-.643 1.287-.826a4.373 4.373 0 0 1 1.557-.272 5.67 5.67 0 0 1 1.442.18l.01.002.01.003c.205.06.4.126.59.208.15.064.283.125.407.185l.562.274v3.016h-1.54l-.28-.24a7.018 7.018 0 0 0-.233-.188 2.703 2.703 0 0 0-.26-.175 1.594 1.594 0 0 0-.277-.125h-.006l-.2-.03a.772.772 0 0 0-.26.042l-.16.102a.63.63 0 0 0-.13.22 1.486 1.486 0 0 0-.075.516c0 .266.04.436.074.513a.59.59 0 0 0 .13.212l.15.09h.003a.868.868 0 0 0 .265.045l.236-.037h.008a1.04 1.04 0 0 0 .25-.113l.007-.004.01-.005.24-.16a6.41 6.41 0 0 0 .216-.17l.285-.254h1.536v3.017l-.59.266c-.15.066-.292.13-.422.184a4.19 4.19 0 0 1-.53.19 5.918 5.918 0 0 1-.636.15c-.076.012-.16.02-.24.026H25V3H14.237z"></path><path d="M25.8 1H2.2A1.2 1.2 0 0 0 1 2.2v9.6A1.2 1.2 0 0 0 2.2 13h23.6a1.2 1.2 0 0 0 1.2-1.2V2.2A1.2 1.2 0 0 0 25.8 1zm.2 11H2V2h24v10zm-7.186-2.72c.258.248.567.435.927.56s.76.19 1.18.19c.29 0 .51-.014.68-.042.167-.028.34-.07.53-.123.143-.04.28-.09.41-.146l.412-.19V8.16h-.154c-.07.06-.157.134-.265.22a3.337 3.337 0 0 1-.35.237 2.11 2.11 0 0 1-.485.22 1.798 1.798 0 0 1-1.1-.01 1.403 1.403 0 0 1-.523-.3c-.15-.14-.28-.33-.38-.57a2.36 2.36 0 0 1-.152-.9c0-.347.047-.64.14-.88s.216-.433.367-.58c.157-.15.33-.26.517-.325a1.786 1.786 0 0 1 1.116-.014c.164.056.316.125.457.206a4.868 4.868 0 0 1 .644.466h.17V4.54a13.03 13.03 0 0 0-.367-.168 3.667 3.667 0 0 0-1.005-.27 4.736 4.736 0 0 0-.65-.04c-.436 0-.837.07-1.205.207s-.675.333-.924.59c-.26.262-.457.58-.59.95S18 6.6 18 7.055c0 .488.07.918.213 1.29s.343.683.6.933zm-3.264.607c.272-.076.52-.2.75-.38.195-.15.35-.338.46-.567.113-.23.17-.488.17-.778 0-.4-.11-.722-.332-.967-.22-.245-.52-.406-.896-.484v-.03a1.46 1.46 0 0 0 .623-.51 1.36 1.36 0 0 0 .22-.77c0-.25-.052-.47-.16-.665a1.15 1.15 0 0 0-.49-.465 2.065 2.065 0 0 0-.64-.215A7.67 7.67 0 0 0 14.237 4H12v6h2.515c.418 0 .763-.037 1.035-.113zM13.478 5.1h.14c.29 0 .517.002.678.006s.296.027.404.07c.12.05.206.123.253.223a.69.69 0 0 1 .072.29.86.86 0 0 1-.062.34c-.042.1-.13.18-.263.24a1.05 1.05 0 0 1-.39.08c-.166.007-.366.01-.6.01h-.233V5.1zm.108 3.8h-.108V7.405h.324c.222 0 .434 0 .638.004.203 0 .363.02.48.05.17.05.29.13.36.23s.106.25.106.44c0 .144-.03.272-.087.384s-.17.2-.32.27a1.257 1.257 0 0 1-.5.104c-.18.003-.48.004-.9.004zm-6.64-.1h2.187l.41 1.2h1.574L8.935 4.06H7.182L5 10h1.535l.412-1.2zM8.04 5.58l.727 2.13H7.313l.727-2.13z"></path></svg>