<svg width="16" height="16" xmlns="http://www.w3.org/2000/svg"><g fill="#FFF"><path d="m10.263 4.52-.283.283a.2.2 0 0 1-.283 0L8 3.105 6.303 4.803a.2.2 0 0 1-.283 0l-.283-.283a.2.2 0 0 1 0-.283l1.98-1.98a.4.4 0 0 1 .503-.051l.063.051 1.98 1.98a.2.2 0 0 1 0 .283Zm-4.526 6.953.283-.283a.2.2 0 0 1 .283 0L8 12.888l1.697-1.698a.2.2 0 0 1 .283 0l.283.283a.2.2 0 0 1 0 .283l-1.98 1.98a.4.4 0 0 1-.503.05l-.063-.05-1.98-1.98a.2.2 0 0 1 0-.283Zm5.743-1.21-.283-.283a.2.2 0 0 1 0-.283L12.895 8l-1.698-1.697a.2.2 0 0 1 0-.283l.283-.283a.2.2 0 0 1 .283 0l1.98 1.98a.4.4 0 0 1 .051.503l-.051.063-1.98 1.98a.2.2 0 0 1-.283 0ZM4.546 5.737l.282.283a.2.2 0 0 1 0 .283L3.131 8l1.697 1.697a.2.2 0 0 1 0 .283l-.282.283a.2.2 0 0 1-.283 0l-1.98-1.98a.4.4 0 0 1-.051-.503l.05-.063 1.98-1.98a.2.2 0 0 1 .284 0Z"/><path d="M8.4 3v4.7h4.7v.8H8.4V13h-.8V8.5H3.1v-.8l4.5-.001V3h.8Z"/></g></svg>
