<?xml version="1.0" encoding="UTF-8"?>
<svg width="16px" height="16px" viewBox="0 0 16 16" version="1.1" xmlns="http://www.w3.org/2000/svg" xmlns:xlink="http://www.w3.org/1999/xlink">
    <g id="icon/拖拽" stroke="none" stroke-width="1" fill="none" fill-rule="evenodd">
        <g fill="#FFFFFF" fill-rule="nonzero">
            <g id="编组-2" transform="translate(8.000000, 8.000000) rotate(45.000000) translate(-8.000000, -8.000000) translate(3.000000, 3.000000)">
                <path d="M4.13919697,0.939196975 L4.13919697,1.33919697 C4.13921212,1.44965392 4.04966907,1.53919697 3.93921212,1.53919697 C3.93920707,1.53919697 3.93920202,1.53919697 3.93919698,1.53918182 L1.539,1.539 L1.539,1.539 L1.53918182,3.93919698 C1.53920534,4.04965392 1.44966908,4.13920376 1.33921213,4.13921212 C1.33920708,4.13921212 1.33920202,4.13921212 1.33919697,4.13919697 L0.939196975,4.13919697 C0.828740025,4.13919697 0.739196975,4.04965392 0.739196975,3.93919697 L0.739196975,1.13919697 L0.739196975,1.13919697 C0.739196975,0.945897312 0.87630977,0.784622059 1.05858302,0.747323553 L1.13919697,0.739196975 L3.93919697,0.739196975 C4.04965392,0.739196975 4.13919697,0.828740025 4.13919697,0.939196975 Z" id="路径"></path>
                <path d="M9.25559921,6.05559921 L9.25559921,6.45559921 C9.25564528,6.56605616 9.16610223,6.65559921 9.05564528,6.65559921 C9.05562992,6.65559921 9.05561456,6.6555992 9.05559921,6.65555312 L6.655,6.655 L6.655,6.655 L6.65555312,9.05559921 C6.65562465,9.16605615 6.56610223,9.25561983 6.45564529,9.25564528 C6.45562993,9.25564528 6.45561457,9.25564528 6.45559921,9.25559921 L6.05559921,9.25559921 C5.94514226,9.25559921 5.85559921,9.16605616 5.85559921,9.05559921 L5.85559921,6.25559921 L5.85559921,6.25559921 C5.85559921,6.06229954 5.992712,5.90102429 6.17498525,5.86372578 L6.25559921,5.85559921 L9.05559921,5.85559921 C9.16605616,5.85559921 9.25559921,5.94514226 9.25559921,6.05559921 Z" id="路径备份" transform="translate(7.555599, 7.555599) scale(-1, -1) translate(-7.555599, -7.555599) "></path>
            </g>
            <g id="编组-2" transform="translate(8.000000, 8.000000) rotate(135.000000) translate(-8.000000, -8.000000) translate(3.000000, 3.000000)">
                <path d="M4.13919697,0.939196975 L4.13919697,1.33919697 C4.13921212,1.44965392 4.04966907,1.53919697 3.93921212,1.53919697 C3.93920707,1.53919697 3.93920202,1.53919697 3.93919698,1.53918182 L1.539,1.539 L1.539,1.539 L1.53918182,3.93919698 C1.53920534,4.04965392 1.44966908,4.13920376 1.33921213,4.13921212 C1.33920708,4.13921212 1.33920202,4.13921212 1.33919697,4.13919697 L0.939196975,4.13919697 C0.828740025,4.13919697 0.739196975,4.04965392 0.739196975,3.93919697 L0.739196975,1.13919697 L0.739196975,1.13919697 C0.739196975,0.945897312 0.87630977,0.784622059 1.05858302,0.747323553 L1.13919697,0.739196975 L3.93919697,0.739196975 C4.04965392,0.739196975 4.13919697,0.828740025 4.13919697,0.939196975 Z" id="路径"></path>
                <path d="M9.24264069,6.04264069 L9.24264069,6.44264069 C9.24268676,6.55309764 9.15314371,6.64264069 9.04268676,6.64264069 C9.0426714,6.64264069 9.04265604,6.64264069 9.04264069,6.64259461 L6.64204148,6.64204148 L6.64204148,6.64204148 L6.64259461,9.04264069 C6.64266613,9.15309763 6.55314372,9.24266131 6.44268677,9.24268676 C6.44267141,9.24268676 6.44265605,9.24268676 6.44264069,9.24264069 L6.04264069,9.24264069 C5.93218374,9.24264069 5.84264069,9.15309764 5.84264069,9.04264069 L5.84264069,6.24264069 L5.84264069,6.24264069 C5.84264069,6.04934102 5.97975348,5.88806577 6.16202674,5.85076727 L6.24264069,5.84264069 L9.04264069,5.84264069 C9.15309764,5.84264069 9.24264069,5.93218374 9.24264069,6.04264069 Z" id="路径备份" transform="translate(7.542641, 7.542641) scale(-1, -1) translate(-7.542641, -7.542641) "></path>
            </g>
            <path d="M8.4,3 L8.4,7.7 L13.1,7.7 L13.1,8.5 L8.4,8.5 L8.4,13 L7.6,13 L7.6,8.5 L3.1,8.5 L3.1,7.7 L7.6,7.699 L7.6,3 L8.4,3 Z" id="形状结合"></path>
        </g>
    </g>
</svg>