<?xml version="1.0" encoding="UTF-8"?>
<svg width="16px" height="16px" viewBox="0 0 16 16" version="1.1" xmlns="http://www.w3.org/2000/svg" xmlns:xlink="http://www.w3.org/1999/xlink">
    <title>高级设置</title>
    <g id="页面-1" stroke="none" stroke-width="1" fill="none" fill-rule="evenodd">
        <g id="页面动作面板" transform="translate(-2610.000000, -2316.000000)">
            <g id="编组-63备份-9" transform="translate(2431.000000, 2206.000000)">
                <g id="编组-63备份-3" transform="translate(11.000000, 101.000000)">
                    <g id="高级设置" transform="translate(168.000000, 9.000000)">
                        <g id="编组-19">
                            <rect id="矩形" x="0" y="0" width="16" height="16"></rect>
                            <g id="编组" transform="translate(1.333333, 2.000000)">
                                <path d="M6.0225079,12 L1,12 C0.447716667,12 0,11.4963375 0,10.875 L0,1.125 C0,0.50368125 0.447716667,0 1,0 L12.3333333,0 C12.8856333,0 13.3333333,0.50368125 13.3333333,1.125 L13.3333333,5.64705" id="路径" stroke="#151B26" stroke-linecap="round" stroke-linejoin="round"></path>
                                <path d="M0,1 C0,0.447716667 0.447716667,0 1,0 L12.3333333,0 C12.8856333,0 13.3333333,0.447716667 13.3333333,1 L13.3333333,4 L0,4 L0,1 Z" id="路径" stroke="#151B26"></path>
                                <path d="M1.99999991,1.33333333 C2.36818975,1.33333329 2.66666662,1.63181008 2.66666667,1.99999991 C2.66666671,2.36818975 2.36818992,2.66666662 2.00000009,2.66666667 C1.63181025,2.66666671 1.33333338,2.36818992 1.33333333,2.00000009 C1.33333329,1.63181025 1.63181008,1.33333338 1.99999991,1.33333333 Z M3.99999991,1.33333333 C4.36818975,1.33333329 4.66666662,1.63181008 4.66666667,1.99999991 C4.66666671,2.36818975 4.36818992,2.66666662 4.00000009,2.66666667 C3.63181025,2.66666671 3.33333338,2.36818992 3.33333333,2.00000009 C3.33333329,1.63181025 3.63181008,1.33333338 3.99999991,1.33333333 Z" id="形状结合" fill="#151B26" fill-rule="nonzero"></path>
                            </g>
                        </g>
                        <g id="编组" transform="translate(8.691886, 9.016630)" stroke="#151B26" stroke-linejoin="round">
                            <polygon id="路径" points="4.500045 5 6 2.5 4.500045 0 1.50003 0 0 2.5 1.50003 5"></polygon>
                            <path d="M3,3.40291091 C3.50863283,3.40291091 3.92096913,2.99865964 3.92096913,2.5 C3.92096913,2.00134036 3.50863283,1.59708909 3,1.59708909 C2.49136717,1.59708909 2.07903087,2.00134036 2.07903087,2.5 C2.07903087,2.99865964 2.49136717,3.40291091 3,3.40291091 Z" id="路径"></path>
                        </g>
                    </g>
                </g>
            </g>
        </g>
    </g>
</svg>