<svg width="16" height="16" xmlns="http://www.w3.org/2000/svg"><g fill="none" fill-rule="evenodd"><path d="M0 0h16v16H0z"/><path d="M7.356 14H2.333c-.552 0-1-.504-1-1.125v-9.75c0-.621.448-1.125 1-1.125h11.334c.552 0 1 .504 1 1.125v4.522" stroke="#151B26" stroke-linecap="round" stroke-linejoin="round"/><path d="M1.333 3a1 1 0 0 1 1-1h11.334a1 1 0 0 1 1 1v3H1.333V3Z" stroke="#151B26"/><path d="M3.333 3.333a.667.667 0 1 1 0 1.334.667.667 0 0 1 0-1.334Zm2 0a.667.667 0 1 1 0 1.334.667.667 0 0 1 0-1.334Z" fill="#151B26" fill-rule="nonzero"/><g stroke="#151B26" stroke-linejoin="round"><path d="m13.192 14.017 1.5-2.5-1.5-2.5h-3l-1.5 2.5 1.5 2.5z"/><path d="M11.692 12.42a.912.912 0 0 0 .92-.903.912.912 0 0 0-.92-.903.912.912 0 0 0-.921.903c0 .498.412.903.92.903Z"/></g></g></svg>
