<svg viewBox="0 0 1024 1024" xmlns="http://www.w3.org/2000/svg" width="16" height="16"><path d="M896 469.333H401.493l98.134-97.706a42.667 42.667 0 1 0-60.587-60.587L268.373 481.707a42.667 42.667 0 0 0-8.96 14.08 42.667 42.667 0 0 0 0 32.426 42.667 42.667 0 0 0 8.96 14.08L439.04 712.96a42.667 42.667 0 0 0 60.587 0 42.667 42.667 0 0 0 0-60.587l-98.134-97.706H896a42.667 42.667 0 0 0 0-85.334zM128 128a42.667 42.667 0 0 0-42.667 42.667v682.666a42.667 42.667 0 0 0 85.334 0V170.667A42.667 42.667 0 0 0 128 128z"/></svg>
