<svg t="1627808755019" viewBox="0 0 1024 1024" version="1.1" xmlns="http://www.w3.org/2000/svg" p-id="8287" width="16"
  height="16">
  <path
    d="M896 469.333333H401.493333l98.133334-97.706666a42.666667 42.666667 0 1 0-60.586667-60.586667l-170.666667 170.666667a42.666667 42.666667 0 0 0-8.96 14.08 42.666667 42.666667 0 0 0 0 32.426666 42.666667 42.666667 0 0 0 8.96 14.08l170.666667 170.666667a42.666667 42.666667 0 0 0 60.586667 0 42.666667 42.666667 0 0 0 0-60.586667L401.493333 554.666667H896a42.666667 42.666667 0 0 0 0-85.333334zM128 128a42.666667 42.666667 0 0 0-42.666667 42.666667v682.666666a42.666667 42.666667 0 0 0 85.333334 0V170.666667a42.666667 42.666667 0 0 0-42.666667-42.666667z"
    p-id="8288">
  </path>
</svg>