<?xml version="1.0" encoding="UTF-8"?>
<svg width="24px" height="24px" viewBox="0 0 24 24" version="1.1" xmlns="http://www.w3.org/2000/svg" xmlns:xlink="http://www.w3.org/1999/xlink">
    <g id="页面-1" stroke="none" stroke-width="1" fill-rule="evenodd">
        <g id="批量操作说明" transform="translate(-84.000000, -84.000000)">
            <g id="编组-14" transform="translate(40.000000, 72.000000)">
                <g id="合成一行-默认" transform="translate(44.000000, 12.000000)">
                    <rect id="矩形" x="1" y="1" width="22" height="3" rx="1.5"></rect>
                    <rect id="矩形备份-12" x="1" y="7" width="22" height="3" rx="1.5"></rect>
                    <rect id="矩形备份-13" x="1" y="20" width="22" height="3" rx="1.5"></rect>
                    <path d="M12.3762883,13.9300438 L14.7744042,16.6707477 C14.9562453,16.878566 14.9351865,17.1944473 14.7273682,17.3762883 C14.6362224,17.4560409 14.5192275,17.5 14.3981159,17.5 L9.60188411,17.5 C9.32574174,17.5 9.10188411,17.2761424 9.10188411,17 C9.10188411,16.8788884 9.14584324,16.7618934 9.22559577,16.6707477 L11.6237117,13.9300438 C11.8055527,13.7222255 12.121434,13.7011668 12.3292523,13.8830078 C12.3459577,13.897625 12.3616711,13.9133384 12.3762883,13.9300438 Z" id="三角形" transform="translate(12.000000, 15.500000) scale(1, -1) translate(-12.000000, -15.500000) "></path>
                </g>
            </g>
        </g>
    </g>
</svg>
