<svg t="1627808842350" viewBox="0 0 1024 1024" version="1.1" xmlns="http://www.w3.org/2000/svg" p-id="8491" width="16"
  height="16">
  <path
    d="M542.293333 268.373333a42.666667 42.666667 0 0 0-14.08-8.96 42.666667 42.666667 0 0 0-32.426666 0 42.666667 42.666667 0 0 0-14.08 8.96l-170.666667 170.666667a42.666667 42.666667 0 1 0 60.586667 60.586667L469.333333 401.493333V896a42.666667 42.666667 0 0 0 85.333334 0V401.493333l97.706666 98.133334a42.666667 42.666667 0 0 0 60.586667 0 42.666667 42.666667 0 0 0 0-60.586667zM810.666667 85.333333H213.333333a42.666667 42.666667 0 0 0 0 85.333334h597.333334a42.666667 42.666667 0 0 0 0-85.333334z"
    p-id="8492">
  </path>
</svg>