<svg width="45" height="45" viewBox="0 0 28 29" xmlns="http://www.w3.org/2000/svg" xmlns:xlink="http://www.w3.org/1999/xlink"><defs><radialGradient cx="69.986%" cy="19.319%" fx="69.986%" fy="19.319%" r="49.554%" gradientTransform="scale(-1 -.71033) rotate(-39.868 -.641 1.89)" id="e"><stop stop-color="#FFF" offset="0%"/><stop stop-color="#FFF" stop-opacity="0" offset="100%"/></radialGradient><radialGradient cx="77.918%" cy="13.589%" fx="77.918%" fy="13.589%" r="45.882%" id="j"><stop stop-color="#FFF" offset="0%"/><stop stop-color="#FFF" stop-opacity="0" offset="100%"/></radialGradient><linearGradient x1="50%" y1="0%" x2="50%" y2="100%" id="a"><stop stop-color="#0752E9" offset="0%"/><stop stop-color="#2468F2" offset="100%"/></linearGradient><linearGradient x1="50%" y1="0%" x2="50%" y2="100%" id="g"><stop stop-color="#0752E9" offset="0%"/><stop stop-color="#2468F2" offset="100%"/></linearGradient><filter x="-75%" y="-75%" width="250%" height="250%" filterUnits="objectBoundingBox" id="c"><feGaussianBlur stdDeviation="7" in="SourceGraphic"/></filter><filter x="-100%" y="-100%" width="300%" height="300%" filterUnits="objectBoundingBox" id="h"><feGaussianBlur stdDeviation="2" in="SourceGraphic"/></filter><circle id="f" cx="3" cy="2.5" r="2.5"/><path d="m8 0 .335.276a13.981 13.981 0 0 1 5.075 11.687c1.592 1.198 2.59 3.019 2.59 5.35a7.97 7.97 0 0 1-1.93 5.212l-.72-2.16a3 3 0 0 0-2.846-2.051H5.496a3 3 0 0 0-2.846 2.051l-.72 2.16A7.969 7.969 0 0 1 0 17.314c0-2.332.998-4.153 2.59-5.352A13.977 13.977 0 0 1 7.665.276L8 0Z" id="b"/></defs><g fill="none" fill-rule="evenodd"><path d="M14 5c7.732 0 14 6.268 14 14 0 3.728-1.457 7.116-3.834 9.625A6.967 6.967 0 0 1 20 30a6.976 6.976 0 0 1-2.799-.582 10.339 10.339 0 0 1-2.974 3.889l-.113.09-.114.088a10.34 10.34 0 0 1-3.201-4.068A6.963 6.963 0 0 1 8 30c-1.56 0-3.002-.51-4.166-1.374A13.954 13.954 0 0 1 0 19C0 11.268 6.268 5 14 5Z" fill="url(#a)" transform="translate(0 -5)"/><g transform="translate(6 1.5)"><mask id="d" fill="#fff"><use xlink:href="#b"/></mask><use fill="#F2F2FF" xlink:href="#b"/><circle fill="#2468F2" filter="url(#c)" mask="url(#d)" cx="19" cy="-2" r="14"/><path d="m8 0 .335.276a13.981 13.981 0 0 1 5.075 11.687c1.592 1.198 2.59 3.019 2.59 5.35a7.97 7.97 0 0 1-1.93 5.212l-.72-2.16a3 3 0 0 0-2.662-2.046l-.184-.005H5.496a3 3 0 0 0-2.783 1.879l-.063.172-.72 2.16A7.969 7.969 0 0 1 0 17.314c0-2.332.998-4.153 2.59-5.352A13.977 13.977 0 0 1 7.497.416L8 0Zm0 .647-.179.15a13.472 13.472 0 0 0-4.75 10.762l.018.372.017.268-.215.162C1.354 13.52.5 15.226.5 17.314c0 1.39.38 2.72 1.077 3.874l.178.28.425-1.275.069-.187a3.5 3.5 0 0 1 3.043-2.186l.204-.006h5.024l.198.006a3.5 3.5 0 0 1 3.04 2.205l.067.182.42 1.261.012-.017a7.459 7.459 0 0 0 1.236-3.818l.007-.32c0-1.992-.778-3.638-2.185-4.79l-.205-.16-.215-.163.016-.268A13.478 13.478 0 0 0 8.303.904L8 .647Z" fill-opacity=".7" fill="url(#e)" mask="url(#d)"/></g><g transform="translate(11 6.814)"><mask id="i" fill="#fff"><use xlink:href="#f"/></mask><use fill="url(#g)" xlink:href="#f"/><path fill="#2468F2" filter="url(#h)" mask="url(#i)" d="M3-3h6v6H3z"/></g><path d="M8 11.314a2.5 2.5 0 1 1 0 5 2.5 2.5 0 0 1 0-5Zm0 .5a2 2 0 1 0 0 4 2 2 0 0 0 0-4Z" fill-opacity=".7" fill="url(#j)" transform="translate(6 -4.5)"/></g></svg>
