<?xml version="1.0" encoding="UTF-8"?>
<svg width="18px" height="18px" viewBox="0 0 18 18" version="1.1" xmlns="http://www.w3.org/2000/svg" xmlns:xlink="http://www.w3.org/1999/xlink">
    <g id="11.1终稿" stroke="none" stroke-width="1" fill="none" fill-rule="evenodd">
        <g id="图标" transform="translate(-141.000000, -40.000000)">
            <g id="自定义设置" transform="translate(142.000000, 41.000000)">
                <g id="编组-28备份">
                    <rect id="矩形" x="0" y="0" width="16" height="16"></rect>
                </g>
                <rect id="矩形" fill="#84868C" x="7.11577461" y="2.95100764" width="6.91305466" height="1" rx="0.5"></rect>
                <rect id="矩形备份-49" fill="#84868C" x="7.11577461" y="5.98938234" width="5.18768508" height="1" rx="0.5"></rect>
                <rect id="矩形备份-51" fill="#84868C" x="7.11577461" y="9.02775704" width="6.91305466" height="1" rx="0.5"></rect>
                <rect id="矩形备份-50" fill="#84868C" x="7.11577461" y="12.0661317" width="5.18768508" height="1" rx="0.5"></rect>
                <path d="M4.28402126,2.5 L4.28402126,3.98813377 M4.28402126,6.73009787 L4.28402126,8.87389474 M4.28402126,11.9388703 L4.28402126,13.5" id="形状" stroke="#84868C" stroke-linecap="round" stroke-linejoin="bevel"></path>
                <path d="M4.25,9.19464196 C4.98767176,9.19464196 5.58567287,9.79264308 5.58567287,10.5303148 C5.58567287,11.2679866 4.98767176,11.8659877 4.25,11.8659877 C3.51232824,11.8659877 2.91432713,11.2679866 2.91432713,10.5303148 C2.91432713,9.79264308 3.51232824,9.19464196 4.25,9.19464196 Z M4.25,4.04216118 C4.98767176,4.04216118 5.58567287,4.6401623 5.58567287,5.37783405 C5.58567287,6.11550581 4.98767176,6.71350693 4.25,6.71350693 C3.51232824,6.71350693 2.91432713,6.11550581 2.91432713,5.37783405 C2.91432713,4.6401623 3.51232824,4.04216118 4.25,4.04216118 Z" id="形状结合" stroke="#84868C" stroke-linejoin="round"></path>
            </g>
        </g>
    </g>
</svg>