<svg viewBox="0 0 1024 1024" version="1.1"
  xmlns="http://www.w3.org/2000/svg">
  <path
    d="M753.845117 371.674021l-17.46272 0 0-83.669608c0-59.275012-22.62837-115.203812-63.715137-157.482731-42.170448-43.394323-99.369172-67.291592-161.058163-67.291592-126.040624 0-224.772276 98.731652-224.772276 224.7733l0 83.669608-16.680914 0c-62.788022 0-113.688295 50.900274-113.688295 113.688295L156.467611 842.961784c0 62.788022 50.900274 113.688295 113.688295 113.688295l483.690234 0c62.788022 0 113.688295-50.900274 113.688295-113.688295L867.534436 485.362316C867.532389 422.574295 816.633139 371.674021 753.845117 371.674021zM328.176344 288.005436c0-102.858646 80.573083-183.432753 183.431729-183.432753 50.423413 0 97.093339 19.447934 131.410935 54.762231 33.547047 34.519188 52.021817 80.214926 52.021817 128.670521l0 83.669608L328.176344 371.675044 328.176344 288.005436zM826.191842 842.961784c0 39.956014-32.390711 72.346725-72.346725 72.346725L270.154883 915.308509c-39.956014 0-72.346725-32.390711-72.346725-72.346725L197.808158 485.362316c0-39.956014 32.390711-72.346725 72.346725-72.346725l483.690234 0c39.956014 0 72.346725 32.390711 72.346725 72.346725L826.191842 842.961784z"
    fill="currentColor"></path>
  <path
    d="M509.932921 580.446905c-11.416004 0-20.670785 9.254781-20.670785 20.670785l0 109.554138c0 11.414981 9.254781 20.670785 20.670785 20.670785 11.416004 0 20.670785-9.254781 20.670785-20.670785L530.603707 601.116667C530.602683 589.701686 521.348925 580.446905 509.932921 580.446905z"
    fill="currentColor"></path>
</svg>
