<svg width="16" height="16" xmlns="http://www.w3.org/2000/svg"><g fill="none" fill-rule="evenodd"><path opacity=".5" d="M0 0h16v16H0z"/><path d="M8.206 11.52c1.34 0 2.368-.36 3.095-1.053.727-.708 1.098-1.733 1.098-3.076V1.754h-1.555V7.42c0 .924-.213 1.603-.627 2.05-.428.448-1.098.679-2.01.679-.927 0-1.598-.231-2.025-.679-.428-.447-.628-1.126-.628-2.05V1.754H4v5.637c0 1.343.37 2.368 1.112 3.09.713.693 1.74 1.04 3.094 1.04Z" fill="currentColor" fill-rule="nonzero"/><path fill="currentColor" d="M3 12.754h10.185v1.547H3z"/></g></svg>
