<svg viewBox="0 0 1024 1024" version="1.1"
  xmlns="http://www.w3.org/2000/svg">
  <path
    d="M757.810429 373.751333 325.645708 373.751333l0-83.895759c0-103.694687 81.507362-184.922686 185.559183-184.922686 78.121242 0 146.053424 46.74565 173.062568 119.090329 3.865028 10.352789 15.384385 15.609513 25.742291 11.746532 10.351766-3.866051 15.609513-15.390525 11.744485-25.742291C688.844707 121.877815 606.198405 64.918545 511.204891 64.918545c-61.918211 0-119.246895 23.662933-161.423483 66.63156-41.3692 42.142819-64.151066 98.363262-64.151066 158.305469l0 83.895759-20.007683 0c-60.774155 0-110.042255 49.267077-110.042255 110.042255l0 366.139981c0 60.774155 49.267077 110.042255 110.042255 110.042255l492.187769 0c60.775178 0 110.042255-49.267077 110.042255-110.042255L867.852684 483.793588C867.852684 423.01841 818.585607 373.751333 757.810429 373.751333zM827.837318 849.933569c0 38.674834-31.352055 70.02689-70.02689 70.02689L265.62266 919.960459c-38.674834 0-70.02689-31.352055-70.02689-70.02689L195.59577 483.793588c0-38.674834 31.352055-70.02689 70.02689-70.02689l492.187769 0c38.674834 0 70.02689 31.352055 70.02689 70.02689L827.837318 849.933569z"
    fill="currentColor"></path>
  <path
    d="M509.715981 583.832002c-11.048637 0-20.007683 8.959046-20.007683 20.007683l0 110.042255c0 11.048637 8.958022 20.007683 20.007683 20.007683s20.007683-8.958022 20.007683-20.007683L529.723663 603.839685C529.723663 592.790024 520.765641 583.832002 509.715981 583.832002z"
    fill="currentColor"></path>
</svg>
