<svg width="16" height="16" xmlns="http://www.w3.org/2000/svg"><g fill="none" fill-rule="evenodd" stroke="currentColor"><path stroke-linejoin="round" d="M1.5 3h13v11h-13z"/><path stroke-linecap="round" stroke-linejoin="round" d="M5 2v2m6-2v2M1.5 6.002h13"/><path d="M4.7 11.799v-3.57h-.44c-.12.125-.27.24-.45.35-.18.1-.35.17-.51.21v.58c.33-.095.6-.24.815-.435v2.865H4.7Zm6.705.07c.39 0 .705-.11.945-.325.23-.21.345-.48.345-.81 0-.21-.06-.385-.18-.52-.11-.13-.275-.225-.485-.29.395-.13.595-.39.595-.78 0-.31-.11-.55-.325-.725-.22-.175-.515-.26-.875-.26-.35 0-.64.095-.865.295-.24.2-.37.48-.4.84h.575c.02-.215.09-.375.21-.48.115-.105.275-.155.485-.155.205 0 .36.045.465.135.095.09.145.22.145.395 0 .175-.055.31-.16.4-.11.09-.27.135-.48.135h-.25v.44h.25c.23 0 .405.045.525.145.12.095.185.245.185.45 0 .17-.06.31-.175.425-.13.125-.31.19-.535.19a.704.704 0 0 1-.495-.175c-.14-.125-.21-.305-.22-.535h-.595c.03.4.17.71.42.92.225.19.525.285.895.285Z" stroke-width=".2" fill="currentColor" fill-rule="nonzero"/><path stroke-width=".8" stroke-linecap="round" stroke-linejoin="round" d="M5.923 10.014h3"/></g></svg>
