<svg width="16" height="16" xmlns="http://www.w3.org/2000/svg"><g fill="none" fill-rule="evenodd" stroke="currentColor"><path stroke-linejoin="round" d="M1.5 2.5h13v11h-13z"/><path d="m7.582 10.318.266-.386c-.34-.23-.63-.555-.88-.97.27-.575.42-1.27.45-2.084h.29v-.455h-1.27c.04-.205.07-.42.1-.65l-.466-.08c-.1.93-.29 1.67-.57 2.22l.3.37c.09-.15.17-.32.25-.5.126.434.276.824.446 1.17a2.78 2.78 0 0 1-.886.965l.245.395c.35-.25.646-.56.88-.926.24.386.52.695.845.93Zm-4.135-2.25c.385-.27.66-.585.825-.946v.846h.435v-.56c.155.1.34.24.56.414l.25-.375a9.815 9.815 0 0 0-.81-.385v-.025h.87v-.415h-.87v-.92h-.434v.92h-.945v.415h.63c-.15.23-.396.446-.746.646l.235.385Zm1.726-1.515c.154-.205.28-.415.38-.625l-.335-.16c-.09.2-.215.405-.375.615l.33.17Zm-1.44-.016.34-.154c-.086-.22-.18-.42-.29-.61l-.375.125c.115.184.224.4.325.64Zm2.98 1.93a6.755 6.755 0 0 1-.43-1.365c.02-.07.04-.145.06-.224h.644c-.02.6-.11 1.13-.274 1.59Zm-3.29 1.83c.494-.13.91-.3 1.24-.514.274.125.51.245.704.365l.255-.37c-.19-.1-.39-.2-.595-.29.23-.23.39-.495.48-.795v-.386h-1.02c.03-.08.056-.155.085-.235l-.444-.054c-.03.09-.066.19-.106.29h-.705v.405h.525c-.095.19-.204.385-.325.595.23.09.45.175.656.26-.27.14-.595.25-.97.34l.22.39Zm1.17-.99a7.678 7.678 0 0 0-.51-.19c.08-.13.154-.265.224-.405h.775c-.11.22-.27.42-.49.595Zm3.84-.26a7.97 7.97 0 0 0 1.6-.415v-.434c-.34.13-.67.23-1 .31.3-.365.67-.94 1.104-1.72l-.43-.16c-.11.2-.21.385-.31.564-.19.03-.385.055-.575.075.26-.36.516-.83.766-1.41l-.45-.175c-.2.53-.43 1.005-.7 1.435-.06.09-.13.15-.206.18l.12.44.79-.104c-.25.394-.454.674-.62.84a.84.84 0 0 1-.215.14l.125.434Zm4.364 1.09v-.46h-.4v-3.76h-2.11v3.76h-.41v.46h2.92Zm-.865-2.985h-1.18v-.78h1.18v.78Zm0 1.266h-1.18v-.82h1.18v.82Zm0 1.26h-1.18v-.81h1.18v.81Zm-3.575.424a7.555 7.555 0 0 0 1.636-.56v-.45a7.432 7.432 0 0 1-1.696.535l.06.475Z" stroke-width=".1" fill="currentColor" fill-rule="nonzero"/></g></svg>
