<svg width="16" height="16" xmlns="http://www.w3.org/2000/svg"><g fill="none" fill-rule="evenodd" stroke="currentColor"><path stroke-linejoin="round" d="M1.5 3h13v11h-13z"/><path stroke-linecap="round" stroke-linejoin="round" d="M5 2v2m6-2v2M1.5 6.002h13"/><path d="M8.607 12.35v-1.065h1.67v-.51h-1.67V9.85h1.346v-.49H8.607v-.645h1.52V8.21H7.111c.056-.14.106-.29.15-.45l-.54-.1a2.682 2.682 0 0 1-1 1.49l.35.445c.316-.24.58-.53.79-.88h1.22v.645h-1.48v1.415h-.77v.51h2.25v1.065h.525Zm-.524-1.575h-.955V9.85h.954v.925Z" stroke-width=".1" fill="currentColor" fill-rule="nonzero"/></g></svg>
