<svg class="icon" viewBox="0 0 1024 1024" xmlns="http://www.w3.org/2000/svg" width="16" height="16"><path d="M793.6 960H230.4C140.8 960 64 883.2 64 793.6V230.4C64 140.8 140.8 64 230.4 64h563.2C883.2 64 960 140.8 960 230.4v563.2c0 89.6-76.8 166.4-166.4 166.4zm108.8-729.6c0-64-51.2-115.2-115.2-115.2H230.4c-64 0-115.2 51.2-115.2 115.2v563.2c0 64 51.2 115.2 115.2 115.2h563.2c64 0 115.2-51.2 115.2-115.2V230.4zM403.2 793.6h390.4v57.6H403.2v-57.6zM512 678.4V736H288v-19.2L268.8 736l-38.4-38.4 467.2-467.2 38.4 38.4-409.6 409.6H512z" fill="currentColor"/></svg>
