<svg width="16" height="16" xmlns="http://www.w3.org/2000/svg"><g fill="none" fill-rule="evenodd" stroke="currentColor"><path stroke-linejoin="round" d="M1.5 3h13v11h-13z"/><path stroke-linecap="round" stroke-linejoin="round" d="M5 2v2m6-2v2M1.5 6.002h13"/><path d="M5.987 10.16c.83-.32 1.405-.705 1.736-1.15h.005v.7h.53v-.7h.02c.35.46.944.835 1.78 1.12l.235-.49c-.66-.155-1.16-.365-1.49-.63h1.354v-.48h-1.9v-.255c.556-.04 1.046-.095 1.47-.17L9.492 7.7c-.9.13-1.995.195-3.285.195l.146.44c.49 0 .945-.01 1.375-.03v.225h-1.9v.48h1.334c-.295.255-.78.49-1.455.7l.28.45Zm1.816 2.14c.375 0 .564-.165.564-.485v-.43h1.69v-.475h-1.69v-.04c.315-.17.6-.34.86-.515V9.9h-2.59v.455h1.896c-.175.09-.405.195-.69.325v.23h-1.92v.475h1.92v.26c0 .13-.075.2-.215.2-.196 0-.375-.005-.546-.005l.136.46h.585Z" stroke-width=".1" fill="currentColor" fill-rule="nonzero"/></g></svg>
