<?xml version="1.0" encoding="UTF-8"?>
<svg width="217px" height="217px" viewBox="0 0 217 217" version="1.1" xmlns="http://www.w3.org/2000/svg" xmlns:xlink="http://www.w3.org/1999/xlink">
    <title>filterUp</title>
    <g id="Page-1" stroke="none" stroke-width="1" fill="none" fill-rule="evenodd">
        <g id="filterUp" transform="translate(2, 2)">
            <rect id="Rectangle" stroke="#717171" stroke-width="4" fill="#FFFFFF" x="0" y="0" width="213" height="213"></rect>
            <path d="M191.487604,49.3238637 C192.452114,51.6534092 192.054963,53.6420455 190.29615,55.2897728 L148.339943,97.3068182 L148.339943,160.545454 C148.339943,162.931818 147.233592,164.607954 145.020892,165.573864 C144.283325,165.857955 143.574126,166 142.893295,166 C141.361426,166 140.084867,165.460227 139.063621,164.380682 L117.277031,142.5625 C116.199048,141.482955 115.660057,140.204545 115.660057,138.727273 L115.660057,97.3068182 L73.7038504,55.2897728 C71.9450371,53.6420455 71.5478857,51.6534092 72.5123962,49.3238637 C73.4769068,47.1079547 75.1506161,46 77.5335243,46 L186.466476,46 C188.849384,46 190.523093,47.1079546 191.487604,49.3238637 Z" id="Path" fill="#717171" fill-rule="nonzero"></path>
            <polygon id="up_arrow" fill="#717171" fill-rule="nonzero" points="42.4971879 82.9240649 42.4971879 173 57.5028121 173 57.5028121 82.9240649 80 82.9240649 50 53 20 82.9240649"></polygon>
        </g>
    </g>
</svg>