<svg width="217" height="217" xmlns="http://www.w3.org/2000/svg"><g fill="none" fill-rule="evenodd"><path stroke="#717171" stroke-width="4" fill="#FFF" d="M2 2h213v213H2z"/><path d="M193.488 51.324c.964 2.33.567 4.318-1.192 5.966L150.34 99.307v63.238c0 2.387-1.106 4.063-3.32 5.029-.737.284-1.446.426-2.127.426-1.532 0-2.808-.54-3.83-1.62l-21.786-21.817c-1.078-1.08-1.617-2.358-1.617-3.836v-41.42L75.704 57.29c-1.759-1.648-2.156-3.637-1.192-5.966.965-2.216 2.639-3.324 5.022-3.324h108.932c2.383 0 4.057 1.108 5.022 3.324Zm-148.991 33.6V175h15.006V84.924H82L52 55 22 84.924z" fill="#717171" fill-rule="nonzero"/></g></svg>
