<?xml version="1.0" encoding="UTF-8"?>
<svg width="217px" height="217px" viewBox="0 0 217 217" version="1.1" xmlns="http://www.w3.org/2000/svg" xmlns:xlink="http://www.w3.org/1999/xlink">
    <title>filterDown</title>
    <g id="Page-1" stroke="none" stroke-width="1" fill="none" fill-rule="evenodd">
        <g id="filterDown" transform="translate(2, 2)">
            <rect id="Rectangle" stroke="#717171" stroke-width="4" fill="#FFFFFF" x="0" y="0" width="213" height="213"></rect>
            <path d="M192.487604,49.3238637 C193.452114,51.6534092 193.054963,53.6420455 191.29615,55.2897728 L149.339943,97.3068182 L149.339943,160.545454 C149.339943,162.931818 148.233592,164.607954 146.020892,165.573864 C145.283325,165.857955 144.574126,166 143.893295,166 C142.361426,166 141.084867,165.460227 140.063621,164.380682 L118.277031,142.5625 C117.199048,141.482955 116.660057,140.204545 116.660057,138.727273 L116.660057,97.3068182 L74.7038504,55.2897728 C72.9450371,53.6420455 72.5478857,51.6534092 73.5123962,49.3238637 C74.4769068,47.1079547 76.1506161,46 78.5335243,46 L187.466476,46 C189.849384,46 191.523093,47.1079546 192.487604,49.3238637 Z" id="Path" fill="#717171" fill-rule="nonzero"></path>
            <polygon id="down_arrow" fill="#717171" fill-rule="nonzero" transform="translate(50, 113) rotate(180) translate(-50, -113)" points="42.4971879 82.9240649 42.4971879 173 57.5028121 173 57.5028121 82.9240649 80 82.9240649 50 53 20 82.9240649"></polygon>
        </g>
    </g>
</svg>