<?xml version="1.0" encoding="UTF-8"?>
<svg width="217px" height="217px" viewBox="0 0 217 217" version="1.1" xmlns="http://www.w3.org/2000/svg" xmlns:xlink="http://www.w3.org/1999/xlink">
    <title>hasFilter</title>
    <g id="Page-1" stroke="none" stroke-width="1" fill="none" fill-rule="evenodd">
        <g id="hasFilter" transform="translate(2, 2)">
            <rect id="Rectangle" stroke="#717171" stroke-width="4" fill="#FFFFFF" x="0" y="0" width="213" height="213"></rect>
            <path d="M185.487604,49.3238637 C186.452114,51.6534092 186.054963,53.6420455 184.29615,55.2897728 L142.339943,97.3068182 L142.339943,160.545454 C142.339943,162.931818 141.233592,164.607954 139.020892,165.573864 C138.283325,165.857955 137.574126,166 136.893295,166 C135.361426,166 134.084867,165.460227 133.063621,164.380682 L111.277031,142.5625 C110.199048,141.482955 109.660057,140.204545 109.660057,138.727273 L109.660057,97.3068182 L67.7038504,55.2897728 C65.9450371,53.6420455 65.5478857,51.6534092 66.5123962,49.3238637 C67.4769068,47.1079547 69.1506161,46 71.5335243,46 L180.466476,46 C182.849384,46 184.523093,47.1079546 185.487604,49.3238637 Z" id="Path" fill="#717171" fill-rule="nonzero"></path>
            <polygon id="Path" fill="#717171" fill-rule="nonzero" points="80 126 53.5 166 27 126"></polygon>
        </g>
    </g>
</svg>