<?xml version="1.0" encoding="UTF-8"?>
<svg width="323.854906px" height="323.854906px" viewBox="0 0 323.854906 323.854906" version="1.1" xmlns="http://www.w3.org/2000/svg" xmlns:xlink="http://www.w3.org/1999/xlink">
    <title>plus</title>
    <g id="Page-1" stroke="none" stroke-width="1" fill="none" fill-rule="evenodd">
        <g id="plus" transform="translate(161.9275, 161.9275) rotate(45) translate(-161.9275, -161.9275)translate(47.4275, 47.4275)" fill="#717171" fill-rule="nonzero">
            <path d="M5.94750569,5.94752344 C9.99382822,2.01749219 16.4317421,2.01749219 20.4780646,5.94752344 L223.051151,208.52183 C226.98295,212.453652 226.98295,218.949706 223.051151,223.052477 C219.004829,226.982508 212.566915,226.982508 208.520592,223.052477 L5.94750569,20.4781699 C2.0174981,16.431823 2.0174981,9.99387034 5.94750569,5.94752344 Z" id="Path"></path>
            <path d="M226.057525,2.94115239 C229.980825,6.86447578 229.980825,13.3464883 226.057525,17.440391 L17.4402889,226.058848 C13.4027118,229.980384 6.97871231,229.980384 2.94113518,226.058848 C-0.980378394,222.021247 -0.980378394,215.59721 2.94113518,211.559609 L211.558371,2.94115239 C215.595948,-0.980384132 222.019948,-0.980384132 226.057525,2.94115239 Z" id="Path"></path>
        </g>
    </g>
</svg>