<?xml version="1.0" encoding="UTF-8"?>
<svg t="1614838454815" class="icon" viewBox="0 0 1024 1024" version="1.1" xmlns="http://www.w3.org/2000/svg" p-id="12115" xmlns:xlink="http://www.w3.org/1999/xlink" width="16" height="16">
<path d="M904 1024H120c-66.168 0-120-53.832-120-120V120C0 53.832 53.832 0 120 0h784c66.168 0 120 53.832 120 120v784c0 66.168-53.832 120-120 120zM120 4C56.038 4 4 56.038 4 120v784c0 63.962 52.038 116 116 116h784c63.962 0 116-52.038 116-116V120c0-63.962-52.038-116-116-116H120z" fill="currentColor" p-id="12116"></path>
<path d="M402 832h-130c-44.112 0-80-35.888-80-80V272c0-44.112 35.888-80 80-80h130c44.112 0 80 35.888 80 80v480c0 44.112-35.888 80-80 80z m-130-580c-11.028 0-20 8.972-20 20v480c0 11.028 8.972 20 20 20h130c11.028 0 20-8.972 20-20V272c0-11.028-8.972-20-20-20h-130z" fill="currentColor" p-id="12117"></path>
<path d="M752 482h-130c-44.112 0-80-35.888-80-80v-130c0-44.112 35.888-80 80-80h130c44.112 0 80 35.888 80 80v130c0 44.112-35.888 80-80 80z m-130-230c-11.028 0-20 8.972-20 20v130c0 11.028 8.972 20 20 20h130c11.028 0 20-8.972 20-20v-130c0-11.028-8.972-20-20-20h-130z" fill="currentColor" p-id="12118"></path>
<path d="M752 832h-130c-44.112 0-80-35.888-80-80v-130c0-44.112 35.888-80 80-80h130c44.112 0 80 35.888 80 80v130c0 44.112-35.888 80-80 80z m-130-230c-11.028 0-20 8.972-20 20v130c0 11.028 8.972 20 20 20h130c11.028 0 20-8.972 20-20v-130c0-11.028-8.972-20-20-20h-130z" fill="#205dd9" p-id="12119"></path></svg>