<svg width="284" height="89" xmlns="http://www.w3.org/2000/svg"><path d="M38.3 3.31C40.36 2.23 42.51.84 44.93.97c2.99.51 5.53 2.29 8.13 3.73-11.43 6.86-23.17 13.21-34.46 20.31 2.76 1.72 5.55 3.38 8.36 5.01 11.68-6.7 23.19-13.67 34.97-20.19 5.76 3.32 22.71 13.44 25.18 15.5-14.38 8.08-28.53 16.58-42.92 24.66-2.65-1.64-5.31-3.29-7.93-4.99 10.77-6.96 22.3-12.67 33.18-19.42 0-.29-.02-.88-.03-1.17-2.28-1.83-4.93-3.13-7.45-4.58C50.19 26.34 38.67 33.28 27 39.96c-5.71-3.16-11.23-6.67-17.17-9.4-.11 3.17-.18 6.34-.23 9.5 8.35 4.78 16.68 9.57 25.03 14.35 3.14 1.74 6.07 3.94 9.47 5.18 1.61-.33 3.07-1.14 4.5-1.92 12.99-7.65 26.15-15.02 39.19-22.59-.11 7.33-.13 14.65-.01 21.97-.07 2.6.13 5.34-.87 7.81-1.17 1.56-2.92 2.53-4.55 3.54-10.4 5.92-20.85 11.75-31.12 17.88-2 1.11-4.03 2.31-6.32 2.71-2.41.15-4.57-1.21-6.63-2.28C27.78 80.5 17.17 74.46 6.53 68.46c-1.78-1.14-3.84-2.15-4.94-4.04-.86-3.04-.54-6.24-.59-9.36 14.34 8.46 28.81 16.69 43.16 25.12 11.86-6.45 23.39-13.48 35.13-20.15-.04-3.33-.08-6.65-.13-9.98-11.62 6.66-23.2 13.39-34.92 19.88-14.37-8.35-28.85-16.52-43.23-24.86.01-5.05-.25-10.1-.02-15.14.19-2.07.16-4.57 1.99-5.95 3.01-2.49 6.6-4.1 9.95-6.06C21.4 13.08 29.9 8.27 38.3 3.31Zm83.54 66.53c12.6 0 17.472-6.552 17.472-15.624V40.104c0-10.92-6.048-16.884-17.472-16.884-10.08 0-15.456 5.376-15.456 9.492v3.696h.42c2.604-3.612 7.56-6.132 14.28-6.132 7.308 0 10.584 2.688 10.584 9.24v2.1h-6.048c-13.44 0-20.916 5.292-20.916 14.952 0 7.98 7.98 13.272 17.136 13.272Zm.336-7.056c-5.796 0-9.66-3.108-9.66-7.056 0-4.956 4.116-7.728 13.104-7.728h6.132v5.628c0 6.468-2.772 9.156-9.576 9.156ZM158.464 69V43.548c0-9.156 3.444-13.104 10.08-13.104 6.468 0 10.08 4.956 10.08 13.104v19.824c0 3.612 1.428 5.628 5.124 5.628h2.604V43.296c0-9.072 3.108-12.852 10.5-12.852 6.132 0 9.66 3.696 9.66 13.104v19.824c0 3.612 2.1 5.628 5.04 5.628h2.688V43.296c0-13.356-5.964-20.076-17.136-20.076-5.88 0-11.172 3.276-14.112 8.148-2.772-5.208-7.308-8.148-13.944-8.148-11.76 0-18.312 8.988-18.312 19.32v20.832c0 3.78 2.1 5.628 5.292 5.628h2.436Zm73.08-51.156c2.856 0 5.124-2.352 5.124-5.208 0-2.856-2.268-5.292-5.124-5.292s-5.208 2.436-5.208 5.292 2.352 5.208 5.208 5.208Zm9.408 51.576c2.688 0 4.452-1.68 4.452-4.536v-2.52h-3.276c-4.2 0-6.972-1.764-6.972-7.392V30.024c0-3.948-2.688-5.964-5.292-5.964h-2.352v32.004c0 8.988 4.62 13.356 13.44 13.356Zm24.612.42c10.248 0 17.556-5.04 17.556-14.448 0-6.216-4.368-10.332-13.272-12.264-9.324-2.016-11.004-3.276-11.004-6.3 0-3.78 3.024-6.384 10.668-6.384 5.292 0 10.164 2.268 12.096 4.62h.42v-3.36c0-5.46-6.468-8.484-13.104-8.484-11.172 0-17.808 6.804-17.808 14.112 0 6.72 3.948 9.576 12.348 11.34 10.248 2.184 11.844 3.78 11.844 7.476 0 4.452-2.94 6.552-9.576 6.552-5.796 0-10.836-2.268-13.356-5.04h-.42v3.276c0 5.376 6.048 8.904 13.608 8.904Z" fill="#2468f2"/></svg>
