<svg viewBox="0 0 1024 1024" version="1.1" xmlns="http://www.w3.org/2000/svg" p-id="2778" ><path d="M173.320441 64.959477l0 17.833157 0 855.984379 0 17.833157 17.833157 0 641.98854 0 17.833157 0 0-17.833157L850.975295 332.454788l0-7.245008-5.015224-5.572926L596.296895 69.975724l-5.572926-5.015224-7.245008 0L191.153598 64.960501 173.320441 64.960501zM208.986755 100.625792l356.660072 0L565.646827 332.454788l0 17.833157 17.833157 0 231.828996 0 0 570.655911L208.986755 920.943856 208.986755 100.625792zM601.312118 126.260635l188.360995 188.360995L601.312118 314.621631 601.312118 126.260635zM367.287107 467.88527c23.945365 0 42.979884 11.665691 54.952566 24.866341l-14.429641 16.270569c-10.744715-11.358699-23.638373-18.726503-40.215934-18.726503-38.375006 0-63.85533 31.314193-63.85533 81.353866 0 50.653657 24.252357 82.581834 62.627363 82.581834 19.033495 0 33.155121-7.982812 46.048779-22.410406l14.429641 15.656585c-15.656585 18.419512-35.612079 29.164227-61.092403 29.164227-50.653657 0-88.413656-38.680974-88.413656-104.378256C277.337469 507.48722 315.712475 467.88527 367.287107 467.88527zM456.316793 629.058043c14.429641 15.042601 34.384112 25.174356 55.56655 25.174356 26.402323 0 42.058908-13.20065 42.058908-32.849152 0-20.569478-14.735609-27.015284-33.769105-35.612079l-28.858258-12.586666c-18.726503-7.982812-40.829917-22.410406-40.829917-51.882648 0-30.699186 27.015284-53.416584 63.548338-53.416584 23.945365 0 45.128827 10.130731 59.250452 24.866341l-13.507642 16.57756c-12.279674-11.665691-27.322275-19.033495-45.74281-19.033495-22.717398 0-37.759999 11.358699-37.759999 29.471219 0 19.340487 17.805528 26.708292 33.463136 33.463136l28.857235 12.279674c23.331381 10.129708 41.443901 23.945365 41.443901 53.723575 0 31.928177-26.4013 57.408501-68.766177 57.408501-28.244274 0-52.803623-11.664667-70.302159-29.77821L456.316793 629.058043zM614.416578 629.058043c14.429641 15.042601 34.384112 25.174356 55.56655 25.174356 26.402323 0 42.058908-13.20065 42.058908-32.849152 0-20.569478-14.735609-27.015284-33.769105-35.612079l-28.858258-12.586666c-18.726503-7.982812-40.829917-22.410406-40.829917-51.882648 0-30.699186 27.015284-53.416584 63.548338-53.416584 23.945365 0 45.128827 10.130731 59.250452 24.866341l-13.507642 16.57756c-12.279674-11.665691-27.322275-19.033495-45.74281-19.033495-22.717398 0-37.759999 11.358699-37.759999 29.471219 0 19.340487 17.805528 26.708292 33.463136 33.463136l28.857235 12.279674c23.331381 10.129708 41.443901 23.945365 41.443901 53.723575 0 31.928177-26.4013 57.408501-68.766177 57.408501-28.244274 0-52.803623-11.664667-70.302159-29.77821L614.416578 629.058043z" fill="currentColor"></path></svg>