<svg viewBox="0 0 1024 1024" xmlns="http://www.w3.org/2000/svg"><path d="M173.32 64.96v891.65h677.655v-631.4l-5.015-5.573L596.297 69.976l-5.573-5.015H173.32zm35.667 35.666h356.66v249.662h249.662v570.656H208.987V100.626zm392.325 25.635 188.361 188.36h-188.36v-188.36zM367.287 467.885c23.945 0 42.98 11.666 54.953 24.867l-14.43 16.27c-10.745-11.359-23.638-18.726-40.216-18.726-38.375 0-63.855 31.314-63.855 81.354 0 50.653 24.252 82.581 62.627 82.581 19.034 0 33.155-7.982 46.049-22.41l14.43 15.657c-15.657 18.42-35.613 29.164-61.093 29.164-50.654 0-88.414-38.681-88.414-104.378 0-64.777 38.374-104.379 89.95-104.379zm89.03 161.173c14.43 15.043 34.384 25.174 55.566 25.174 26.403 0 42.06-13.2 42.06-32.849 0-20.57-14.736-27.015-33.77-35.612l-28.858-12.586c-18.727-7.983-40.83-22.41-40.83-51.883 0-30.7 27.015-53.417 63.548-53.417 23.946 0 45.13 10.131 59.25 24.867l-13.507 16.577c-12.28-11.666-27.322-19.033-45.743-19.033-22.717 0-37.76 11.358-37.76 29.47 0 19.341 17.806 26.71 33.463 33.464l28.858 12.28c23.331 10.13 41.444 23.945 41.444 53.723 0 31.928-26.402 57.409-68.767 57.409-28.244 0-52.803-11.665-70.302-29.778l15.348-17.806zm158.1 0c14.43 15.043 34.384 25.174 55.566 25.174 26.402 0 42.059-13.2 42.059-32.849 0-20.57-14.736-27.015-33.77-35.612l-28.857-12.586c-18.727-7.983-40.83-22.41-40.83-51.883 0-30.7 27.015-53.417 63.548-53.417 23.945 0 45.129 10.131 59.25 24.867l-13.507 16.577c-12.28-11.666-27.322-19.033-45.743-19.033-22.717 0-37.76 11.358-37.76 29.47 0 19.341 17.806 26.71 33.463 33.464l28.857 12.28c23.332 10.13 41.444 23.945 41.444 53.723 0 31.928-26.4 57.409-68.766 57.409-28.244 0-52.803-11.665-70.302-29.778l15.348-17.806z" fill="currentColor"/></svg>
