<svg width="16" height="16" viewBox="0 0 16 16" fill="none" xmlns="http://www.w3.org/2000/svg" class=""><path d="M3 6.5C2.17157 6.5 1.5 7.17157 1.5 8C1.5 8.82843 2.17157 9.5 3 9.5C3.82843 9.5 4.5 8.82843 4.5 8C4.5 7.17157 3.82843 6.5 3 6.5Z" fill="currentColor"></path><path d="M6.5 8C6.5 7.17157 7.17157 6.5 8 6.5C8.82843 6.5 9.5 7.17157 9.5 8C9.5 8.82843 8.82843 9.5 8 9.5C7.17157 9.5 6.5 8.82843 6.5 8Z" fill="currentColor"></path><path d="M13 6.5C12.1716 6.5 11.5 7.17157 11.5 8C11.5 8.82843 12.1716 9.5 13 9.5C13.8284 9.5 14.5 8.82843 14.5 8C14.5 7.17157 13.8284 6.5 13 6.5Z" fill="currentColor"></path></svg>
