<svg viewBox="0 0 16 16" xmlns="http://www.w3.org/2000/svg"><g fill="none" fill-rule="evenodd"><path d="M0 0h16v16H0z"/><path d="M9.897 1.429c.865-.554 1.646-.489 2.328-.412.286.032.918.09.853.712-.052.497-.785.437-.98.446-1.128.05-1.83-.573-2.52 1.933L9.01 6.66l.887-.007c.3 0 .544.24.544.537a.54.54 0 0 1-.544.538l-1.118.008-1.545 6.16S7.092 15.043 6.38 15a.771.771 0 0 1-.08-.01l.069-.02a.467.467 0 0 1-.167.031H4.97a.467.467 0 0 1-.467-.467v-.032c0-.242.183-.444.423-.466a7.96 7.96 0 0 0 .992-.152.71.71 0 0 1 .02-.082l1.533-6.065H6.263a.535.535 0 0 1-.533-.492c.024-.503.25-.584.533-.584h1.442l.586-2.584c.241-1.136.74-2.091 1.606-2.647Zm4.885 4.449c.137.09.208.192.217.309a.502.502 0 0 1-.115.343l-1.61 2.108 1.589 2.63c.05.078.062.173.033.276-.024.105-.137.179-.286.275a.452.452 0 0 1-.4.06.52.52 0 0 1-.258-.23l-1.34-2.14-1.626 2.13c-.195.254-.415.291-.666.112-.103-.074-.292-.345-.314-.467-.022-.122.018-.25.122-.386l1.798-2.362-1.31-2.092a.397.397 0 0 1-.017-.335c.041-.127.138-.202.241-.276a.556.556 0 0 1 .386-.095c.102.008.194.078.278.207l1.09 1.713 1.317-1.733a.694.694 0 0 1 .368-.25c.124-.042.369.113.503.203Z" fill="currentColor" fill-rule="nonzero"/><rect fill="currentColor" x=".898" y="6.66" width="4.5" height="1" rx=".5"/><rect fill="currentColor" transform="rotate(90 3.148 7.16)" x=".898" y="6.66" width="4.5" height="1" rx=".5"/></g></svg>
