<svg t="1733468970444" class="icon" viewBox="0 0 1024 1024" version="1.1" xmlns="http://www.w3.org/2000/svg" p-id="15521" width="200" height="200"><path d="M709.76 704.170667c37.077333-3.2 65.834667-35.84 63.957333-74.837334-1.962667-38.997333-33.92-70.314667-72.874666-70.314666h-2.602667a72.96 72.96 0 0 0-70.314667 75.477333c1.28 20.437333 9.642667 37.077333 21.077334 49.194667-44.714667 86.954667-111.829333 150.869333-213.504 204.586666-68.394667 35.754667-140.629333 49.237333-210.944 39.637334-58.794667-8.277333-104.789333-34.56-132.949334-76.714667-42.154667-63.957333-45.994667-132.949333-10.88-201.984 25.642667-49.877333 63.957333-86.314667 89.557334-104.234667a424.96 424.96 0 0 1-17.92-65.792C-36.906667 614.741333-17.664 800.085333 39.850667 887.68c42.837333 63.914667 130.432 104.789333 226.304 104.789333 25.557333 0 52.437333-1.877333 78.634666-8.277333 166.229333-31.957333 292.138667-131.669333 364.373334-278.698667l0.597333-1.322666z m228.181333-159.829334c-99.029333-116.352-244.821333-180.266667-411.050666-180.266666h-21.76c-10.794667-23.637333-35.712-38.357333-63.872-38.357334h-1.92c-40.234667 0-71.594667 34.56-70.272 74.794667 1.28 38.314667 33.877333 70.314667 72.874666 70.314667h3.157334a72.106667 72.106667 0 0 0 63.914666-44.757334h23.68c98.517333 0 191.786667 28.757333 276.821334 84.992 65.152 42.837333 111.872 99.072 138.069333 166.229334 22.954667 54.954667 21.717333 108.672-1.92 153.472-36.437333 70.272-97.834667 107.392-178.986667 107.392-51.157333 0-100.992-16-126.592-27.477334-15.317333 12.714667-40.917333 33.834667-59.477333 46.634667 56.234667 25.514667 113.152 40.234667 168.106667 40.234667 124.672 0 217.301333-70.272 252.501333-138.069334 38.314667-76.714667 35.157333-205.824-62.677333-316.416l-0.597334 1.28zM276.992 727.125333a73.557333 73.557333 0 0 0 72.874667 70.314667h2.56a72.021333 72.021333 0 0 0 70.314666-75.434667c0-38.357333-33.237333-70.272-72.234666-70.272h-2.602667c-2.56 0-6.357333 0-9.6 1.237334-53.034667-89.514667-75.434667-185.429333-67.072-288.896 5.077333-77.994667 30.677333-145.792 76.672-202.026667 38.357333-47.957333 110.592-71.637333 159.829333-72.874667 138.069333-2.602667 195.626667 169.429333 200.064 237.824l63.914667 19.157334c-14.72-209.664-145.066667-319.658667-269.738667-319.658667-116.992 0-224.981333 85.034667-268.501333 209.706667-59.434667 166.229333-20.437333 326.016 52.437333 453.888-6.357333 8.32-10.197333 22.997333-8.917333 37.034666z"></path></svg>