<svg viewBox="0 0 16 16" xmlns="http://www.w3.org/2000/svg"><path d="M11.7 8c.11 0 .2.09.2.2v.933c.57.096 1.071.392 1.43.813l.859-.496a.2.2 0 0 1 .233.024l.04.05.2.346a.2.2 0 0 1-.023.233l-.05.04-.85.49a2.394 2.394 0 0 1 .042 1.617l.868.5a.2.2 0 0 1 .073.274l-.2.346a.2.2 0 0 1-.273.073l-.842-.485a2.399 2.399 0 0 1-1.507.909v.934a.2.2 0 0 1-.2.2h-.4a.2.2 0 0 1-.2-.2l-.001-.934a2.398 2.398 0 0 1-1.468-.86l-.758.436a.2.2 0 0 1-.232-.023l-.04-.05-.2-.346a.2.2 0 0 1 .023-.233l.05-.04.765-.443a2.396 2.396 0 0 1 .045-1.731l-.75-.434a.2.2 0 0 1-.074-.273l.2-.346a.2.2 0 0 1 .273-.074l.779.45c.354-.397.84-.674 1.387-.767l.001-.932c0-.11.09-.2.2-.2h.4Zm.8-6.9a2.4 2.4 0 0 1 2.394 2.236l.006.164v4.332a.2.2 0 0 1-.2.2h-.4a.2.2 0 0 1-.2-.2V4.9H1.899l.001 7.6a1.6 1.6 0 0 0 1.454 1.593l.146.007h4.304c.11 0 .2.09.2.2v.4a.2.2 0 0 1-.2.2H3.5a2.4 2.4 0 0 1-2.394-2.236L1.1 12.5v-9a2.4 2.4 0 0 1 2.236-2.394L3.5 1.1h9Zm-1.442 8.862.027-.008-.034.01-.028.008-.017.005-.011.003-.05.019a1.591 1.591 0 0 0-.502.3l-.016.014c-.16.144-.29.32-.38.517l-.061.151-.032.105.002-.011-.005.019.003-.008-.006.021-.001.007-.013.057a1.599 1.599 0 0 0-.026.168l-.001.015-.007.146a1.616 1.616 0 0 0 .036.337l.014.06c.055.215.152.411.283.58l.104.122.032.032.036.036-.068-.068a1.61 1.61 0 0 0 .296.246l.057.035c.125.074.261.13.405.168l.004.001.113.025a1.61 1.61 0 0 0 .576 0l.112-.024a1.594 1.594 0 0 0 .67-.36l.04-.038c.188-.18.331-.407.413-.66l.042-.156a1.5 1.5 0 0 0 .028-.19l.007-.146-.008-.146.004.035a1.61 1.61 0 0 0-.003-.04l-.007-.065a1.59 1.59 0 0 0-.047-.225l-.006-.017a1.598 1.598 0 0 0-.407-.679l-.056-.05-.04-.036-.008-.007-.053-.044a1.605 1.605 0 0 0-.224-.142l-.044-.022a1.592 1.592 0 0 0-.117-.052L12.06 10a1.485 1.485 0 0 0-.148-.047L11.9 9.95a1.603 1.603 0 0 0-.67-.027l-.13.028-.017.004-.025.007-.014.004-.008.002-.014.005-.01.002-.01.003.004-.001.006-.002.011-.003.013-.004.008-.002.014-.004ZM12.5 1.9h-9a1.6 1.6 0 0 0-1.593 1.454L1.9 3.5l-.001.6H14.1v-.6a1.6 1.6 0 0 0-1.454-1.593L12.5 1.9Zm-8.51.7a.2.2 0 0 1 .2.2v.4a.2.2 0 0 1-.2.2H3.4a.2.2 0 0 1-.2-.2v-.4c0-.11.09-.2.2-.2h.59Zm1.8 0a.2.2 0 0 1 .2.2v.4a.2.2 0 0 1-.2.2H5.2a.2.2 0 0 1-.2-.2v-.4c0-.11.09-.2.2-.2h.59Z" fill="currentColor"/></svg>
