<?xml version="1.0" encoding="UTF-8"?>
<svg viewBox="0 0 172 172" version="1.1" xmlns="http://www.w3.org/2000/svg" xmlns:xlink="http://www.w3.org/1999/xlink">
	<g id="info-circle" transform="translate(0.257812, 0.257812)" fill="currentColor" fill-rule="nonzero">
		<path d="M114.313616,139.313616 L114.313616,121.456473 C114.313616,120.414807 113.978795,119.559152 113.309152,118.889509 C112.639509,118.219866 111.783854,117.885045 110.742187,117.885045 L100.027902,117.885045 L100.027902,60.7421875 C100.027902,59.7005208 99.6930803,58.8448661 99.0234375,58.1752232 C98.3537947,57.5055804 97.4981399,57.170759 96.4564732,57.170759 L60.7421875,57.170759 C59.7005208,57.170759 58.8448661,57.5055804 58.1752232,58.1752232 C57.5055804,58.8448661 57.170759,59.7005208 57.170759,60.7421875 L57.170759,78.5993303 C57.170759,79.6409969 57.5055804,80.4966517 58.1752232,81.1662945 C58.8448661,81.8359374 59.7005208,82.170759 60.7421875,82.170759 L71.4564732,82.170759 L71.4564732,117.885045 L60.7421875,117.885045 C59.7005208,117.885045 58.8448661,118.219866 58.1752232,118.889509 C57.5055804,119.559152 57.170759,120.414806 57.170759,121.456473 L57.170759,139.313616 C57.170759,140.355282 57.5055804,141.210937 58.1752232,141.88058 C58.8448661,142.550223 59.7005208,142.885044 60.7421875,142.885044 L110.742187,142.885044 C111.783854,142.885044 112.639509,142.550223 113.309152,141.88058 C113.978795,141.210937 114.313616,140.355282 114.313616,139.313616 L114.313616,139.313616 Z M100.027902,39.313616 L100.027902,21.4564732 C100.027902,20.4148066 99.6930803,19.5591518 99.0234375,18.889509 C98.3537947,18.2198661 97.4981399,17.8850447 96.4564732,17.8850447 L75.0279018,17.8850447 C73.9862351,17.8850447 73.1305803,18.2198661 72.4609375,18.889509 C71.7912947,19.5591518 71.4564732,20.4148066 71.4564732,21.4564732 L71.4564732,39.313616 C71.4564732,40.3552827 71.7912947,41.2109374 72.4609375,41.8805803 C73.1305803,42.5502231 73.9862351,42.8850447 75.0279018,42.8850447 L96.4564732,42.8850447 C97.4981399,42.8850447 98.3537947,42.5502231 99.0234375,41.8805803 C99.6930803,41.2109374 100.027902,40.3552827 100.027902,39.313616 Z M171.456473,85.7421875 C171.456473,101.292783 167.624628,115.634301 159.960938,128.766741 C152.297247,141.899182 141.899182,152.297247 128.766741,159.960938 C115.634301,167.624628 101.292783,171.456473 85.7421875,171.456473 C70.1915923,171.456473 55.8500745,167.624628 42.717634,159.960938 C29.5851935,152.297247 19.187128,141.899182 11.5234375,128.766741 C3.85974701,115.634301 0.0279017578,101.292783 0.0279017578,85.7421875 C0.0279017578,70.1915923 3.85974701,55.8500745 11.5234375,42.717634 C19.187128,29.5851935 29.5851935,19.187128 42.717634,11.5234375 C55.8500745,3.85974701 70.1915923,0.0279017578 85.7421875,0.0279017578 C101.292783,0.0279017578 115.634301,3.85974701 128.766741,11.5234375 C141.899182,19.187128 152.297247,29.5851935 159.960938,42.717634 C167.624628,55.8500745 171.456473,70.1915923 171.456473,85.7421875 Z" id="形状">
		</path>
	</g>
</svg>
