<?xml version="1.0" encoding="UTF-8"?>
<svg viewBox="0 0 150 138" version="1.1" xmlns="http://www.w3.org/2000/svg" xmlns:xlink="http://www.w3.org/1999/xlink">
	<g id="warning" transform="translate(0.390625, 0.882812)" fill="currentColor" fill-rule="nonzero">
		<path d="M80.6802084,1.5963541 C82.7195697,2.72968791 84.4010413,4.41115959 85.534375,6.4505209 L147.626042,118.213021 C149.777654,122.085674 149.718692,126.807897 147.471057,130.62562 C145.223423,134.443344 141.122931,136.78617 136.692708,136.783856 L12.5260416,136.783856 C8.09656245,136.783856 3.99742458,134.441281 1.75080345,130.623824 C-0.495817677,126.806367 -0.554375449,122.085024 1.596875,118.213021 L63.684375,6.4505209 C67.0377886,0.417546946 74.64639,-1.7555398 80.6802084,1.5963541 Z M74.609375,12.5213541 L12.521875,124.283854 L136.692708,124.283854 L74.609375,12.5213541 Z M80.859375,99.2838541 L80.859375,111.783854 L68.359375,111.783854 L68.359375,99.2838541 L80.859375,99.2838541 Z M80.859375,45.2921875 L80.859375,90.9505209 L68.359375,90.9505209 L68.359375,45.2921875 L80.859375,45.2921875 Z" id="形状">
		</path>
	</g>
</svg>
