<?xml version="1.0" encoding="UTF-8"?>
<svg viewBox="0 0 187 187" version="1.1" xmlns="http://www.w3.org/2000/svg" xmlns:xlink="http://www.w3.org/1999/xlink">
	<g id="Zoom-In" fill="currentColor" fill-rule="nonzero">
		<path d="M45.4545455,90.9090908 L118.181818,90.9090908 L118.181818,72.7272727 L45.4545455,72.7272727 L45.4545455,90.9090908 Z M145.709091,132.854546 C157.32865,118.383803 163.653932,100.376636 163.636364,81.8181818 C163.636364,36.6272727 127.009091,0 81.8181818,0 C36.6272727,0 0,36.6272727 0,81.8181818 C0,127.009091 36.6272727,163.636364 81.8181818,163.636364 C101.136364,163.636364 118.854546,156.909091 132.854546,145.709091 L173.827273,186.681818 L186.681818,173.827273 L145.709091,132.854546 Z M81.8181818,145.454546 C46.6727886,145.454546 18.1818182,116.963575 18.1818182,81.8181818 C18.1818182,46.6727886 46.6727886,18.1818182 81.8181818,18.1818182 C116.963575,18.1818182 145.454546,46.6727886 145.454546,81.8181818 C145.454546,116.963575 116.963575,145.454546 81.8181818,145.454546 L81.8181818,145.454546 Z" id="形状">
		</path>
	</g>
</svg>
