<?xml version="1.0" encoding="UTF-8"?>
<svg width="16px" height="16px" viewBox="0 0 16 16" version="1.1" xmlns="http://www.w3.org/2000/svg" xmlns:xlink="http://www.w3.org/1999/xlink">
    <g id="json展示" stroke="none" stroke-width="1" fill="none" fill-rule="evenodd" stroke-linejoin="round">
        <circle id="椭圆形" stroke="currentColor" cx="5" cy="9.75" r="1"></circle>
        <circle id="椭圆形" stroke="currentColor" cx="8" cy="9.75" r="1"></circle>
        <circle id="椭圆形" stroke="currentColor" cx="11" cy="9.75" r="1"></circle>
        <path d="M1.5,8 C2.05228475,8 2.5,7.55228475 2.5,7 L2.5,3.5 C2.5,2.94771525 2.94771525,2.5 3.5,2.5 L3.5,2.5 L3.5,2.5" id="直线" stroke="currentColor" stroke-linecap="round"></path>
        <path d="M1.5,13.5 C2.05228475,13.5 2.5,13.0522847 2.5,12.5 L2.5,9 C2.5,8.44771525 2.94771525,8 3.5,8 L3.5,8 L3.5,8" id="直线" stroke="currentColor" stroke-linecap="round" transform="translate(2.500000, 10.750000) scale(1, -1) translate(-2.500000, -10.750000) "></path>
        <path d="M12.5,8 C13.0522847,8 13.5,7.55228475 13.5,7 L13.5,3.5 C13.5,2.94771525 13.9477153,2.5 14.5,2.5 L14.5,2.5 L14.5,2.5" id="直线" stroke="currentColor" stroke-linecap="round" transform="translate(13.500000, 5.250000) scale(-1, 1) translate(-13.500000, -5.250000) "></path>
        <path d="M12.5,13.5 C13.0522847,13.5 13.5,13.0522847 13.5,12.5 L13.5,9 C13.5,8.44771525 13.9477153,8 14.5,8 L14.5,8 L14.5,8" id="直线" stroke="currentColor" stroke-linecap="round" transform="translate(13.500000, 10.750000) scale(-1, -1) translate(-13.500000, -10.750000) "></path>
    </g>
</svg>