<?xml version="1.0" encoding="UTF-8"?>
<svg width="17px" height="17px" viewBox="0 0 17 17" version="1.1" xmlns="http://www.w3.org/2000/svg" xmlns:xlink="http://www.w3.org/1999/xlink">
    <g id="链接" stroke="none" stroke-width="1" fill="none" fill-rule="evenodd">
        <g id="导航标注" transform="translate(-1559.000000, -576.000000)">
            <g id="编组-4" transform="translate(1559.506264, 576.506148)">
                <rect id="矩形" x="0" y="0" width="16" height="16"></rect>
                <path d="M5.16093292,6.59657161 L5.8680397,7.30367839 L3.0800397,10.0916784 C2.29833203,10.8733861 2.29833203,12.139664 3.0800397,12.9205716 C3.81971467,13.6602466 4.99538872,13.6991768 5.78158469,13.0374163 L5.90886953,12.920635 L8.69686953,10.131635 L9.40410309,10.838615 L6.61585862,13.6278594 C5.44360778,14.7989104 3.5441649,14.7989104 2.373114,13.6278594 C1.24753953,12.503437 1.20251655,10.7076762 2.23788486,9.52864518 L2.37293292,9.38457161 L5.16093292,6.59657161 Z" id="形状结合-path" fill="currentColor" fill-rule="nonzero"></path>
                <path d="M13.6276584,2.37289044 C14.7522441,3.49632392 14.7972276,5.29191656 13.7627691,6.47108597 L13.6278397,6.61517839 L10.8778397,9.36517839 L10.1707329,8.65807161 L12.9205519,5.90825269 C13.7014707,5.12653377 13.7014707,3.86011635 12.9207329,3.08017839 C12.1801677,2.33961323 11.0046975,2.30063611 10.2189784,2.96330171 L10.0917754,3.08024268 L7.3417754,5.82924268 L6.63479722,5.12200732 L9.38455193,2.37325269 C10.5558253,1.20077928 12.4555474,1.20077928 13.6276584,2.37289044 Z" id="形状结合-path" fill="currentColor" fill-rule="nonzero"></path>
                <polygon id="形状结合-path" fill="currentColor" fill-rule="nonzero" points="8.69668631 6.505725 9.40368631 7.213725 7.28268631 9.334725 6.57568631 8.627725"></polygon>
            </g>
        </g>
    </g>
</svg>