<svg width="17" height="17" xmlns="http://www.w3.org/2000/svg"><g fill="none" fill-rule="evenodd"><path d="M.506.506h16v16h-16z"/><path d="m5.667 7.103.707.707-2.788 2.788a2 2 0 0 0 2.702 2.946l.127-.117 2.788-2.79.707.708-2.788 2.789a3.001 3.001 0 0 1-4.378-4.1l.135-.143 2.788-2.788Zm8.467-4.224a3 3 0 0 1 .135 4.098l-.135.144-2.75 2.75-.707-.707 2.75-2.75a2 2 0 0 0-2.702-2.945l-.127.117-2.75 2.75-.707-.708 2.75-2.749a3 3 0 0 1 4.243 0Z" fill="currentColor" fill-rule="nonzero"/><path fill="currentColor" fill-rule="nonzero" d="m9.203 7.012.707.708-2.121 2.12-.707-.706z"/></g></svg>
