<?xml version="1.0" encoding="UTF-8"?>
<svg width="16px" height="16px" viewBox="0 0 16 16" version="1.1" xmlns="http://www.w3.org/2000/svg" xmlns:xlink="http://www.w3.org/1999/xlink">
    <g id="重复周期选择" stroke="none" stroke-width="1" fill="none" fill-rule="evenodd" stroke-linecap="round" stroke-linejoin="round">
        <path d="M13.1511353,4.03515822 C11.9626136,2.493314 10.0973073,1.5 8,1.5 C4.41014913,1.5 1.5,4.41014913 1.5,8 C1.5,8.51190914 1.55917635,9.0099969 1.67106149,9.48779572 M2.87942314,12.0041734 C4.06922196,13.5235579 5.92058084,14.5 8,14.5 C11.5898509,14.5 14.5,11.5898509 14.5,8 C14.5,7.48068663 14.4390994,6.97559736 14.3240506,6.49148447" id="形状" stroke="#B8BABF"></path>
        <polyline id="路径" stroke="#B8BABF" points="13.5 2.00004689 13.5 4.50004689 11 4.50004689"></polyline>
        <polyline id="路径" stroke="#B8BABF" transform="translate(3.750000, 12.750000) rotate(-180.000000) translate(-3.750000, -12.750000) " points="5 11.5 5 14 2.5 14"></polyline>
        <line x1="7" y1="9" x2="10" y2="9" id="直线" stroke="#B8BABF"></line>
        <line x1="7" y1="6" x2="7" y2="9" id="直线" stroke="#B8BABF"></line>
    </g>
</svg>