<?xml version="1.0" encoding="UTF-8"?>
<svg width="16px" height="16px" viewBox="0 0 16 16" version="1.1" xmlns="http://www.w3.org/2000/svg" xmlns:xlink="http://www.w3.org/1999/xlink">
    <g id="quarter" stroke="none" stroke-width="1" fill="none" fill-rule="evenodd">
        <rect id="矩形" stroke="currentColor" stroke-linejoin="round" x="1.5" y="3" width="13" height="11"></rect>
        <line x1="5" y1="2" x2="5" y2="4" id="直线" stroke="currentColor" stroke-linecap="round" stroke-linejoin="round"></line>
        <line x1="11" y1="2" x2="11" y2="4" id="直线" stroke="currentColor" stroke-linecap="round" stroke-linejoin="round"></line>
        <line x1="1.5" y1="6.0024863" x2="14.5" y2="6.0024863" id="直线" stroke="currentColor" stroke-linecap="round" stroke-linejoin="round"></line>
        <path d="M5.9875,10.16 C6.8175,9.84 7.3925,9.455 7.7225,9.01 L7.7275,9.01 L7.7275,9.71 L8.2575,9.71 L8.2575,9.01 L8.2775,9.01 C8.6275,9.47 9.2225,9.845 10.0575,10.13 L10.2925,9.64 C9.6325,9.485 9.1325,9.275 8.8025,9.01 L10.1575,9.01 L10.1575,8.53 L8.2575,8.53 L8.2575,8.275 C8.8125,8.235 9.3025,8.18 9.7275,8.105 L9.4925,7.7 C8.5925,7.83 7.4975,7.895 6.2075,7.895 L6.3525,8.335 C6.8425,8.335 7.2975,8.325 7.7275,8.305 L7.7275,8.53 L5.8275,8.53 L5.8275,9.01 L7.1625,9.01 C6.8675,9.265 6.3825,9.5 5.7075,9.71 L5.9875,10.16 Z M7.8025,12.3 C8.1775,12.3 8.3675,12.135 8.3675,11.815 L8.3675,11.385 L10.0575,11.385 L10.0575,10.91 L8.3675,10.91 L8.3675,10.87 C8.6825,10.7 8.9675,10.53 9.2275,10.355 L9.2275,9.9 L6.6375,9.9 L6.6375,10.355 L8.5325,10.355 C8.3575,10.445 8.1275,10.55 7.8425,10.68 L7.8425,10.91 L5.9225,10.91 L5.9225,11.385 L7.8425,11.385 L7.8425,11.645 C7.8425,11.775 7.7675,11.845 7.6275,11.845 C7.4325,11.845 7.2525,11.84 7.0825,11.84 L7.2175,12.3 L7.8025,12.3 Z" id="季" stroke="currentColor" stroke-width="0.1" fill="currentColor" fill-rule="nonzero"></path>
    </g>
</svg>