<svg width="16" height="16" xmlns="http://www.w3.org/2000/svg"><g fill="none" fill-rule="evenodd" stroke="currentColor"><path stroke-linejoin="round" d="M1.5 2.5h13v11h-13z"/><path d="M4.729 10.118c.4 0 .717-.078.938-.235.259-.19.39-.488.39-.891 0-.269-.063-.487-.184-.644-.127-.163-.311-.27-.559-.32a.934.934 0 0 0 .432-.33c.1-.157.153-.347.153-.572 0-.302-.1-.543-.295-.722-.21-.19-.506-.286-.88-.286H3v4h1.729Zm-.169-2.32h-.943V6.657h.954c.253 0 .432.045.548.134.106.084.164.224.164.415 0 .207-.058.358-.164.454-.11.09-.295.14-.559.14Zm.08 1.782H3.616V8.337h1.038c.274 0 .475.05.601.15.121.102.185.264.185.494 0 .224-.085.38-.253.482-.132.078-.317.117-.549.117Zm3.558.538v-3.44H9.43v-.56H6.347v.56h1.234v3.44h.617Zm2.298 0V7.194h.021l1.882 2.924H13v-4h-.622v2.885h-.021l-1.861-2.885h-.617v4h.617Z" stroke-width=".15" fill="currentColor" fill-rule="nonzero"/></g></svg>
