<svg width="16" height="16" xmlns="http://www.w3.org/2000/svg"><g fill="none" fill-rule="evenodd" stroke="currentColor"><path stroke-linejoin="round" d="M1.5 4.5h11v9h-11z"/><path stroke-linecap="round" stroke-linejoin="round" d="M3.5 2.5h11v9"/><path d="M4.383 10.506c.32 0 .574-.06.75-.178.208-.143.313-.366.313-.67 0-.203-.05-.367-.148-.485a.734.734 0 0 0-.447-.24.743.743 0 0 0 .346-.25.749.749 0 0 0 .122-.43.682.682 0 0 0-.236-.543c-.168-.144-.405-.216-.704-.216H3v3.012h1.383ZM4.248 8.76h-.755V7.9h.764c.202 0 .346.033.438.1.085.064.131.17.131.313 0 .156-.046.27-.13.341-.09.068-.237.106-.448.106Zm.064 1.34h-.819v-.936h.831c.22 0 .38.038.481.114.097.076.148.199.148.371 0 .17-.068.287-.203.363a.908.908 0 0 1-.438.089Zm2.846.406v-2.59h.987v-.422H5.678v.422h.987v2.59h.493Zm1.839 0V8.304h.017l1.505 2.202H11V7.494h-.498v2.172h-.016l-1.49-2.172h-.493v3.012h.494Z" stroke-width=".1" fill="currentColor" fill-rule="nonzero"/></g></svg>
