<svg width="16" height="16" viewBox="0 0 16 16" fill="none" xmlns="http://www.w3.org/2000/svg">
	<path d="M15 8C15 11.866 11.866 15 8 15C4.13401 15 1 11.866 1 8C1 4.13401 4.13401 1 8 1C11.866 1 15 4.13401 15 8Z" fill="#A2DDAA" />
	<path d="M14.5 8C14.5 11.5899 11.5899 14.5 8 14.5C4.41015 14.5 1.5 11.5899 1.5 8C1.5 4.41015 4.41015 1.5 8 1.5C11.5899 1.5 14.5 4.41015 14.5 8Z" stroke="black" stroke-opacity="0.2" />
	<path fill-rule="evenodd" clip-rule="evenodd" d="M12.805 5.5932L7.63915 12.6041L4.24167 8.65189L5.7583 7.34811L7.51872 9.39594L11.1949 4.4068L12.805 5.5932Z" fill="white" />
</svg>
