<svg width="16" height="16" viewBox="0 0 16 16" fill="none" xmlns="http://www.w3.org/2000/svg">
	<path d="M14.9999 7.99996C14.9999 11.8659 11.8659 14.9999 7.99996 14.9999C4.13399 14.9999 1 11.8659 1 7.99996C1 4.13399 4.13399 1 7.99996 1C11.8659 1 14.9999 4.13399 14.9999 7.99996Z" fill="#FF9198" />
	<path d="M14.4999 7.99996C14.4999 11.5898 11.5898 14.4999 7.99996 14.4999C4.41013 14.4999 1.5 11.5898 1.5 7.99996C1.5 4.41013 4.41013 1.5 7.99996 1.5C11.5898 1.5 14.4999 4.41013 14.4999 7.99996Z" stroke="black" stroke-opacity="0.2" />
	<path fill-rule="evenodd" clip-rule="evenodd" d="M6.5858 8L4.29291 5.70711L5.70712 4.29289L8.00001 6.58579L10.2929 4.29289L11.7071 5.70711L9.41423 8L11.7071 10.2929L10.2929 11.7071L8.00001 9.41421L5.70712 11.7071L4.29291 10.2929L6.5858 8Z" fill="white" />
</svg>
