<svg xmlns="http://www.w3.org/2000/svg" width="16" height="16" fill="none"><path fill="#FF9198" fill-rule="evenodd" d="M6.197 8 2 3.803 3.803 2 8 6.197 12.197 2 14 3.803 9.803 8 14 12.197 12.197 14 8 9.803 3.803 14 2 12.197z" clip-rule="evenodd"/><path stroke="#000" stroke-opacity=".2" d="m8.354 6.55 3.843-3.843 1.096 1.096-3.844 3.843L9.096 8l.353.354 3.844 3.843-1.096 1.096-3.843-3.844L8 9.096l-.354.353-3.843 3.844-1.096-1.096 3.844-3.843L6.904 8l-.353-.354-3.844-3.843 1.096-1.096 3.843 3.844.354.353z"/></svg>
