<svg xmlns="http://www.w3.org/2000/svg" width="16" height="16" fill="none"><path fill="#F8DB8F" d="M15 8A7 7 0 1 1 1 8a7 7 0 0 1 14 0"/><path stroke="#000" stroke-opacity=".2" d="M14.5 8a6.5 6.5 0 1 1-13 0 6.5 6.5 0 0 1 13 0Z"/><path fill="#fff" d="M7.272 8.654 7.06 5.49Q7 4.566 7 4.162q0-.548.285-.852.291-.31.761-.31.57 0 .762.396.192.39.192 1.13 0 .435-.046.885l-.285 3.256q-.046.582-.199.892a.52.52 0 0 1-.503.31q-.358 0-.497-.297-.14-.305-.198-.918M8.007 13q-.405 0-.709-.258Q7 12.478 7 12.01q0-.41.285-.693a.97.97 0 0 1 .708-.29q.418 0 .709.29.298.284.298.693 0 .462-.298.727T8.007 13"/></svg>
