<svg xmlns="http://www.w3.org/2000/svg" width="16" height="16" fill="none"><path fill="#F8DB8F" d="M7.407 8.915 7.09 4.486Q7 3.192 7 2.627q0-.767.427-1.192Q7.864 1 8.57 1q.854 0 1.142.555Q10 2.1 10 3.136q0 .61-.07 1.24l-.427 4.558q-.069.814-.298 1.248t-.755.435q-.536 0-.745-.416-.208-.425-.298-1.286M8.51 15q-.606 0-1.063-.36Q7 14.268 7 13.612q0-.573.427-.971a1.5 1.5 0 0 1 1.063-.407q.626 0 1.063.407.447.398.447.97 0 .648-.447 1.018T8.51 15"/><path stroke="#000" stroke-opacity=".2" d="m9.268 1.785.002.003c.136.259.23.69.23 1.348q0 .582-.067 1.184v.009l-.428 4.558v.004c-.044.515-.135.854-.242 1.059a.3.3 0 0 1-.11.125.4.4 0 0 1-.203.042.43.43 0 0 1-.21-.04.2.2 0 0 1-.087-.099c-.099-.203-.19-.558-.248-1.106l-.317-4.42V4.45A30 30 0 0 1 7.5 2.627c0-.416.113-.672.28-.838.184-.183.43-.289.79-.289.461 0 .623.14.698.285Zm-.056 11.223.009.008a.753.753 0 0 1 .279.597c0 .302-.097.492-.266.632a1.09 1.09 0 0 1-.724.255c-.294 0-.537-.084-.749-.25-.164-.137-.261-.329-.261-.637 0-.24.083-.433.268-.605.194-.18.425-.273.722-.273.298 0 .528.092.722.273Z"/></svg>
